<svg width="26" height="24" viewBox="0 0 26 24" fill="none" xmlns="http://www.w3.org/2000/svg">
<path fill-rule="evenodd" clip-rule="evenodd" d="M4.75 16.25C4.75 12.0353 8.51976 8.75 13 8.75C17.4802 8.75 21.25 12.0353 21.25 16.25C21.25 16.6642 20.9142 17 20.5 17C20.0858 17 19.75 16.6642 19.75 16.25C19.75 13.0085 16.8044 10.25 13 10.25C9.19562 10.25 6.25 13.0085 6.25 16.25C6.25 16.6642 5.91421 17 5.5 17C5.08579 17 4.75 16.6642 4.75 16.25Z" fill="#2F2F2F"/>
<path fill-rule="evenodd" clip-rule="evenodd" d="M13.0001 4C13.5523 4 14.0001 4.44772 14.0001 5V5.11998C14.0001 5.67226 13.5523 6.11998 13.0001 6.11998C12.4478 6.11998 12.0001 5.67226 12.0001 5.11998V5C12.0001 4.44772 12.4478 4 13.0001 4ZM3.08293 8.58287C3.47346 8.19235 4.10662 8.19235 4.49715 8.58287L4.69215 8.77788C5.08268 9.1684 5.08268 9.80157 4.69215 10.1921C4.30163 10.5826 3.66846 10.5826 3.27794 10.1921L3.08293 9.99708C2.69241 9.60656 2.69241 8.9734 3.08293 8.58287ZM22.9172 8.58287C23.3077 8.9734 23.3077 9.60656 22.9172 9.99708L22.7222 10.1921C22.3317 10.5826 21.6985 10.5826 21.308 10.1921C20.9174 9.80157 20.9174 9.1684 21.308 8.77788L21.503 8.58287C21.8935 8.19235 22.5267 8.19235 22.9172 8.58287Z" fill="#2F2F2F"/>
<path fill-rule="evenodd" clip-rule="evenodd" d="M0.25 17C0.25 16.5858 0.585786 16.25 1 16.25H25C25.4142 16.25 25.75 16.5858 25.75 17C25.75 17.4142 25.4142 17.75 25 17.75H1C0.585786 17.75 0.25 17.4142 0.25 17Z" fill="#2F2F2F"/>
</svg>
