<svg width="24" height="24" viewBox="0 0 24 24" fill="none" xmlns="http://www.w3.org/2000/svg">
<path fill-rule="evenodd" clip-rule="evenodd" d="M10.2352 1.62984C10.8577 2.21519 10.7142 3.10867 10.4178 3.78943L10.4173 3.7906C9.96799 4.81751 9.72097 5.94337 9.73013 7.13421L9.73015 7.13688C9.74844 11.5563 13.422 15.3266 17.9208 15.5106L17.9214 15.5106C18.5856 15.5383 19.2205 15.4922 19.837 15.3819C20.2418 15.3082 20.6358 15.2958 20.9885 15.378C21.3479 15.4619 21.7051 15.6568 21.9264 16.0189C22.1467 16.3795 22.1582 16.7846 22.0737 17.14C21.9905 17.4901 21.8069 17.8358 21.5646 18.164C19.4404 21.0702 15.9042 22.9104 11.9577 22.7393L11.9572 22.7393C6.35649 22.493 1.66975 18.0129 1.28204 12.4732C0.927802 7.5624 3.8423 3.28549 8.07872 1.49892C8.75853 1.21098 9.63602 1.06646 10.2352 1.62984ZM9.17031 2.74535C9.07022 2.74811 8.90207 2.77908 8.66292 2.88048L8.66158 2.88105C4.97825 4.43437 2.47284 8.13707 2.7782 12.366L2.77833 12.3677C3.11104 17.1274 7.16385 21.0268 12.0226 21.2407M9.25063 2.7515C9.2506 2.75153 9.24977 2.75131 9.24825 2.75071C9.24991 2.75116 9.25067 2.75146 9.25063 2.7515ZM9.17031 2.74535C9.16436 2.83328 9.13423 2.97978 9.04281 3.18988C8.51239 4.40245 8.21952 5.73596 8.23016 7.14442C8.25259 12.3844 12.5787 16.7934 17.8595 17.0094C18.6347 17.0416 19.3793 16.9877 20.1024 16.8582L20.1048 16.8578C20.3442 16.8141 20.5064 16.8161 20.604 16.8306C20.574 16.9267 20.5034 17.0761 20.3569 17.2743L20.3546 17.2775C18.5187 19.7903 15.4556 21.3894 12.0231 21.2407M20.6954 16.854C20.6954 16.854 20.6949 16.8538 20.6941 16.8533L20.6954 16.854ZM20.6227 16.74C20.6226 16.7387 20.6226 16.738 20.6226 16.7379C20.6227 16.7379 20.6227 16.7386 20.6227 16.74Z" fill="#2F2F2F"/>
<path fill-rule="evenodd" clip-rule="evenodd" d="M21.6407 3.7173C21.3605 2.71027 20.7833 1.97523 20.0327 1.53438C19.1796 1.03334 18.1739 0.954103 17.2792 1.18932C16.3844 1.42455 15.5473 1.9882 15.0488 2.84317C14.6564 3.51625 14.4992 4.32661 14.6473 5.21712C12.4488 6.11372 12.7302 9.75218 15.4915 9.94689C15.5091 9.94812 15.5267 9.94874 15.5443 9.94874H20.6245C21.4281 9.95397 22.2033 9.65718 22.7959 9.11584C23.8027 8.23211 24.0125 6.92131 23.681 5.83361C23.3951 4.89583 22.6828 4.04477 21.6407 3.7173ZM16.1513 5.09954C16.0154 4.46725 16.1282 3.97 16.3447 3.59869C16.6175 3.13079 17.0996 2.78751 17.6606 2.64003C18.2216 2.49255 18.8083 2.55482 19.2731 2.82779C19.7201 3.09036 20.1261 3.58951 20.2724 4.46816C20.3268 4.79491 20.5891 5.04727 20.9177 5.08901C21.5691 5.17176 22.056 5.64704 22.2462 6.27096C22.4363 6.89479 22.2973 7.56028 21.8025 7.9919L21.788 8.0049C21.4747 8.2929 21.0624 8.45195 20.6328 8.44876L15.5738 8.44874C14.3907 8.3432 14.3895 6.63413 15.5702 6.52532C15.7195 6.52912 15.8638 6.56578 15.9922 6.63119C16.3613 6.81921 16.8129 6.67243 17.0009 6.30335C17.1889 5.93427 17.0422 5.48265 16.6731 5.29463C16.5064 5.20971 16.3313 5.14453 16.1513 5.09954Z" fill="#2F2F2F"/>
<path fill-rule="evenodd" clip-rule="evenodd" d="M21.5301 4.34978C21.5349 4.62588 21.3149 4.85357 21.0388 4.85833C20.8479 4.86162 20.6601 4.90768 20.4884 4.99353C20.2414 5.11702 19.941 5.01691 19.8175 4.76992C19.694 4.52293 19.7942 4.2226 20.0412 4.0991C20.3461 3.94662 20.6808 3.86435 21.0216 3.85847C21.2977 3.85371 21.5253 4.07368 21.5301 4.34978Z" fill="#2F2F2F"/>
</svg>
