<svg width="24" height="24" viewBox="0 0 24 24" fill="none" xmlns="http://www.w3.org/2000/svg">
<path fill-rule="evenodd" clip-rule="evenodd" d="M12 6.25C8.82436 6.25 6.25 8.82436 6.25 12C6.25 15.1756 8.82436 17.75 12 17.75C15.1756 17.75 17.75 15.1756 17.75 12C17.75 8.82436 15.1756 6.25 12 6.25ZM4.75 12C4.75 7.99594 7.99594 4.75 12 4.75C16.0041 4.75 19.25 7.99594 19.25 12C19.25 16.0041 16.0041 19.25 12 19.25C7.99594 19.25 4.75 16.0041 4.75 12Z" fill="#2F2F2F"/>
<path fill-rule="evenodd" clip-rule="evenodd" d="M12 0C12.5523 0 13 0.447715 13 1V2.08C13 2.63228 12.5523 3.08 12 3.08C11.4477 3.08 11 2.63228 11 2.08V1C11 0.447715 11.4477 0 12 0ZM3.29289 3.29289C3.68342 2.90237 4.31658 2.90237 4.70711 3.29289L5.69711 4.28289C6.08763 4.67342 6.08763 5.30658 5.69711 5.69711C5.30658 6.08763 4.67342 6.08763 4.28289 5.69711L3.29289 4.70711C2.90237 4.31658 2.90237 3.68342 3.29289 3.29289ZM20.7071 3.29289C21.0976 3.68342 21.0976 4.31658 20.7071 4.70711L20.4028 5.01138C20.3944 5.0198 20.398 5.01617 20.4009 5.01336L20.3255 5.08869C20.3142 5.10002 20.3222 5.09203 20.3255 5.08869L19.8237 5.59047C19.8199 5.59427 19.8204 5.59384 19.8214 5.59277L19.7325 5.68176L19.7297 5.68448L19.7285 5.68575L19.7261 5.68809L19.724 5.69017L19.7231 5.69111L19.7222 5.69199L19.7214 5.69279L19.7207 5.69353L19.7194 5.69481L19.7186 5.69558L19.7177 5.69653C19.3272 6.08705 18.6934 6.08763 18.3029 5.69711C17.9124 5.30658 17.9124 4.67342 18.3029 4.28289L18.3047 4.28113L18.3055 4.2803L18.3065 4.27932L18.3072 4.27858L18.308 4.27777L18.3098 4.27596L18.3108 4.27495L18.3119 4.27388L18.3261 4.25965L18.3808 4.20497L18.8161 3.76972C18.8338 3.75199 18.8037 3.78212 18.8214 3.7644L18.8468 3.73899L18.8529 3.73293C18.8505 3.73524 18.8465 3.73925 18.8468 3.73899C18.847 3.73883 18.8483 3.73752 18.8529 3.73293L19.1261 3.45966C19.1378 3.44802 19.1188 3.46694 19.1305 3.45531L19.2563 3.32951L19.2732 3.31257C19.2825 3.30324 19.2666 3.31924 19.2759 3.30992L19.2929 3.29289C19.6834 2.90237 20.3166 2.90237 20.7071 3.29289ZM0 12C0 11.4477 0.447715 11 1 11H2.08C2.63228 11 3.08 11.4477 3.08 12C3.08 12.5523 2.63228 13 2.08 13H1C0.447715 13 0 12.5523 0 12ZM20.92 12C20.92 11.4477 21.3677 11 21.92 11H23C23.5523 11 24 11.4477 24 12C24 12.5523 23.5523 13 23 13H21.9208C21.3685 13 20.92 12.5523 20.92 12ZM5.69711 18.3029C6.08763 18.6934 6.08763 19.3266 5.69711 19.7171L4.70711 20.7071C4.31658 21.0976 3.68342 21.0976 3.29289 20.7071C2.90237 20.3166 2.90237 19.6834 3.29289 19.2929L4.28289 18.3029C4.67342 17.9124 5.30658 17.9124 5.69711 18.3029ZM18.3029 19.7171C17.9124 19.3266 17.9124 18.6934 18.3029 18.3029C18.6934 17.9124 19.3266 17.9124 19.7171 18.3029L19.01 19.01L18.3029 19.7171ZM19.01 19.01L18.3029 19.7171L18.3045 19.7187L18.3054 19.7196L18.3092 19.7234L18.3103 19.7245L18.3115 19.7257L18.3264 19.7406L18.3294 19.7436L18.3665 19.7807L18.3743 19.7885L18.3825 19.7967L18.3876 19.8018L18.4018 19.816L18.4093 19.8235L19.2719 20.6861L19.2798 20.694L19.2859 20.7001L19.305 20.7192L19.3144 20.7286L19.3217 20.7359L19.3281 20.7423L19.3289 20.7431L19.3297 20.7439L19.3328 20.747L19.3335 20.7477L19.3349 20.7491L19.3362 20.7504L19.3374 20.7516L19.3386 20.7528L19.3406 20.7548L19.3415 20.7557L19.343 20.7572C19.7335 21.1478 20.3673 21.1484 20.7579 20.7579C21.1484 20.3673 21.1484 19.7342 20.7579 19.3437L20.7561 19.3419L20.7553 19.3411L20.7533 19.3391L20.7522 19.338L20.751 19.3368L20.7498 19.3356L20.7484 19.3342L20.747 19.3328L20.7439 19.3297L20.7431 19.3289L20.7423 19.3281L20.7359 19.3217L20.7286 19.3144L20.7192 19.305L20.7001 19.2859L20.694 19.2798L20.6861 19.2719L19.8235 18.4093L19.816 18.4018L19.8018 18.3876L19.7967 18.3825L19.7885 18.3743L19.7807 18.3665L19.7436 18.3294L19.7406 18.3264L19.7263 18.3121L19.7251 18.3109L19.724 18.3097L19.7203 18.3061L19.7193 18.3051L19.7171 18.3029L19.01 19.01ZM12 20.92C12.5523 20.92 13 21.3677 13 21.92V23C13 23.5523 12.5523 24 12 24C11.4477 24 11 23.5523 11 23V21.92C11 21.3677 11.4477 20.92 12 20.92Z" fill="#2F2F2F"/>
</svg>
