<svg width="24" height="24" viewBox="0 0 24 24" fill="none" xmlns="http://www.w3.org/2000/svg">
<path d="M24 0H0V24H24V0Z" fill="white" fill-opacity="0.01"/>
<path d="M2.90918 3.36328V6.99964H6.54556" stroke="#1877F2" stroke-width="1.33" stroke-linecap="round" stroke-linejoin="round"/>
<path d="M2 12C2 17.5229 6.47715 22 12 22C17.5229 22 22 17.5229 22 12C22 6.47715 17.5229 2 12 2C8.299 2 5.06755 4.01056 3.33839 6.99905" stroke="#1877F2" stroke-width="1.33" stroke-linecap="round" stroke-linejoin="round"/>
<path d="M15.7497 9.08301H8.24967C8.01956 9.08301 7.83301 9.26956 7.83301 9.49967V14.4997C7.83301 14.7298 8.01956 14.9163 8.24967 14.9163H15.7497C15.9798 14.9163 16.1663 14.7298 16.1663 14.4997V9.49967C16.1663 9.26956 15.9798 9.08301 15.7497 9.08301Z" stroke="#1877F2" stroke-width="1.33" stroke-linejoin="round"/>
<path d="M7.83301 11.167H16.1663" stroke="#1877F2" stroke-width="1.33" stroke-linecap="round" stroke-linejoin="round"/>
<path d="M7.83301 10.542V11.792" stroke="#1877F2" stroke-width="1.33" stroke-linecap="round" stroke-linejoin="round"/>
<path d="M16.167 10.542V11.792" stroke="#1877F2" stroke-width="1.33" stroke-linecap="round" stroke-linejoin="round"/>
<path d="M13.042 13.042H14.7087" stroke="#1877F2" stroke-width="1.33" stroke-linecap="round" stroke-linejoin="round"/>
</svg>
