<svg width="120" height="16" viewBox="0 0 120 16" fill="none" xmlns="http://www.w3.org/2000/svg">
<g clip-path="url(#clip0_1664_73329)">
<path d="M21.6853 0.25H2.2431C1.1418 0.25 0.249023 1.14543 0.249023 2.25V13.75C0.249023 14.8546 1.1418 15.75 2.2431 15.75H21.6853C22.7866 15.75 23.6794 14.8546 23.6794 13.75V2.25C23.6794 1.14543 22.7866 0.25 21.6853 0.25Z" fill="white" stroke="black" stroke-opacity="0.2" stroke-width="0.5"/>
<path d="M2.77951 5.91444C2.25792 5.62751 1.66263 5.39674 0.99707 5.23659L1.02499 5.11188H3.75386C4.12374 5.12489 4.42388 5.23651 4.52155 5.63071L5.1146 8.46659L5.29628 9.32073L6.95733 5.11188H8.75082L6.08484 11.2775H4.29125L2.77951 5.91444ZM10.0701 11.2841H8.37398L9.43485 5.11188H11.1309L10.0701 11.2841ZM16.2186 5.26277L15.988 6.59559L15.8346 6.53004C15.5276 6.40525 15.1225 6.28054 14.5711 6.29371C13.9015 6.29371 13.6012 6.56277 13.5942 6.82546C13.5942 7.11441 13.9575 7.30484 14.5507 7.58725C15.5279 8.02719 15.9812 8.56557 15.9744 9.26819C15.9607 10.5486 14.8021 11.3761 13.0224 11.3761C12.2615 11.3694 11.5286 11.2181 11.1308 11.0476L11.3681 9.66205L11.5915 9.76066C12.1429 9.99071 12.5057 10.089 13.1829 10.089C13.6712 10.089 14.1947 9.89838 14.2014 9.48488C14.2014 9.21565 13.9784 9.01851 13.3222 8.71646C12.6802 8.42087 11.8218 7.92848 11.8357 7.04198C11.8429 5.84042 13.0224 5 14.6974 5C15.3535 5 15.8841 5.13789 16.2186 5.26277ZM18.4729 9.09749H19.8827C19.8129 8.78889 19.4918 7.31147 19.4918 7.31147L19.3732 6.77964C19.2895 7.00943 19.143 7.38373 19.1501 7.37056C19.1501 7.37056 18.6126 8.7429 18.4729 9.09749ZM20.5665 5.11188L21.9349 11.284H20.3644C20.3644 11.284 20.2108 10.5748 20.1621 10.3581H17.9844C17.9214 10.5222 17.6284 11.284 17.6284 11.284H15.8487L18.3681 5.62399C18.5427 5.22342 18.85 5.11188 19.2546 5.11188H20.5665Z" fill="#171E6C"/>
</g>
<g clip-path="url(#clip1_1664_73329)">
<path d="M53.8635 0H33.9228C32.8215 0 31.9287 0.89543 31.9287 2V14C31.9287 15.1046 32.8215 16 33.9228 16H53.8635C54.9648 16 55.8576 15.1046 55.8576 14V2C55.8576 0.89543 54.9648 0 53.8635 0Z" fill="#252525"/>
<path d="M40.9022 13C43.6554 13 45.8874 10.7614 45.8874 8C45.8874 5.23858 43.6554 3 40.9022 3C38.1489 3 35.917 5.23858 35.917 8C35.917 10.7614 38.1489 13 40.9022 13Z" fill="#EB001B"/>
<path d="M46.8846 13C49.6378 13 51.8698 10.7614 51.8698 8C51.8698 5.23858 49.6378 3 46.8846 3C44.1314 3 41.8994 5.23858 41.8994 8C41.8994 10.7614 44.1314 13 46.8846 13Z" fill="#F79E1B"/>
<path fill-rule="evenodd" clip-rule="evenodd" d="M43.8935 4C45.1043 4.91221 45.8876 6.36455 45.8876 8.00037C45.8876 9.63618 45.1043 11.0885 43.8935 12.0007C42.6826 11.0885 41.8994 9.63618 41.8994 8.00037C41.8994 6.36455 42.6826 4.91221 43.8935 4Z" fill="#FF5F00"/>
</g>
<g clip-path="url(#clip2_1664_73329)">
<path d="M85.7923 0H65.8515C64.7502 0 63.8574 0.89543 63.8574 2V14C63.8574 15.1046 64.7502 16 65.8515 16H85.7923C86.8936 16 87.7863 15.1046 87.7863 14V2C87.7863 0.89543 86.8936 0 85.7923 0Z" fill="#016FD0"/>
<path fill-rule="evenodd" clip-rule="evenodd" d="M77.5811 13.3938V7.69238L87.6985 7.70149V9.27638L86.5291 10.5298L87.6985 11.7947V13.403H85.8315L84.8392 12.3048L83.854 13.4071L77.5811 13.3938Z" fill="#FFFFFE"/>
<path fill-rule="evenodd" clip-rule="evenodd" d="M78.2568 12.7692V8.32031H82.018V9.3452H79.4746V10.0409H81.9573V11.0487H79.4746V11.732H82.018V12.7692H78.2568Z" fill="#016FD0"/>
<path fill-rule="evenodd" clip-rule="evenodd" d="M81.9991 12.7691L84.0803 10.5421L81.999 8.32031H83.6099L84.8816 9.73035L86.1569 8.32031H87.6985V8.35532L85.6617 10.5421L87.6985 12.706V12.7691H86.1414L84.8471 11.3449L83.5662 12.7691H81.9991Z" fill="#016FD0"/>
<path fill-rule="evenodd" clip-rule="evenodd" d="M78.0527 2.63184H80.4915L81.3481 4.58269V2.63184H84.359L84.8782 4.09341L85.3992 2.63184H87.6983V8.33323H75.5479L78.0527 2.63184Z" fill="#FFFFFE"/>
<path fill-rule="evenodd" clip-rule="evenodd" d="M78.5141 3.25195L76.5459 7.69712H77.8958L78.2671 6.80696H80.2791L80.6501 7.69712H82.0336L80.0736 3.25195H78.5141ZM78.6832 5.80939L79.2734 4.39432L79.8632 5.80939H78.6832Z" fill="#016FD0"/>
<path fill-rule="evenodd" clip-rule="evenodd" d="M82.0156 7.69606V3.25098L83.9131 3.25752L84.8895 5.99025L85.8722 3.25098H87.6984V7.69606L86.5232 7.70649V4.65314L85.414 7.69606H84.3414L83.2091 4.64271V7.69606H82.0156Z" fill="#016FD0"/>
</g>
<g clip-path="url(#clip3_1664_73329)">
<path d="M117.719 15.7499L117.721 15.7499C118.673 15.7581 119.455 14.9773 119.467 14.0042L119.467 2.0063C119.463 1.53569 119.276 1.08617 118.948 0.756802C118.62 0.428269 118.179 0.246149 117.719 0.250071L97.7816 0.250062C97.3234 0.246149 96.8822 0.428269 96.5549 0.756802C96.2267 1.08617 96.04 1.53569 96.0361 2.00426L96.0361 13.9937C96.04 14.4643 96.2267 14.9138 96.5549 15.2432C96.8822 15.5717 97.3234 15.7538 97.7837 15.7499H117.719ZM117.718 16.2499C117.718 16.2499 117.717 16.2499 117.717 16.2499L117.719 16.2499H117.718Z" fill="white" stroke="black" stroke-opacity="0.2" stroke-width="0.5"/>
<path d="M108.362 16.0002H117.719C118.245 16.0046 118.75 15.7995 119.124 15.4301C119.499 15.0607 119.712 14.5573 119.716 14.0305V11.6719C116.183 13.7062 112.351 15.167 108.362 16.0002Z" fill="#F27712"/>
<path d="M118.891 9.29692H118.041L117.084 8.03072H116.993V9.29692H116.3V6.15209H117.323C118.124 6.15209 118.586 6.48313 118.586 7.07899C118.586 7.56727 118.297 7.88175 117.777 7.98106L118.891 9.29692ZM117.868 7.10382C117.868 6.79761 117.637 6.64037 117.208 6.64037H116.993V7.59209H117.191C117.637 7.59209 117.868 7.42658 117.868 7.10382ZM113.874 6.15209H115.838V6.68175H114.567V7.3852H115.788V7.92313H114.567V8.77554H115.838V9.3052H113.874V6.15209ZM111.646 9.37968L110.145 6.14382H110.904L111.853 8.26244L112.81 6.14382H113.552L112.034 9.37968H111.663H111.646ZM105.367 9.37141C104.311 9.37141 103.486 8.6514 103.486 7.71623C103.486 6.80589 104.327 6.06934 105.383 6.06934C105.681 6.06934 105.928 6.12727 106.233 6.25968V6.98796C106.002 6.76013 105.691 6.63236 105.367 6.63209C104.707 6.63209 104.204 7.11209 104.204 7.71623C104.204 8.35347 104.699 8.80865 105.4 8.80865C105.714 8.80865 105.953 8.70934 106.233 8.46106V9.18934C105.92 9.32175 105.656 9.37141 105.367 9.37141ZM103.271 8.33692C103.271 8.94934 102.768 9.37141 102.042 9.37141C101.514 9.37141 101.134 9.18934 100.812 8.77554L101.266 8.38658C101.423 8.66796 101.687 8.80865 102.017 8.80865C102.33 8.80865 102.553 8.6183 102.553 8.37003C102.553 8.22934 102.487 8.12175 102.347 8.03899C102.193 7.96413 102.033 7.9032 101.868 7.85692C101.217 7.65003 100.994 7.42658 100.994 6.98796C100.994 6.47485 101.472 6.08589 102.099 6.08589C102.496 6.08589 102.85 6.21003 103.147 6.44175L102.784 6.85554C102.64 6.69732 102.437 6.6072 102.223 6.60727C101.926 6.60727 101.712 6.75623 101.712 6.95485C101.712 7.12037 101.835 7.21141 102.248 7.35209C103.04 7.60037 103.271 7.83209 103.271 8.3452V8.33692ZM99.8633 6.15209H100.556V9.3052H99.8633V6.15209ZM97.6355 9.3052H96.6123V6.15209H97.6355C98.7577 6.15209 99.5333 6.79761 99.5333 7.72451C99.5333 8.19623 99.3022 8.64313 98.8979 8.94106C98.5514 9.18934 98.1636 9.3052 97.6272 9.3052H97.6355ZM98.4441 6.9383C98.2131 6.75623 97.949 6.69003 97.4952 6.69003H97.3054V8.77554H97.4952C97.9408 8.77554 98.2213 8.69278 98.4441 8.52727C98.6834 8.32865 98.8237 8.03072 98.8237 7.72451C98.8237 7.4183 98.6834 7.12865 98.4441 6.9383Z" fill="black"/>
<path d="M108.164 6.06934C107.256 6.06934 106.514 6.79761 106.514 7.69968C106.514 8.65968 107.223 9.37968 108.164 9.37968C109.088 9.37968 109.814 8.6514 109.814 7.72451C109.814 6.79761 109.096 6.06934 108.164 6.06934Z" fill="#F27712"/>
</g>
<defs>
<clipPath id="clip0_1664_73329">
<rect width="23.9289" height="16" fill="white"/>
</clipPath>
<clipPath id="clip1_1664_73329">
<rect width="23.9289" height="16" fill="white" transform="translate(31.9287)"/>
</clipPath>
<clipPath id="clip2_1664_73329">
<rect width="23.9289" height="16" fill="white" transform="translate(63.8574)"/>
</clipPath>
<clipPath id="clip3_1664_73329">
<rect width="23.9289" height="16" fill="white" transform="translate(95.7871)"/>
</clipPath>
</defs>
</svg>
