<svg width="16" height="16" viewBox="0 0 16 16" fill="none" xmlns="http://www.w3.org/2000/svg">
<g clip-path="url(#clip0_196_11631)">
<path d="M1.54687 13.8802H6.55073C6.71662 13.8802 6.87571 13.8151 6.99301 13.6993C7.11031 13.5834 7.17621 13.4263 7.17621 13.2625C7.17621 13.0986 7.11031 12.9415 6.99301 12.8257C6.87571 12.7098 6.71662 12.6447 6.55073 12.6447H2.21676C2.36854 11.616 2.88987 10.6756 3.68555 9.99509C4.48123 9.31459 5.49819 8.93944 6.55073 8.93815C7.28722 8.94446 8.00274 8.69608 8.57328 8.23605C9.14381 7.77603 9.53341 7.13335 9.67456 6.41941C9.8157 5.70546 9.69948 4.96525 9.34606 4.32704C8.99263 3.68884 8.42427 3.19288 7.73946 2.9251C7.05466 2.65733 6.29659 2.63462 5.59661 2.86092C4.89664 3.08721 4.29889 3.54825 3.90696 4.16413C3.51502 4.78001 3.35361 5.51191 3.45068 6.23299C3.54776 6.95407 3.89721 7.61888 4.43848 8.1122C3.4003 8.52816 2.51122 9.24029 1.88476 10.1576C1.2583 11.075 0.922898 12.156 0.921387 13.2625C0.921387 13.4263 0.987286 13.5834 1.10459 13.6993C1.22189 13.8151 1.38098 13.8802 1.54687 13.8802ZM6.55073 3.99607C6.92186 3.99607 7.28465 4.10476 7.59323 4.3084C7.90181 4.51204 8.14232 4.80148 8.28434 5.14013C8.42637 5.47877 8.46353 5.8514 8.39112 6.2109C8.31872 6.57041 8.14001 6.90063 7.87758 7.15982C7.61515 7.419 7.2808 7.59551 6.91681 7.66702C6.55281 7.73853 6.17552 7.70183 5.83265 7.56156C5.48977 7.42129 5.19671 7.18375 4.99052 6.87898C4.78433 6.57421 4.67428 6.21589 4.67428 5.84935C4.67428 5.35783 4.87198 4.88644 5.22388 4.53888C5.57578 4.19132 6.05307 3.99607 6.55073 3.99607ZM14.682 10.7914C14.682 10.9553 14.6161 11.1124 14.4988 11.2283C14.3815 11.3441 14.2224 11.4092 14.0565 11.4092H12.1801V13.2625C12.1801 13.4263 12.1142 13.5834 11.9969 13.6993C11.8796 13.8151 11.7205 13.8802 11.5546 13.8802C11.3887 13.8802 11.2296 13.8151 11.1123 13.6993C10.995 13.5834 10.9291 13.4263 10.9291 13.2625V11.4092H9.05266C8.88677 11.4092 8.72768 11.3441 8.61038 11.2283C8.49308 11.1124 8.42718 10.9553 8.42718 10.7914C8.42718 10.6276 8.49308 10.4705 8.61038 10.3546C8.72768 10.2388 8.88677 10.1737 9.05266 10.1737H10.9291V8.32039C10.9291 8.15655 10.995 7.99942 11.1123 7.88357C11.2296 7.76771 11.3887 7.70263 11.5546 7.70263C11.7205 7.70263 11.8796 7.76771 11.9969 7.88357C12.1142 7.99942 12.1801 8.15655 12.1801 8.32039V10.1737H14.0565C14.2224 10.1737 14.3815 10.2388 14.4988 10.3546C14.6161 10.4705 14.682 10.6276 14.682 10.7914Z" fill="#B1B8C1"/>
</g>
<defs>
<clipPath id="clip0_196_11631">
<rect width="15.0116" height="14.8263" fill="white" transform="translate(0.295898 0.906494)"/>
</clipPath>
</defs>
</svg>
