<svg width="30" height="30" viewBox="0 0 30 30" fill="none" xmlns="http://www.w3.org/2000/svg">
<path d="M15.0001 2.50001C14.7802 2.49898 14.5641 2.55693 14.3742 2.66782C14.1844 2.77871 14.0277 2.93848 13.9205 3.1305L1.13845 25.6286C1.03002 25.8183 0.97319 26.0332 0.973635 26.2517C0.97408 26.4703 1.03178 26.6849 1.14099 26.8742C1.2502 27.0635 1.4071 27.2209 1.59607 27.3307C1.78504 27.4405 1.99948 27.4989 2.21803 27.5H27.7816C28.0002 27.499 28.2147 27.4406 28.4037 27.3308C28.5927 27.2211 28.7496 27.0637 28.8588 26.8743C28.9681 26.685 29.0257 26.4703 29.0262 26.2518C29.0266 26.0332 28.9697 25.8183 28.8612 25.6286L16.0797 3.1305C15.9726 2.93848 15.8159 2.77871 15.626 2.66782C15.4361 2.55693 15.22 2.49898 15.0001 2.50001Z" fill="url(#paint0_linear_1508_76899)"/>
<path d="M3.125 25.625L15.0006 5L26.875 25.625H3.125Z" fill="url(#paint1_linear_1508_76899)"/>
<path d="M15.0089 24.375C14.5915 24.3899 14.1848 24.2405 13.8764 23.9588C13.7342 23.8325 13.6207 23.6771 13.5437 23.5032C13.4667 23.3293 13.428 23.1408 13.4302 22.9506C13.4249 22.7589 13.4627 22.5685 13.5407 22.3933C13.6186 22.2181 13.7349 22.0625 13.8808 21.9381C14.1943 21.6702 14.5968 21.5295 15.0089 21.5438C15.4208 21.5273 15.8232 21.6701 16.1327 21.9425C16.2745 22.0686 16.3871 22.2242 16.4627 22.3983C16.5383 22.5724 16.5749 22.7609 16.5702 22.9506C16.5754 23.1419 16.5394 23.332 16.4647 23.5081C16.3899 23.6842 16.2782 23.8421 16.137 23.9713C15.828 24.2478 15.4232 24.3926 15.0089 24.375ZM16.3977 12.3256L16.097 19.935C16.0925 20.0469 16.0449 20.1527 15.9642 20.2303C15.8835 20.3078 15.7759 20.3512 15.6639 20.3513H14.302C14.1899 20.3512 14.082 20.3077 14.0013 20.2299C13.9205 20.152 13.8731 20.0459 13.8689 19.9338L13.5845 12.325C13.5823 12.2667 13.5919 12.2086 13.6127 12.1541C13.6335 12.0997 13.665 12.0499 13.7054 12.0079C13.7459 11.9659 13.7944 11.9325 13.848 11.9097C13.9017 11.8868 13.9594 11.875 14.0177 11.875H15.9652C16.0235 11.875 16.0812 11.8868 16.1349 11.9097C16.1886 11.9326 16.2371 11.9661 16.2774 12.0081C16.3178 12.0502 16.3493 12.1001 16.37 12.1546C16.3906 12.2092 16.4001 12.2673 16.3977 12.3256Z" fill="url(#paint2_radial_1508_76899)"/>
<defs>
<linearGradient id="paint0_linear_1508_76899" x1="6.58173" y1="3.12001" x2="17.1761" y2="32.2269" gradientUnits="userSpaceOnUse">
<stop stop-color="#6D6D6D"/>
<stop offset="0.126" stop-color="#626262"/>
<stop offset="0.987" stop-color="#464646"/>
<stop offset="0.998" stop-color="#454545"/>
</linearGradient>
<linearGradient id="paint1_linear_1508_76899" x1="11.4731" y1="5.62187" x2="15.3581" y2="27.6556" gradientUnits="userSpaceOnUse">
<stop stop-color="#FFDA1C"/>
<stop offset="1" stop-color="#FEB705"/>
</linearGradient>
<radialGradient id="paint2_radial_1508_76899" cx="0" cy="0" r="1" gradientUnits="userSpaceOnUse" gradientTransform="translate(11.3683 11.7381) scale(13.9769)">
<stop stop-color="#4B4B4B"/>
<stop offset="0.531" stop-color="#393939"/>
<stop offset="1" stop-color="#252525"/>
</radialGradient>
</defs>
</svg>
