<svg width="140" height="140" viewBox="0 0 140 140" fill="none" xmlns="http://www.w3.org/2000/svg">
<path d="M99.1667 17.5003V128.334H46.6667V11.667H93.3334C96.5417 11.667 99.1667 14.2628 99.1667 17.5003Z" fill="url(#paint0_linear_1446_83516)"/>
<path d="M93.3333 17.5V128.333H46.6667L43.75 17.5H93.3333Z" fill="#F1F1F1"/>
<path d="M23.3333 123.223V16.7764C23.3333 15.3035 24.4153 14.061 25.8649 13.8656L63.7816 8.77598C65.5287 8.54265 67.0832 9.91057 67.0832 11.6868V128.313C67.0832 130.089 65.5287 131.457 63.7816 131.223L25.8649 126.134C24.4153 125.938 23.3333 124.696 23.3333 123.223Z" fill="url(#paint1_linear_1446_83516)"/>
<path d="M59.7917 70.0003C59.7917 73.2087 57.1667 75.8337 53.9583 75.8337C50.75 75.8337 48.125 73.2087 48.125 70.0003C48.125 66.792 50.75 64.167 53.9583 64.167C57.1667 64.167 59.7917 66.792 59.7917 70.0003Z" fill="url(#paint2_radial_1446_83516)"/>
<path d="M58.3333 68.542C58.3333 70.9482 56.3645 72.917 53.9583 72.917C51.552 72.917 49.5833 70.9482 49.5833 68.542C49.5833 66.1357 51.552 64.167 53.9583 64.167C56.3645 64.167 58.3333 66.1357 58.3333 68.542Z" fill="url(#paint3_linear_1446_83516)"/>
<path opacity="0.05" d="M99.1667 80.9375V128.333H83.9417C80.6458 123.288 78.75 117.308 78.75 110.833C78.75 97.2417 87.2083 85.6042 99.1667 80.9375Z" fill="black"/>
<path opacity="0.07" d="M99.1666 82.542V128.334H85.7207C82.2499 123.375 80.2083 117.338 80.2083 110.834C80.2083 98.0878 88.0541 87.1212 99.1666 82.542Z" fill="black"/>
<path d="M140 110.834C140 126.939 126.939 140 110.833 140C94.7276 140 81.6667 126.939 81.6667 110.834C81.6667 94.7278 94.7276 81.667 110.833 81.667C126.939 81.667 140 94.7278 140 110.834Z" fill="url(#paint4_linear_1446_83516)"/>
<path d="M106.884 123.533L95.2176 111.866C94.6488 111.297 94.6488 110.373 95.2176 109.804L97.2797 107.742C97.8484 107.173 98.773 107.173 99.3418 107.742L107.917 116.314L123.78 100.45C124.349 99.8812 125.274 99.8812 125.843 100.45L127.905 102.512C128.473 103.081 128.473 104.005 127.905 104.574L108.946 123.533C108.378 124.101 107.456 124.101 106.884 123.533Z" fill="white"/>
<defs>
<linearGradient id="paint0_linear_1446_83516" x1="39.0222" y1="8.43824" x2="101.591" y2="126.114" gradientUnits="userSpaceOnUse">
<stop stop-color="#0D61A9"/>
<stop offset="1" stop-color="#16528C"/>
</linearGradient>
<linearGradient id="paint1_linear_1446_83516" x1="17.4503" y1="15.251" x2="77.0233" y2="127.289" gradientUnits="userSpaceOnUse">
<stop stop-color="#2AA4F4"/>
<stop offset="1" stop-color="#007AD9"/>
</linearGradient>
<radialGradient id="paint2_radial_1446_83516" cx="0" cy="0" r="1" gradientUnits="userSpaceOnUse" gradientTransform="translate(53.9583 70.0003) scale(5.83333)">
<stop/>
<stop offset="1" stop-opacity="0"/>
</radialGradient>
<linearGradient id="paint3_linear_1446_83516" x1="52.6603" y1="65.0916" x2="56.7553" y2="75.9882" gradientUnits="userSpaceOnUse">
<stop stop-color="#0077D2"/>
<stop offset="1" stop-color="#0B59A2"/>
</linearGradient>
<linearGradient id="paint4_linear_1446_83516" x1="90.2097" y1="90.2099" x2="131.457" y2="131.457" gradientUnits="userSpaceOnUse">
<stop stop-color="#21AD64"/>
<stop offset="1" stop-color="#088242"/>
</linearGradient>
</defs>
</svg>
