<svg width="16" height="16" viewBox="0 0 16 16" fill="none" xmlns="http://www.w3.org/2000/svg">
<path d="M16 0H0V16H16V0Z" fill="white" fill-opacity="0.01"/>
<path d="M1.66663 6.3335H14.3333V13.3335C14.3333 13.7017 14.0348 14.0002 13.6666 14.0002H2.33329C1.9651 14.0002 1.66663 13.7017 1.66663 13.3335V6.3335Z" stroke="#1877F2" stroke-width="1.33" stroke-linejoin="round"/>
<path d="M1.66663 3.00016C1.66663 2.63197 1.9651 2.3335 2.33329 2.3335H13.6666C14.0348 2.3335 14.3333 2.63197 14.3333 3.00016V6.3335H1.66663V3.00016Z" stroke="#1877F2" stroke-width="1.33" stroke-linejoin="round"/>
<path d="M5.33337 1.3335V4.00016" stroke="#1877F2" stroke-width="1.33" stroke-linecap="round" stroke-linejoin="round"/>
<path d="M10.6666 1.3335V4.00016" stroke="#1877F2" stroke-width="1.33" stroke-linecap="round" stroke-linejoin="round"/>
<path d="M9.33337 11.3335H11.3334" stroke="#1877F2" stroke-width="1.33" stroke-linecap="round" stroke-linejoin="round"/>
<path d="M4.66663 11.3335H6.66663" stroke="#1877F2" stroke-width="1.33" stroke-linecap="round" stroke-linejoin="round"/>
<path d="M9.33337 8.6665H11.3334" stroke="#1877F2" stroke-width="1.33" stroke-linecap="round" stroke-linejoin="round"/>
<path d="M4.66663 8.6665H6.66663" stroke="#1877F2" stroke-width="1.33" stroke-linecap="round" stroke-linejoin="round"/>
</svg>
