<svg width="48" height="48" viewBox="0 0 48 48" fill="none" xmlns="http://www.w3.org/2000/svg">
<rect width="48" height="48" rx="8" fill="#F1F3F7"/>
<path d="M24 7L10 14.8908V24.3288C10 30.4016 13.4902 35.9329 19.0196 38.6018L24 41L28.9804 38.6018C34.5098 35.9329 38 30.4016 38 24.3288V14.8908L24 7Z" fill="url(#paint0_linear_382_53965)"/>
<path d="M34.9016 16.9029V24.3682C34.9016 29.2419 32.0388 33.7675 27.6075 35.8949L23.9996 37.6355L20.3918 35.8949C15.9212 33.7288 13.0977 29.2419 13.0977 24.3682V16.9029L23.9996 10.7527L34.9016 16.9029Z" fill="black"/>
<path d="M31.7644 20.5L25.7644 20.5387L23.9213 14.8914L22.0781 20.5387L16.0781 20.5L20.9409 23.9425L19.0585 29.5512L23.882 26.07L28.6271 29.5125L28.7056 29.5512L26.9016 23.9425L31.7644 20.5Z" fill="white"/>
<path d="M20.4318 31.8718H27.4122V33.1483C26.7847 33.1483 26.2749 33.6511 26.2749 34.27H21.5298C21.5298 33.6511 21.02 33.1483 20.3926 33.1483V31.8718H20.4318Z" fill="#A0BFF8"/>
<defs>
<linearGradient id="paint0_linear_382_53965" x1="50.1113" y1="19.9109" x2="21.4724" y2="6.02977" gradientUnits="userSpaceOnUse">
<stop stop-color="#3374F6"/>
<stop offset="1" stop-color="#00D3ED"/>
</linearGradient>
</defs>
</svg>
