<svg width="30" height="30" viewBox="0 0 30 30" fill="none" xmlns="http://www.w3.org/2000/svg">
<path d="M15 27.5C21.9036 27.5 27.5 21.9036 27.5 15C27.5 8.09644 21.9036 2.5 15 2.5C8.09644 2.5 2.5 8.09644 2.5 15C2.5 21.9036 8.09644 27.5 15 27.5Z" fill="url(#paint0_linear_1446_86992)"/>
<path d="M15 26.5625C21.3858 26.5625 26.5625 21.3858 26.5625 15C26.5625 8.61421 21.3858 3.4375 15 3.4375C8.61421 3.4375 3.4375 8.61421 3.4375 15C3.4375 21.3858 8.61421 26.5625 15 26.5625Z" fill="url(#paint1_radial_1446_86992)"/>
<path d="M15 25.625C20.868 25.625 25.625 20.868 25.625 15C25.625 9.13197 20.868 4.375 15 4.375C9.13197 4.375 4.375 9.13197 4.375 15C4.375 20.868 9.13197 25.625 15 25.625Z" fill="url(#paint2_radial_1446_86992)"/>
<path d="M15.625 6.25C15.625 6.595 15.345 6.875 15 6.875C14.655 6.875 14.375 6.595 14.375 6.25C14.375 5.905 14.655 5.625 15 5.625C15.345 5.625 15.625 5.905 15.625 6.25ZM15 23.125C14.655 23.125 14.375 23.405 14.375 23.75C14.375 24.095 14.655 24.375 15 24.375C15.345 24.375 15.625 24.095 15.625 23.75C15.625 23.405 15.345 23.125 15 23.125ZM23.75 14.375C23.405 14.375 23.125 14.655 23.125 15C23.125 15.345 23.405 15.625 23.75 15.625C24.095 15.625 24.375 15.345 24.375 15C24.375 14.655 24.095 14.375 23.75 14.375ZM6.25 14.375C5.905 14.375 5.625 14.655 5.625 15C5.625 15.345 5.905 15.625 6.25 15.625C6.595 15.625 6.875 15.345 6.875 15C6.875 14.655 6.595 14.375 6.25 14.375Z" fill="url(#paint3_linear_1446_86992)"/>
<path d="M15 21.7188C14.7412 21.7188 14.5312 21.5087 14.5312 21.25V15C14.5312 14.7412 14.7412 14.5312 15 14.5312C15.2588 14.5312 15.4688 14.7412 15.4688 15V21.25C15.4688 21.5087 15.2588 21.7188 15 21.7188Z" fill="#D83B01"/>
<path d="M14.9998 15.4686C14.8798 15.4686 14.7598 15.423 14.6686 15.3311C14.4855 15.148 14.4855 14.8511 14.6686 14.668L19.9717 9.36488C20.1548 9.18176 20.4517 9.18176 20.6348 9.36488C20.818 9.54801 20.818 9.84488 20.6348 10.028L15.3311 15.3311C15.2398 15.423 15.1198 15.4686 14.9998 15.4686Z" fill="#45494D"/>
<path d="M14.9994 15.7815C14.8863 15.7815 14.7713 15.7571 14.6619 15.7046L9.79506 13.3702C9.40569 13.1834 9.24194 12.7171 9.42881 12.3277C9.61506 11.939 10.0819 11.7734 10.4707 11.9615L15.3376 14.2959C15.7269 14.4827 15.8907 14.949 15.7038 15.3384C15.5701 15.6177 15.2907 15.7815 14.9994 15.7815Z" fill="#45494D"/>
<path d="M15 16.25C15.6904 16.25 16.25 15.6904 16.25 15C16.25 14.3096 15.6904 13.75 15 13.75C14.3096 13.75 13.75 14.3096 13.75 15C13.75 15.6904 14.3096 16.25 15 16.25Z" fill="#1E2021"/>
<defs>
<linearGradient id="paint0_linear_1446_86992" x1="6.16125" y1="6.16125" x2="23.8387" y2="23.8387" gradientUnits="userSpaceOnUse">
<stop stop-color="#889097"/>
<stop offset="1" stop-color="#64717C"/>
</linearGradient>
<radialGradient id="paint1_radial_1446_86992" cx="0" cy="0" r="1" gradientUnits="userSpaceOnUse" gradientTransform="translate(15 15) scale(11.5625)">
<stop/>
<stop offset="1" stop-opacity="0"/>
</radialGradient>
<radialGradient id="paint2_radial_1446_86992" cx="0" cy="0" r="1" gradientUnits="userSpaceOnUse" gradientTransform="translate(14.9313 4.62125) scale(23.6769)">
<stop stop-color="#FAFAFB"/>
<stop offset="1" stop-color="#C8CDD1"/>
</radialGradient>
<linearGradient id="paint3_linear_1446_86992" x1="14.0494" y1="5.85062" x2="16.0744" y2="25.3425" gradientUnits="userSpaceOnUse">
<stop stop-color="#C8CDD1"/>
<stop offset="1" stop-color="#A6AAAD"/>
</linearGradient>
</defs>
</svg>
