<svg width="36" height="36" viewBox="0 0 36 36" fill="none" xmlns="http://www.w3.org/2000/svg">
<path opacity="0.32" d="M24.2956 3H11.7193C6.25662 3 3 6.255 3 11.715V24.27C3 29.745 6.25662 33 11.7193 33H24.2806C29.7433 33 32.9999 29.745 32.9999 24.285V11.715C33.015 6.255 29.7583 3 24.2956 3Z" fill="white"/>
<path d="M19.7778 17.9979L23.6352 14.1418C24.1216 13.6556 24.1216 12.8509 23.6352 12.3647C23.1488 11.8784 22.3438 11.8784 21.8574 12.3647L18 16.2207L14.1426 12.3647C13.6562 11.8784 12.8512 11.8784 12.3648 12.3647C11.8784 12.8509 11.8784 13.6556 12.3648 14.1418L16.2222 17.9979L12.3648 21.854C11.8784 22.3402 11.8784 23.145 12.3648 23.6312C12.6164 23.8826 12.935 24 13.2537 24C13.5723 24 13.891 23.8826 14.1426 23.6312L18 19.7751L21.8574 23.6312C22.109 23.8826 22.4277 24 22.7463 24C23.065 24 23.3836 23.8826 23.6352 23.6312C24.1216 23.145 24.1216 22.3402 23.6352 21.854L19.7778 17.9979Z" fill="#646E82"/>
</svg>
