<svg width="18" height="18" viewBox="0 0 18 18" fill="none" xmlns="http://www.w3.org/2000/svg">
<path d="M15.75 5.25H2.25V3C2.25 2.58562 2.58562 2.25 3 2.25H15C15.4144 2.25 15.75 2.58562 15.75 3V5.25Z" fill="url(#paint0_linear_1446_83605)"/>
<path d="M2.25 5.25V15C2.25 15.4144 2.58562 15.75 3 15.75H15C15.4144 15.75 15.75 15.4144 15.75 15V5.25H2.25Z" fill="url(#paint1_linear_1446_83605)"/>
<path d="M7.875 8.625H7.125C6.918 8.625 6.75 8.457 6.75 8.25V7.5C6.75 7.293 6.918 7.125 7.125 7.125H7.875C8.082 7.125 8.25 7.293 8.25 7.5V8.25C8.25 8.457 8.082 8.625 7.875 8.625Z" fill="white"/>
<path d="M10.875 8.625H10.125C9.918 8.625 9.75 8.457 9.75 8.25V7.5C9.75 7.293 9.918 7.125 10.125 7.125H10.875C11.082 7.125 11.25 7.293 11.25 7.5V8.25C11.25 8.457 11.082 8.625 10.875 8.625Z" fill="white"/>
<path d="M13.875 8.625H13.125C12.918 8.625 12.75 8.457 12.75 8.25V7.5C12.75 7.293 12.918 7.125 13.125 7.125H13.875C14.082 7.125 14.25 7.293 14.25 7.5V8.25C14.25 8.457 14.082 8.625 13.875 8.625Z" fill="white"/>
<path d="M7.875 11.25H7.125C6.918 11.25 6.75 11.082 6.75 10.875V10.125C6.75 9.918 6.918 9.75 7.125 9.75H7.875C8.082 9.75 8.25 9.918 8.25 10.125V10.875C8.25 11.082 8.082 11.25 7.875 11.25Z" fill="white"/>
<path d="M4.875 11.25H4.125C3.918 11.25 3.75 11.082 3.75 10.875V10.125C3.75 9.918 3.918 9.75 4.125 9.75H4.875C5.082 9.75 5.25 9.918 5.25 10.125V10.875C5.25 11.082 5.082 11.25 4.875 11.25Z" fill="white"/>
<path d="M10.875 11.25H10.125C9.918 11.25 9.75 11.082 9.75 10.875V10.125C9.75 9.918 9.918 9.75 10.125 9.75H10.875C11.082 9.75 11.25 9.918 11.25 10.125V10.875C11.25 11.082 11.082 11.25 10.875 11.25Z" fill="white"/>
<path d="M7.875 13.875H7.125C6.918 13.875 6.75 13.707 6.75 13.5V12.75C6.75 12.543 6.918 12.375 7.125 12.375H7.875C8.082 12.375 8.25 12.543 8.25 12.75V13.5C8.25 13.707 8.082 13.875 7.875 13.875Z" fill="white"/>
<path d="M4.875 13.875H4.125C3.918 13.875 3.75 13.707 3.75 13.5V12.75C3.75 12.543 3.918 12.375 4.125 12.375H4.875C5.082 12.375 5.25 12.543 5.25 12.75V13.5C5.25 13.707 5.082 13.875 4.875 13.875Z" fill="white"/>
<path d="M10.875 13.875H10.125C9.918 13.875 9.75 13.707 9.75 13.5V12.75C9.75 12.543 9.918 12.375 10.125 12.375H10.875C11.082 12.375 11.25 12.543 11.25 12.75V13.5C11.25 13.707 11.082 13.875 10.875 13.875Z" fill="white"/>
<path d="M13.875 11.25H13.125C12.918 11.25 12.75 11.082 12.75 10.875V10.125C12.75 9.918 12.918 9.75 13.125 9.75H13.875C14.082 9.75 14.25 9.918 14.25 10.125V10.875C14.25 11.082 14.082 11.25 13.875 11.25Z" fill="white"/>
<path opacity="0.05" d="M5.25 2.25V3.5625C5.25 3.666 5.16562 3.75 5.0625 3.75C4.95938 3.75 4.875 3.666 4.875 3.5625V2.25H4.125V3.5625C4.125 4.07925 4.54538 4.5 5.0625 4.5C5.57963 4.5 6 4.07925 6 3.5625V2.25H5.25Z" fill="black"/>
<path opacity="0.07" d="M5.4375 2.25V3.5625C5.4375 3.76912 5.2695 3.9375 5.0625 3.9375C4.8555 3.9375 4.6875 3.76912 4.6875 3.5625V2.25H4.3125V3.5625C4.3125 3.97613 4.64887 4.3125 5.0625 4.3125C5.47613 4.3125 5.8125 3.97613 5.8125 3.5625V2.25H5.4375Z" fill="black"/>
<path opacity="0.05" d="M13.125 2.25V3.5625C13.125 3.666 13.0406 3.75 12.9375 3.75C12.8344 3.75 12.75 3.666 12.75 3.5625V2.25H12V3.5625C12 4.07925 12.4204 4.5 12.9375 4.5C13.4546 4.5 13.875 4.07925 13.875 3.5625V2.25H13.125Z" fill="black"/>
<path opacity="0.07" d="M13.3125 2.25V3.5625C13.3125 3.76912 13.1445 3.9375 12.9375 3.9375C12.7305 3.9375 12.5625 3.76912 12.5625 3.5625V2.25H12.1875V3.5625C12.1875 3.97613 12.5239 4.3125 12.9375 4.3125C13.3511 4.3125 13.6875 3.97613 13.6875 3.5625V2.25H13.3125Z" fill="black"/>
<path d="M12.9375 4.125C12.627 4.125 12.375 3.873 12.375 3.5625V1.6875C12.375 1.377 12.627 1.125 12.9375 1.125C13.248 1.125 13.5 1.377 13.5 1.6875V3.5625C13.5 3.873 13.248 4.125 12.9375 4.125Z" fill="#54DAFF"/>
<path d="M5.0625 4.125C4.752 4.125 4.5 3.873 4.5 3.5625V1.6875C4.5 1.377 4.752 1.125 5.0625 1.125C5.373 1.125 5.625 1.377 5.625 1.6875V3.5625C5.625 3.873 5.373 4.125 5.0625 4.125Z" fill="#54DAFF"/>
<defs>
<linearGradient id="paint0_linear_1446_83605" x1="8.6325" y1="1.63575" x2="9.39863" y2="6.7665" gradientUnits="userSpaceOnUse">
<stop offset="0.042" stop-color="#076DB4"/>
<stop offset="0.85" stop-color="#0461AF"/>
</linearGradient>
<linearGradient id="paint1_linear_1446_83605" x1="8.11313" y1="2.40637" x2="10.3376" y2="21.8224" gradientUnits="userSpaceOnUse">
<stop stop-color="#33BEF0"/>
<stop offset="1" stop-color="#0A85D9"/>
</linearGradient>
</defs>
</svg>
