<svg width="110" height="107" viewBox="0 0 110 107" fill="none" xmlns="http://www.w3.org/2000/svg">
<path d="M79.781 40V14.8C79.781 10.3196 79.781 8.07937 78.9091 6.36808C78.1421 4.86278 76.9182 3.63893 75.4129 2.87195C73.7016 2 71.4614 2 66.981 2H15.581C11.1006 2 8.86038 2 7.14908 2.87195C5.64379 3.63893 4.41994 4.86278 3.65295 6.36808C2.78101 8.07937 2.78101 10.3196 2.78101 14.8V79.2C2.78101 83.6804 2.78101 85.9206 3.65295 87.6319C4.41994 89.1372 5.64379 90.3611 7.14908 91.1281C8.86038 92 11.1006 92 15.581 92H41.281" stroke="#CBD1D3" stroke-width="4" stroke-linecap="round"/>
<path d="M74.9861 59.2816C74.3478 58.6317 73.577 58.1269 72.7261 57.8016C71.5778 57.3648 70.354 57.1608 69.1261 57.2016C67.9255 57.1964 66.7292 57.3442 65.5661 57.6416C64.4939 57.9313 63.4599 58.3476 62.4861 58.8816L63.7261 62.2216C64.4953 61.7944 65.315 61.4652 66.1661 61.2416C66.959 61.01 67.7801 60.8888 68.6061 60.8816C69.4965 60.8104 70.3794 61.0904 71.0661 61.6616C71.6213 62.1746 71.9214 62.9066 71.8861 63.6616C71.899 64.2149 71.7607 64.7612 71.4861 65.2416C71.2098 65.7576 70.8668 66.235 70.4661 66.6616C70.0461 67.1216 69.6061 67.5616 69.1461 68.0216C68.6685 68.486 68.2209 68.9804 67.8061 69.5016C67.3866 70.024 67.0432 70.6031 66.7861 71.2216C66.5135 71.9018 66.3776 72.629 66.3861 73.3616C66.3666 73.6146 66.3666 73.8687 66.3861 74.1216C66.3861 74.4016 66.3861 74.6616 66.4861 74.9016H70.2861C70.2762 74.7551 70.2762 74.6081 70.2861 74.4616V74.0416C70.2629 73.3463 70.4214 72.657 70.7461 72.0416C71.0561 71.4495 71.4391 70.8985 71.8861 70.4016C72.3461 69.8816 72.8461 69.3816 73.3861 68.8816C73.9164 68.3917 74.4173 67.8708 74.8861 67.3216C75.3397 66.7716 75.7227 66.1669 76.0261 65.5216C76.3373 64.8304 76.4943 64.0797 76.4861 63.3216C76.4659 62.644 76.3583 61.9718 76.1661 61.3216C75.9381 60.5585 75.5339 59.8597 74.9861 59.2816Z" fill="#CBD1D3"/>
<path d="M68.5262 77.4815C67.7816 77.4815 67.0654 77.7679 66.5262 78.2815C65.9869 78.8069 65.6838 79.5286 65.6862 80.2815C65.6693 81.0372 65.9747 81.7645 66.5262 82.2815C67.0654 82.795 67.7816 83.0815 68.5262 83.0815C69.2717 83.0857 69.9893 82.7986 70.5262 82.2815C71.0777 81.7645 71.3831 81.0372 71.3662 80.2815C71.3686 79.5286 71.0655 78.8069 70.5262 78.2815C69.9893 77.7644 69.2717 77.4773 68.5262 77.4815Z" fill="#CBD1D3"/>
<path fill-rule="evenodd" clip-rule="evenodd" d="M94.2861 84.8816L107.506 96.6016C108.583 97.6434 109.2 99.0723 109.218 100.571C109.237 102.069 108.657 103.513 107.606 104.582L107.006 105.182C105.95 106.252 104.509 106.854 103.006 106.854C101.503 106.854 100.062 106.252 99.0061 105.182L85.9661 93.6216L84.8461 92.6216L82.6661 90.6216C81.2481 91.5405 79.732 92.2985 78.1461 92.8816C75.3824 93.9134 72.4561 94.4417 69.5061 94.4416C63.8201 94.4453 58.308 92.4808 53.9061 88.8816C51.5174 86.9394 49.5159 84.5646 48.0061 81.8816C47.2685 80.609 46.6525 79.2698 46.1661 77.8816C43.1493 69.2627 45.1424 59.6823 51.3461 52.9816C52.2424 51.9884 53.2263 51.0781 54.2861 50.2616C63.1617 43.3073 75.6185 43.2403 84.5685 50.0987C93.5184 56.9572 96.6931 69.0029 92.2861 79.3816C91.923 80.291 91.4953 81.1733 91.0061 82.0216L92.2861 83.1616L94.2861 84.8816ZM52.7261 81.8816C54.9976 84.9923 58.0845 87.4148 61.6461 88.8816C66.6797 90.9617 72.3325 90.9617 77.3661 88.8816C85.1678 85.6938 90.2714 78.1094 90.2861 69.6816C90.2888 66.6353 89.6052 63.6275 88.2861 60.8816C86.4781 57.0688 83.5469 53.9004 79.8861 51.8016C78.5125 50.9599 77.0417 50.2883 75.5061 49.8016C73.5639 49.1942 71.541 48.884 69.5061 48.8816C64.8086 48.8867 60.2551 50.5034 56.6061 53.4616C55.5506 54.2839 54.5852 55.2158 53.7261 56.2416C48.5946 62.2398 47.3294 70.6378 50.4661 77.8816C51.0647 79.2966 51.8229 80.6386 52.7261 81.8816ZM91.0661 92.7215L89.0661 91.0015L88.5861 90.5815L85.8661 88.1615C86.8661 87.2815 87.7895 86.318 88.6261 85.2815L91.0861 87.4815L91.8061 88.1215L93.6661 89.7615L91.0661 92.7215ZM104.066 102.262L104.666 101.662C104.974 101.379 105.155 100.986 105.17 100.568C105.185 100.151 105.033 99.7453 104.746 99.4416L96.7461 92.4216L94.0661 95.3616L101.846 102.262C102.139 102.558 102.539 102.726 102.956 102.726C103.373 102.726 103.773 102.558 104.066 102.262Z" fill="#CBD1D3"/>
<circle cx="22.781" cy="20" r="8" fill="#CBD1D3"/>
<rect x="34.781" y="12" width="15" height="4" rx="2" fill="#CBD1D3"/>
<rect x="14.781" y="41" width="15" height="4" rx="2" fill="#CBD1D3"/>
<rect x="14.781" y="73" width="27" height="11" rx="2" fill="#CBD1D3"/>
<rect x="14.781" y="57" width="8" height="8" rx="4" fill="#CBD1D3"/>
<rect x="19" y="57" width="8" height="8" rx="4" fill="#CBD1D3"/>
<rect x="23" y="57" width="8" height="8" rx="4" fill="#CBD1D3"/>
<rect x="28" y="57" width="8" height="8" rx="4" fill="#CBD1D3"/>
<rect x="32.781" y="41" width="15" height="4" rx="2" fill="#CBD1D3"/>
<rect x="35" y="21" width="27" height="3" rx="1.5" fill="#CBD1D3"/>
</svg>
