<svg width="190" height="114" viewBox="0 0 190 114" fill="none" xmlns="http://www.w3.org/2000/svg">
<g filter="url(#filter0_d_1875_81840)">
<path d="M5.2866 29.3934C4.83625 24.9356 4.61107 22.7068 5.30659 20.9165C5.91839 19.3417 7.01302 18.0011 8.4336 17.0867C10.0486 16.0471 12.2774 15.822 16.7352 15.3716L156.153 1.28668C160.61 0.836328 162.839 0.611153 164.629 1.30667C166.204 1.91847 167.545 3.0131 168.459 4.43368C169.499 6.04866 169.724 8.27753 170.174 12.7353L172.675 37.4906C173.126 41.9484 173.351 44.1772 172.655 45.9675C172.044 47.5423 170.949 48.8829 169.528 49.7973C167.913 50.8369 165.684 51.0621 161.227 51.5124L21.8093 65.5973C17.3516 66.0477 15.1227 66.2729 13.3325 65.5773C11.7577 64.9655 10.417 63.8709 9.50263 62.4503C8.46309 60.8353 8.23791 58.6065 7.78756 54.1488L5.2866 29.3934Z" fill="#4FAE33"/>
<path d="M47.3646 44.6819L40.1241 45.4134L38.8325 32.6289L46.073 31.8974L46.2515 33.6638L41.1097 34.1833L41.4604 37.6548L46.2786 37.1681L46.4562 38.9257L41.638 39.4125L42.0435 43.4262L47.1853 42.9068L47.3646 44.6819ZM53.9671 34.0504C55.0573 33.9402 55.934 34.1373 56.5975 34.6415C57.2661 35.1393 57.6632 36.0091 57.7886 37.2508L58.4265 43.5644L56.3715 43.772L55.7725 37.8432C55.6965 37.0912 55.4852 36.5442 55.1386 36.2023C54.7913 35.8546 54.2941 35.7134 53.647 35.7788C52.7084 35.8736 52.0847 36.2281 51.7757 36.8424C51.4726 37.456 51.3764 38.3109 51.4871 39.4069L51.973 44.2164L49.918 44.424L48.94 34.7437L50.5403 34.5821L50.9614 35.8646L51.0751 35.8531C51.2508 35.4938 51.4822 35.1907 51.7694 34.9438C52.0618 34.6904 52.3948 34.4889 52.7684 34.3393C53.1478 34.1891 53.5474 34.0928 53.9671 34.0504ZM64.756 41.4232C65.0242 41.3961 65.287 41.346 65.5447 41.2728C65.8017 41.1939 66.0345 41.1085 66.2432 41.0168L66.4004 42.5733C66.1831 42.6954 65.8972 42.8096 65.5428 42.9161C65.1885 43.0226 64.816 43.0955 64.4254 43.135C63.8774 43.1904 63.3757 43.1498 62.9202 43.0132C62.4641 42.8708 62.0851 42.5882 61.7833 42.1652C61.4814 41.7422 61.2905 41.1343 61.2104 40.3415L60.6847 35.1385L59.3643 35.2719L59.2715 34.3537L60.6148 33.4848L61.0788 31.3443L62.373 31.2135L62.5903 33.3647L65.3623 33.0847L65.5204 34.6499L62.7484 34.93L63.2714 40.1068C63.3209 40.5964 63.4801 40.9484 63.7491 41.1627C64.0181 41.377 64.3537 41.4638 64.756 41.4232ZM71.2463 32.3047C72.1091 32.2175 72.8675 32.3205 73.5213 32.6137C74.1752 32.9069 74.7013 33.3632 75.0995 33.9825C75.4978 34.6019 75.7429 35.3663 75.8347 36.2757L75.946 37.3775L69.4838 38.0304C69.602 38.9666 69.9257 39.6642 70.4549 40.1231C70.9901 40.5814 71.6919 40.7666 72.5605 40.6789C73.1785 40.6164 73.7264 40.5022 74.2043 40.3361C74.6875 40.1636 75.1796 39.9343 75.6807 39.6481L75.8495 41.3183C75.3886 41.5946 74.9128 41.8105 74.422 41.9661C73.9313 42.1216 73.3361 42.2348 72.6365 42.3055C71.6863 42.4015 70.8312 42.3023 70.0712 42.0081C69.3164 41.7074 68.6979 41.2104 68.2156 40.5171C67.7392 39.8232 67.4459 38.9312 67.3357 37.841C67.2262 36.7567 67.3168 35.8171 67.6075 35.0221C67.8982 34.2271 68.3558 33.5979 68.9804 33.1343C69.6049 32.6708 70.3602 32.3942 71.2463 32.3047ZM71.4027 33.8525C70.7556 33.9179 70.2521 34.1807 69.8923 34.6411C69.5383 35.1009 69.3672 35.7395 69.3791 36.5569L73.7864 36.1116C73.7317 35.6284 73.6068 35.2081 73.4117 34.8509C73.2224 34.4931 72.9598 34.2252 72.6238 34.0471C72.2936 33.8685 71.8866 33.8036 71.4027 33.8525ZM82.6142 31.1562C82.7775 31.1397 82.9562 31.1305 83.1503 31.1286C83.3445 31.1266 83.513 31.1332 83.6558 31.1482L83.6578 33.0914C83.5318 33.0688 83.3776 33.0579 83.1951 33.0587C83.0185 33.0588 82.8602 33.066 82.7203 33.0801C82.353 33.1172 82.0094 33.2138 81.6895 33.3698C81.369 33.5199 81.0928 33.7304 80.8611 34.0012C80.6287 34.2661 80.4579 34.5866 80.3487 34.9628C80.2394 35.339 80.209 35.7661 80.2573 36.2441L80.7688 41.3072L78.7051 41.5157L77.7271 31.8355L79.3361 31.6729L79.7882 33.3498L79.8844 33.3401C80.042 32.9767 80.2492 32.6378 80.506 32.3233C80.7628 32.0088 81.0663 31.7484 81.4165 31.5422C81.7719 31.3297 82.1712 31.201 82.6142 31.1562ZM93.5996 27.0959C94.7015 26.9846 95.6244 27.0268 96.3686 27.2225C97.1186 27.4177 97.6961 27.7716 98.1013 28.2842C98.5122 28.7963 98.7604 29.475 98.8458 30.3203C98.9094 30.9499 98.847 31.498 98.6586 31.9646C98.4702 32.4312 98.2012 32.8294 97.8517 33.1592C97.5022 33.489 97.1206 33.7631 96.7069 33.9815L100.907 39.2726L98.5377 39.5121L94.9332 34.6996L92.8782 34.9072L93.3959 40.0315L91.2972 40.2435L90.0056 27.459L93.5996 27.0959ZM93.6364 28.859L92.281 28.9959L92.7033 33.1758L94.1549 33.0291C95.1285 32.9308 95.8156 32.6788 96.2163 32.2732C96.6228 31.867 96.7905 31.3112 96.7192 30.6058C96.6444 29.8654 96.3553 29.3646 95.8519 29.1033C95.3543 28.8415 94.6158 28.76 93.6364 28.859ZM110.604 33.3815C110.685 34.186 110.652 34.9107 110.505 35.5557C110.358 36.2007 110.106 36.7592 109.747 37.2312C109.388 37.6974 108.937 38.0728 108.394 38.3573C107.851 38.6359 107.224 38.8112 106.513 38.883C105.848 38.9502 105.228 38.9009 104.652 38.7354C104.075 38.564 103.561 38.2861 103.11 37.9017C102.664 37.511 102.299 37.0149 102.014 36.4135C101.73 35.8121 101.547 35.1092 101.466 34.3047C101.358 33.2378 101.45 32.3157 101.743 31.5382C102.04 30.7543 102.513 30.1323 103.162 29.6722C103.81 29.2121 104.61 28.9341 105.56 28.8381C106.452 28.748 107.259 28.8638 107.98 29.1855C108.702 29.5071 109.293 30.0216 109.753 30.729C110.213 31.4363 110.497 32.3205 110.604 33.3815ZM103.582 34.0909C103.653 34.7963 103.799 35.3911 104.018 35.8754C104.244 36.3591 104.551 36.7167 104.939 36.9484C105.327 37.1742 105.807 37.2583 106.378 37.2005C106.95 37.1428 107.403 36.9645 107.738 36.6657C108.072 36.361 108.298 35.9494 108.417 35.431C108.535 34.9126 108.559 34.3007 108.488 33.5953C108.416 32.8899 108.271 32.3009 108.053 31.8283C107.834 31.3498 107.53 31.0006 107.143 30.7806C106.755 30.5548 106.273 30.471 105.695 30.5293C104.844 30.6153 104.252 30.9637 103.919 31.5745C103.587 32.1852 103.474 33.024 103.582 34.0909ZM121.534 32.2772C121.616 33.0817 121.583 33.8064 121.436 34.4514C121.289 35.0964 121.036 35.6549 120.678 36.1269C120.318 36.5931 119.868 36.9685 119.325 37.253C118.782 37.5316 118.155 37.7069 117.444 37.7787C116.779 37.8459 116.159 37.7967 115.582 37.6311C115.006 37.4597 114.492 37.1818 114.041 36.7975C113.595 36.4067 113.23 35.9106 112.945 35.3092C112.661 34.7078 112.478 34.0049 112.396 33.2004C112.289 32.1335 112.381 31.2114 112.673 30.4339C112.971 29.65 113.444 29.028 114.093 28.5679C114.741 28.1078 115.54 27.8298 116.491 27.7338C117.383 27.6437 118.189 27.7595 118.911 28.0812C119.632 28.4028 120.223 28.9173 120.683 29.6247C121.144 30.332 121.427 31.2162 121.534 32.2772ZM114.513 32.9866C114.584 33.692 114.729 34.2868 114.949 34.7711C115.175 35.2548 115.482 35.6124 115.87 35.8441C116.258 36.0699 116.738 36.154 117.309 36.0962C117.88 36.0385 118.333 35.8602 118.668 35.5614C119.003 35.2567 119.229 34.8451 119.347 34.3267C119.466 33.8083 119.489 33.1964 119.418 32.491C119.347 31.7856 119.202 31.1966 118.984 30.724C118.764 30.2455 118.461 29.8963 118.074 29.6763C117.686 29.4505 117.203 29.3667 116.626 29.425C115.775 29.511 115.183 29.8594 114.85 30.4702C114.517 31.0809 114.405 31.9197 114.513 32.9866ZM134.33 25.9316C135.414 25.822 136.258 26.0194 136.863 26.5237C137.473 27.0274 137.841 27.8972 137.966 29.1331L138.605 35.4642L136.55 35.6718L135.948 29.708C135.874 28.9734 135.675 28.434 135.351 28.0898C135.028 27.7456 134.575 27.6029 133.992 27.6618C133.176 27.7442 132.613 28.0661 132.305 28.6272C132.002 29.182 131.9 29.9549 132 30.946L132.519 36.079L130.464 36.2866L129.862 30.3229C129.812 29.8332 129.707 29.4316 129.545 29.118C129.39 28.7981 129.175 28.5695 128.902 28.4322C128.628 28.289 128.296 28.2372 127.906 28.2767C127.34 28.3338 126.901 28.5077 126.589 28.7983C126.283 29.0884 126.082 29.4915 125.987 30.0076C125.891 30.5178 125.88 31.1344 125.953 31.8573L126.442 36.693L124.387 36.9006L123.409 27.2204L125.009 27.0587L125.429 28.3325L125.543 28.321C125.707 27.9629 125.924 27.6612 126.193 27.4161C126.468 27.1645 126.781 26.968 127.132 26.8266C127.482 26.6793 127.853 26.5859 128.243 26.5465C128.966 26.4734 129.588 26.5401 130.11 26.7466C130.631 26.9472 131.04 27.2946 131.337 27.7887L131.494 27.7728C131.745 27.2175 132.128 26.7871 132.645 26.4816C133.162 26.1762 133.723 25.9928 134.33 25.9316Z" fill="white"/>
<path d="M125.414 80.2508C125.415 80.2402 125.42 80.2327 125.421 80.2222L125.418 80.2207L125.414 80.2508Z" fill="url(#paint0_linear_1875_81840)"/>
<path d="M167.259 64.3968L147.79 61.4898V42.6031C147.79 40.6039 146.351 38.7835 144.363 38.5833C142.075 38.354 140.147 40.1438 140.147 42.3845C140.147 42.7467 140.147 95.0662 140.147 95.0662C142.38 97.0531 145.263 98.172 148.27 98.172H164.602C169.667 98.172 173.773 94.0666 173.773 89.0014V71.9549C173.773 68.1705 171.003 64.9563 167.259 64.3968Z" fill="url(#paint1_linear_1875_81840)"/>
<path d="M147.79 61.4902V70.6608L151.779 62.0863L147.79 61.4902Z" fill="url(#paint2_linear_1875_81840)"/>
<path d="M143.968 44.678C145.235 44.678 146.261 43.6516 146.261 42.3854C146.261 41.1192 145.235 40.0928 143.968 40.0928C142.702 40.0928 141.676 41.1192 141.676 42.3854C141.676 43.6516 142.702 44.678 143.968 44.678Z" fill="#FFF0C9"/>
<path d="M124.898 69.1328C122.269 69.1328 121.08 70.7652 121.08 72.9416L139.551 94.5367C139.741 94.7263 139.947 94.8975 140.146 95.0747V72.5993C136.672 78.5296 134.125 73.2213 131.479 73.8373C131.481 73.8373 130.381 69.1328 124.898 69.1328Z" fill="url(#paint3_linear_1875_81840)"/>
</g>
<defs>
<filter id="filter0_d_1875_81840" x="0" y="0" width="190" height="113.814" filterUnits="userSpaceOnUse" color-interpolation-filters="sRGB">
<feFlood flood-opacity="0" result="BackgroundImageFix"/>
<feColorMatrix in="SourceAlpha" type="matrix" values="0 0 0 0 0 0 0 0 0 0 0 0 0 0 0 0 0 0 127 0" result="hardAlpha"/>
<feOffset dy="4"/>
<feGaussianBlur stdDeviation="2"/>
<feComposite in2="hardAlpha" operator="out"/>
<feColorMatrix type="matrix" values="0 0 0 0 0 0 0 0 0 0 0 0 0 0 0 0 0 0 0.25 0"/>
<feBlend mode="normal" in2="BackgroundImageFix" result="effect1_dropShadow_1875_81840"/>
<feBlend mode="normal" in="SourceGraphic" in2="effect1_dropShadow_1875_81840" result="shape"/>
</filter>
<linearGradient id="paint0_linear_1875_81840" x1="125.458" y1="80.2369" x2="125.461" y2="80.2374" gradientUnits="userSpaceOnUse">
<stop stop-color="#FFC430"/>
<stop offset="0.57" stop-color="#F8BD29"/>
<stop offset="1" stop-color="#F0B421"/>
</linearGradient>
<linearGradient id="paint1_linear_1875_81840" x1="142.411" y1="66.3685" x2="181.378" y2="106.837" gradientUnits="userSpaceOnUse">
<stop stop-color="#FFC430"/>
<stop offset="0.41" stop-color="#FEC130"/>
<stop offset="0.72" stop-color="#FCB730"/>
<stop offset="0.998" stop-color="#F7A72F"/>
<stop offset="1" stop-color="#F7A72F"/>
</linearGradient>
<linearGradient id="paint2_linear_1875_81840" x1="149.183" y1="66.0465" x2="146.51" y2="64.5914" gradientUnits="userSpaceOnUse">
<stop offset="0.282" stop-color="#FFC430"/>
<stop offset="0.401" stop-color="#F8BD2D"/>
<stop offset="0.574" stop-color="#E5AA23"/>
<stop offset="0.78" stop-color="#C58A14"/>
<stop offset="1" stop-color="#9C6000"/>
</linearGradient>
<linearGradient id="paint3_linear_1875_81840" x1="130.044" y1="83.6635" x2="142.955" y2="70.9318" gradientUnits="userSpaceOnUse">
<stop offset="0.282" stop-color="#FFC430"/>
<stop offset="0.401" stop-color="#F8BD2D"/>
<stop offset="0.574" stop-color="#E5AA23"/>
<stop offset="0.78" stop-color="#C58A14"/>
<stop offset="1" stop-color="#9C6000"/>
</linearGradient>
</defs>
</svg>
