<svg width="22" height="22" viewBox="0 0 22 22" fill="none" xmlns="http://www.w3.org/2000/svg">
<g clip-path="url(#clip0)">
<path d="M16.791 5.20993H5.21094V16.79H16.791V5.20993Z" fill="white"/>
<path d="M16.791 22.0001L22.001 16.7901H16.791V22.0001Z" fill="#F72A25"/>
<path d="M22.001 5.20993H16.791V16.79H22.001V5.20993Z" fill="#FBBC04"/>
<path d="M16.791 16.7901H5.21094V22.0001H16.791V16.7901Z" fill="#34A853"/>
<path d="M0 16.7901V20.2634C0 21.223 0.777018 22.0001 1.73665 22.0001H5.20996V16.7901H0Z" fill="#188038"/>
<path d="M22.001 5.20996V1.73665C22.001 0.777018 21.224 0 20.2643 0H16.791V5.20996H22.001Z" fill="#1967D2"/>
<path d="M16.79 0H1.73665C0.777018 0 0 0.777018 0 1.73665V16.79H5.20996V5.20996H16.7882V0H16.79Z" fill="#4285F4"/>
<path d="M7.58464 14.1923C7.15137 13.9004 6.85238 13.4725 6.68945 12.9086L7.69385 12.495C7.78516 12.8423 7.9445 13.1109 8.17188 13.3024C8.39746 13.494 8.67318 13.5871 8.99365 13.5871C9.32308 13.5871 9.60417 13.4868 9.84049 13.2881C10.0768 13.0876 10.195 12.8334 10.195 12.5254C10.195 12.2103 10.0697 11.9525 9.8208 11.752C9.57194 11.5515 9.25863 11.453 8.88623 11.453H8.30615V10.4593H8.82715C9.14762 10.4593 9.41976 10.3734 9.63997 10.1979C9.86019 10.0243 9.9694 9.78616 9.9694 9.48359C9.9694 9.21504 9.87093 9.00019 9.67399 8.83906C9.47705 8.67793 9.22819 8.59736 8.92562 8.59736C8.63021 8.59736 8.39567 8.67614 8.22201 8.83369C8.04834 8.99124 7.91764 9.19176 7.84245 9.41377L6.8488 9.00019C6.98128 8.62601 7.22298 8.29658 7.57747 8.01191C7.93197 7.72724 8.38493 7.58401 8.93457 7.58401C9.34098 7.58401 9.70801 7.66279 10.0321 7.82034C10.3561 7.9779 10.6104 8.19632 10.7948 8.47383C10.9792 8.75312 11.0705 9.06644 11.0705 9.41377C11.0705 9.76826 10.9845 10.0673 10.8145 10.3143C10.6444 10.5596 10.4331 10.7494 10.1842 10.8801V10.9392C10.5047 11.0716 10.7858 11.2901 10.9917 11.5694C11.2012 11.8522 11.3068 12.1888 11.3068 12.5827C11.3068 12.9766 11.2065 13.3275 11.0078 13.6354C10.8073 13.9434 10.5316 14.1869 10.1807 14.3641C9.82975 14.5414 9.43408 14.6309 8.99544 14.6309C8.48698 14.6309 8.0179 14.4859 7.58464 14.1923ZM13.7542 9.20788L12.6514 10.0046L12.0999 9.16849L14.0783 7.74157H14.8374V14.4733H13.7542V9.20788Z" fill="#1A73E8"/>
</g>
<defs>
<clipPath id="clip0">
<rect width="22" height="22" fill="white"/>
</clipPath>
</defs>
</svg>
