<svg width="249" height="99" viewBox="0 0 249 99" fill="none" xmlns="http://www.w3.org/2000/svg">
<g clip-path="url(#clip0)">
<path d="M231.239 21.7612H191.762V61.2387H231.239V21.7612Z" fill="white"/>
<path d="M231.238 79.0001L249 61.2389H231.238V79.0001Z" fill="#F72A25"/>
<path d="M249 21.7612H231.238V61.2387H249V21.7612Z" fill="#FBBC04"/>
<path d="M231.239 61.2389H191.762V79.0001H231.239V61.2389Z" fill="#34A853"/>
<path d="M174 61.2389V73.0797C174 76.3512 176.649 79.0001 179.92 79.0001H191.761V61.2389H174Z" fill="#188038"/>
<path d="M249 21.7612V9.92041C249 6.64893 246.351 4 243.079 4H231.238V21.7612H249Z" fill="#1967D2"/>
<path d="M231.239 4H179.92C176.649 4 174 6.64893 174 9.92041V61.2388H191.761V21.7612H231.233V4H231.239Z" fill="#4285F4"/>
<path d="M199.86 52.3827C198.383 51.3878 197.364 49.929 196.809 48.0064L200.233 46.5965C200.544 47.7806 201.087 48.6961 201.862 49.3492C202.631 50.0023 203.571 50.3197 204.664 50.3197C205.787 50.3197 206.745 49.9779 207.551 49.3004C208.356 48.6168 208.759 47.7501 208.759 46.7003C208.759 45.6261 208.332 44.7472 207.484 44.0636C206.635 43.38 205.567 43.0443 204.298 43.0443H202.32V39.6568H204.096C205.189 39.6568 206.116 39.3639 206.867 38.7657C207.618 38.1737 207.99 37.3619 207.99 36.3304C207.99 35.4149 207.655 34.6825 206.983 34.1331C206.312 33.5838 205.463 33.3092 204.432 33.3092C203.425 33.3092 202.625 33.5777 202.033 34.1148C201.441 34.6519 200.996 35.3355 200.739 36.0924L197.352 34.6825C197.803 33.4068 198.627 32.2838 199.836 31.3133C201.044 30.3429 202.589 29.8546 204.462 29.8546C205.848 29.8546 207.099 30.1231 208.204 30.6602C209.309 31.1974 210.175 31.942 210.804 32.888C211.433 33.8402 211.744 34.9083 211.744 36.0924C211.744 37.3009 211.451 38.3202 210.871 39.1624C210.291 39.9986 209.571 40.6456 208.723 41.0912V41.2926C209.815 41.7442 210.773 42.4889 211.475 43.441C212.189 44.4054 212.55 45.5528 212.55 46.8956C212.55 48.2384 212.208 49.4347 211.53 50.4845C210.847 51.5343 209.907 52.3644 208.71 52.9686C207.514 53.5728 206.165 53.878 204.67 53.878C202.937 53.878 201.337 53.3836 199.86 52.3827ZM220.893 35.3905L217.133 38.1065L215.253 35.2562L221.998 30.3917H224.586V53.3409H220.893V35.3905Z" fill="#1A73E8"/>
</g>
<g filter="url(#filter0_d)">
<rect x="12" y="4" width="75" height="75" rx="8" fill="white"/>
<rect x="12.25" y="4.25" width="74.5" height="74.5" rx="7.75" stroke="#F0F0F0" stroke-width="0.5"/>
</g>
<path fill-rule="evenodd" clip-rule="evenodd" d="M61.228 19.6649C60.1926 19.6649 59.1995 20.0823 58.4674 20.8251C57.7352 21.568 57.3239 22.5756 57.3239 23.6261V32.8882C56.7643 32.553 56.1847 32.2535 55.5883 31.9915C53.791 31.2148 51.8629 30.7966 49.9096 30.76H49.1394C47.1873 30.7879 45.259 31.1987 43.4607 31.9699C42.8629 32.2243 42.282 32.5178 41.7216 32.8486V23.5865C41.7216 22.536 41.3103 21.5284 40.5781 20.7855C39.846 20.0426 38.853 19.6253 37.8175 19.6253C36.7821 19.6253 35.7891 20.0426 35.0569 20.7855C34.3247 21.5284 33.9134 22.536 33.9134 23.5865L33.8779 47.0658C33.8251 49.8839 34.4888 52.6683 35.8051 55.1503L35.9436 55.4168C35.9597 55.4461 35.9788 55.4791 35.9994 55.5146C36.0421 55.5884 36.0909 55.6727 36.1317 55.7553C37.776 58.6638 40.3323 60.9304 43.3933 62.1941C44.7031 62.7399 46.0797 63.1033 47.4855 63.2745C47.8759 63.3213 48.2699 63.3537 48.671 63.3753H49.4766H50.2361C50.6138 63.3753 50.9853 63.3306 51.3533 63.2863C51.3761 63.2835 51.3988 63.2808 51.4216 63.2781C51.9415 63.2177 52.458 63.1299 52.969 63.0152C55.0088 62.5667 56.9353 61.6955 58.6277 60.4561C60.3201 59.2168 61.7418 57.636 62.8038 55.8129C62.8174 55.7892 62.831 55.7657 62.8445 55.7422C62.8947 55.6551 62.9444 55.5688 62.9919 55.478C63.0523 55.3628 63.0878 55.298 63.1375 55.208C63.399 54.7138 63.6359 54.2066 63.8473 53.6883C64.684 51.6073 65.1039 49.3781 65.0824 47.1307L65.125 23.6189C65.1231 22.5721 64.7129 21.5686 63.984 20.8277C63.2551 20.0868 62.2668 19.6687 61.2351 19.6649H61.228ZM56.5908 50.4312C56.2041 51.4141 55.6368 52.3135 54.9191 53.0816C54.2118 53.8297 53.368 54.4314 52.4347 54.8533C52.2431 54.9398 52.0443 55.0226 51.8455 55.091L49.5457 57.4101L47.3629 55.1739C47.0617 55.0811 46.7666 54.9692 46.4792 54.8389C45.5513 54.4056 44.7149 53.7942 44.016 53.0384C43.3127 52.2646 42.76 51.3629 42.387 50.3808C41.9715 49.3253 41.7652 48.197 41.78 47.0605C41.7806 46.6243 41.8115 46.1887 41.8723 45.7569C41.9694 45.1394 42.1362 44.5353 42.3692 43.9564C42.7543 42.9695 43.3109 42.0608 44.0125 41.2735C44.72 40.5005 45.5623 39.8669 46.4969 39.4046C47.186 39.0618 47.9279 38.8413 48.6903 38.7527L49.0452 38.7239H49.9751L50.33 38.7527C51.1 38.8457 51.8481 39.0735 52.5412 39.4262C53.4703 39.8901 54.3048 40.5279 55.0008 41.3059C55.7054 42.0929 56.2634 43.0032 56.6476 43.9924C57.4979 46.5273 56.964 49.3411 56.5908 50.4312Z" fill="#1877F2"/>
<line x1="87" y1="33.5" x2="174" y2="33.5" stroke="#CCD6DD" stroke-dasharray="2 2"/>
<line x1="87" y1="48.5" x2="174" y2="48.5" stroke="#CCD6DD" stroke-dasharray="2 2"/>
<defs>
<filter id="filter0_d" x="0" y="0" width="99" height="99" filterUnits="userSpaceOnUse" color-interpolation-filters="sRGB">
<feFlood flood-opacity="0" result="BackgroundImageFix"/>
<feColorMatrix in="SourceAlpha" type="matrix" values="0 0 0 0 0 0 0 0 0 0 0 0 0 0 0 0 0 0 127 0" result="hardAlpha"/>
<feMorphology radius="8" operator="erode" in="SourceAlpha" result="effect1_dropShadow"/>
<feOffset dy="8"/>
<feGaussianBlur stdDeviation="10"/>
<feComposite in2="hardAlpha" operator="out"/>
<feColorMatrix type="matrix" values="0 0 0 0 0 0 0 0 0 0 0 0 0 0 0 0 0 0 0.12 0"/>
<feBlend mode="normal" in2="BackgroundImageFix" result="effect1_dropShadow"/>
<feBlend mode="normal" in="SourceGraphic" in2="effect1_dropShadow" result="shape"/>
</filter>
<clipPath id="clip0">
<rect width="75" height="75" fill="white" transform="translate(174 4)"/>
</clipPath>
</defs>
</svg>
