<svg width="48" height="48" viewBox="0 0 48 48" fill="none" xmlns="http://www.w3.org/2000/svg">
<rect width="48" height="48" rx="8" fill="#F1F3F7"/>
<path d="M36 35.25H12V12.75C12 11.0932 13.3432 9.75 15 9.75H36V35.25Z" fill="#1877F2"/>
<path d="M30.75 17.25H17.25V24H30.75V17.25Z" fill="#94C2FF"/>
<path d="M12 12.75V35.25H15V9.75C13.3432 9.75 12 11.0932 12 12.75Z" fill="#1877F2"/>
<path d="M36 38.25H14.625C13.1752 38.25 12 37.0747 12 35.625C12 34.1753 13.1752 33 14.625 33H36V38.25Z" fill="#579DF7"/>
<path d="M12.0371 35.25H35.9996V33H14.6246C13.3031 33 12.2209 33.9795 12.0371 35.25Z" fill="#0C56B6"/>
<path d="M23 8V28L28 25.6923L33 28V8H23Z" fill="#EB0000"/>
<path d="M33 8H23V10.3077H33V8Z" fill="#F55376"/>
</svg>
