<svg xmlns="http://www.w3.org/2000/svg" xmlns:xlink="http://www.w3.org/1999/xlink" width="20" height="14" viewBox="0 0 20 14">
  <defs>
    <clipPath id="clip-path">
      <path id="Color" d="M17,14H3a3,3,0,0,1-3-3V3A3,3,0,0,1,3,0H17a3,3,0,0,1,3,3v8A3,3,0,0,1,17,14ZM2,6v5a1,1,0,0,0,1,1H17a1,1,0,0,0,1-1V6ZM3,2A1,1,0,0,0,2,3V4H18V3a1,1,0,0,0-1-1Zm12,8H13a1,1,0,0,1,0-2h2a1,1,0,1,1,0,2ZM9,10H5A1,1,0,1,1,5,8H9a1,1,0,0,1,0,2Z" transform="translate(2 5)" fill="#2682ff"/>
    </clipPath>
  </defs>
  <g id="Icons_Credit_Card" data-name="Icons / Credit Card" transform="translate(-2 -5)">
    <g id="Group_30" data-name="Group 30">
      <path id="Color-2" data-name="Color" d="M17,14H3a3,3,0,0,1-3-3V3A3,3,0,0,1,3,0H17a3,3,0,0,1,3,3v8A3,3,0,0,1,17,14ZM2,6v5a1,1,0,0,0,1,1H17a1,1,0,0,0,1-1V6ZM3,2A1,1,0,0,0,2,3V4H18V3a1,1,0,0,0-1-1Zm12,8H13a1,1,0,0,1,0-2h2a1,1,0,1,1,0,2ZM9,10H5A1,1,0,1,1,5,8H9a1,1,0,0,1,0,2Z" transform="translate(2 5)" fill="#2682ff"/>
    </g>
  </g>
</svg>
