<svg width="16" height="16" viewBox="0 0 16 16" fill="none" xmlns="http://www.w3.org/2000/svg">
<path d="M16 0H0V16H16V0Z" fill="white" fill-opacity="0.01"/>
<path d="M8.00016 14.6666C9.8411 14.6666 11.5078 13.9204 12.7142 12.714C13.9206 11.5075 14.6668 9.84085 14.6668 7.99992C14.6668 6.15899 13.9206 4.49232 12.7142 3.28587C11.5078 2.07945 9.8411 1.33325 8.00016 1.33325C6.15923 1.33325 4.49256 2.07945 3.28612 3.28587C2.07969 4.49232 1.3335 6.15899 1.3335 7.99992C1.3335 9.84085 2.07969 11.5075 3.28612 12.714C4.49256 13.9204 6.15923 14.6666 8.00016 14.6666Z" stroke="#FBBC04" stroke-width="1.33" stroke-linejoin="round"/>
<path fill-rule="evenodd" clip-rule="evenodd" d="M7.99984 3.66675C8.46007 3.66675 8.83317 4.03985 8.83317 4.50008C8.83317 4.96031 8.46007 5.33341 7.99984 5.33341C7.5396 5.33341 7.1665 4.96031 7.1665 4.50008C7.1665 4.03985 7.5396 3.66675 7.99984 3.66675Z" fill="#FBBC04"/>
<path d="M8.16667 11.3334V6.66675H7.83333H7.5" stroke="#FBBC04" stroke-width="1.33" stroke-linecap="round" stroke-linejoin="round"/>
<path d="M7 11.3333H9.33333" stroke="#FBBC04" stroke-width="1.33" stroke-linecap="round" stroke-linejoin="round"/>
</svg>
