<svg width="140" height="140" viewBox="0 0 140 140" fill="none" xmlns="http://www.w3.org/2000/svg">
<path d="M72.9167 70.0002V125.417H52.5V70.0002C52.5 68.3902 53.8067 67.0835 55.4167 67.0835H70C71.61 67.0835 72.9167 68.3902 72.9167 70.0002Z" fill="#50E6FF"/>
<path d="M52.4999 84.5835V125.417H32.0833V87.5002C32.0833 85.8902 33.3899 84.5835 34.9999 84.5835H52.4999Z" fill="#35C1F1"/>
<path d="M32.0834 102.083V125.417H11.6667V105C11.6667 103.39 12.9734 102.083 14.5834 102.083H32.0834Z" fill="#199BE2"/>
<path d="M105 34.9998C98.5833 34.9998 93.3333 29.7498 93.3333 23.3332C93.3333 16.9165 98.5833 11.6665 105 11.6665C111.417 11.6665 116.667 16.9165 116.667 23.3332C116.667 29.7498 111.417 34.9998 105 34.9998Z" fill="url(#paint0_linear_1336_83242)"/>
<path d="M93.3333 81.6665V119.583C93.3333 122.806 95.9437 125.417 99.1666 125.417C102.389 125.417 107.61 125.417 110.833 125.417C114.056 125.417 116.667 122.806 116.667 119.583V81.6665H93.3333Z" fill="#0D61A9"/>
<path d="M84.5833 67.0835V58.3335C84.5833 48.6677 92.4174 40.8335 102.083 40.8335H107.917C117.582 40.8335 125.417 48.6677 125.417 58.3335V67.0835H84.5833Z" fill="url(#paint1_linear_1336_83242)"/>
<path d="M107.917 40.8335H102.083C97.2503 40.8335 93.3333 44.7506 93.3333 49.5835V81.6668H116.667V49.5835C116.667 44.7506 112.749 40.8335 107.917 40.8335Z" fill="url(#paint2_linear_1336_83242)"/>
<path d="M125.417 61.25H116.667C116.667 61.25 116.667 85.2279 116.667 86.0417C116.667 88.4567 118.627 90.4167 121.042 90.4167C123.457 90.4167 125.417 88.4567 125.417 86.0417C125.417 85.2279 125.417 97.0637 125.417 61.25Z" fill="url(#paint3_linear_1336_83242)"/>
<path d="M93.3333 61.25H84.5833C84.5833 61.25 84.5833 85.2279 84.5833 86.0417C84.5833 88.4567 86.5433 90.4167 88.9583 90.4167C91.3733 90.4167 93.3333 88.4567 93.3333 86.0417C93.3333 85.2279 93.3333 97.0637 93.3333 61.25Z" fill="url(#paint4_linear_1336_83242)"/>
<path d="M15.4378 55.5624L46.0803 24.9199L53.8299 32.6695L23.1874 63.312C22.047 64.4524 20.2007 64.4524 19.0632 63.312L15.4378 59.6866C14.2974 58.5491 14.2974 56.7028 15.4378 55.5624Z" fill="#50E6FF"/>
<path d="M58.3334 43.1461V23.3332C58.3334 21.7232 57.0267 20.4165 55.4167 20.4165H35.6038C34.3059 20.4165 33.6526 21.9886 34.5713 22.9073L55.8426 44.1786C56.7613 45.0944 58.3334 44.444 58.3334 43.1461Z" fill="#50E6FF"/>
<defs>
<linearGradient id="paint0_linear_1336_83242" x1="101.065" y1="12.4948" x2="108.932" y2="34.1686" gradientUnits="userSpaceOnUse">
<stop stop-color="#FFCF54"/>
<stop offset="0.261" stop-color="#FDCB4D"/>
<stop offset="0.639" stop-color="#F7C13A"/>
<stop offset="1" stop-color="#F0B421"/>
</linearGradient>
<linearGradient id="paint1_linear_1336_83242" x1="101.089" y1="41.2185" x2="106.441" y2="69.4956" gradientUnits="userSpaceOnUse">
<stop stop-color="#32BDEF"/>
<stop offset="1" stop-color="#1EA2E4"/>
</linearGradient>
<linearGradient id="paint2_linear_1336_83242" x1="100.54" y1="41.6531" x2="109.413" y2="88.5239" gradientUnits="userSpaceOnUse">
<stop stop-color="#32BDEF"/>
<stop offset="1" stop-color="#1EA2E4"/>
</linearGradient>
<linearGradient id="paint3_linear_1336_83242" x1="117.338" y1="65.8846" x2="128.053" y2="89.6962" gradientUnits="userSpaceOnUse">
<stop stop-color="#FFCF54"/>
<stop offset="0.261" stop-color="#FDCB4D"/>
<stop offset="0.639" stop-color="#F7C13A"/>
<stop offset="1" stop-color="#F0B421"/>
</linearGradient>
<linearGradient id="paint4_linear_1336_83242" x1="85.2541" y1="65.8846" x2="95.9699" y2="89.6962" gradientUnits="userSpaceOnUse">
<stop stop-color="#FFCF54"/>
<stop offset="0.261" stop-color="#FDCB4D"/>
<stop offset="0.639" stop-color="#F7C13A"/>
<stop offset="1" stop-color="#F0B421"/>
</linearGradient>
</defs>
</svg>
