<svg width="48" height="48" viewBox="0 0 48 48" fill="none" xmlns="http://www.w3.org/2000/svg">
<rect width="48" height="48" rx="8" fill="#F1F3F7"/>
<path d="M24 35.1603C22.48 35.1603 21.2476 33.6449 19.892 33.2354C18.4953 32.7849 16.5645 33.2354 15.4142 32.3753C14.2229 31.5152 14.0997 29.5494 13.237 28.4026C12.3743 27.2149 10.5668 26.5187 10.1149 25.0852C9.663 23.7337 10.69 22.0955 10.69 20.5801C10.69 19.0648 9.663 17.4266 10.1149 16.075C10.5668 14.6826 12.3743 13.9454 13.237 12.7576C14.0997 11.5699 14.2229 9.64503 15.4142 8.78496C16.6056 7.9249 18.4953 8.37542 19.892 7.92491C21.2476 7.4744 22.5211 6 24 6C25.52 6 26.7524 7.51536 28.108 7.92491C29.5048 8.37542 31.4355 7.9249 32.5858 8.78496C33.7771 9.64503 33.9003 11.6109 34.763 12.7576C35.6257 13.9454 37.4332 14.6416 37.8851 16.075C38.337 17.4266 37.31 19.0648 37.31 20.5801C37.31 22.0955 38.337 23.7337 37.8851 25.0852C37.4332 26.4777 35.6257 27.2149 34.763 28.4026C33.9003 29.5903 33.7771 31.5152 32.5858 32.3753C31.3944 33.2354 29.5048 32.7849 28.108 33.2354C26.7935 33.6859 25.52 35.1603 24 35.1603Z" fill="url(#paint0_linear_712_55908)"/>
<path d="M29.9572 20.5803V42L24.0005 38.314L18.085 42V20.5803H29.9572Z" fill="#333333"/>
<path d="M29.9572 18.6555H18.085V20.5804H29.9572V18.6555Z" fill="#276EF1"/>
<path d="M24.0004 29.4678C28.9236 29.4678 32.9148 25.4888 32.9148 20.5805C32.9148 15.6721 28.9236 11.6931 24.0004 11.6931C19.0771 11.6931 15.0859 15.6721 15.0859 20.5805C15.0859 25.4888 19.0771 29.4678 24.0004 29.4678Z" fill="#88D3FC"/>
<path d="M23.9991 26.5182C27.2889 26.5182 29.9557 23.8594 29.9557 20.5797C29.9557 17.2999 27.2889 14.6411 23.9991 14.6411C20.7094 14.6411 18.0425 17.2999 18.0425 20.5797C18.0425 23.8594 20.7094 26.5182 23.9991 26.5182Z" fill="white"/>
<g clip-path="url(#clip0_712_55908)">
<path d="M31.2463 13.5432H16.4922V28.0493H31.2463V13.5432Z" fill="white" fill-opacity="0.01"/>
<path d="M21.7178 20.7962L23.2547 22.3073L26.3284 19.2852" stroke="#333333" stroke-linecap="round" stroke-linejoin="round"/>
</g>
<defs>
<linearGradient id="paint0_linear_712_55908" x1="50.1113" y1="17.0731" x2="23.3056" y2="1.92413" gradientUnits="userSpaceOnUse">
<stop stop-color="#3374F6"/>
<stop offset="1" stop-color="#00D3ED"/>
</linearGradient>
<clipPath id="clip0_712_55908">
<rect width="14.7541" height="14.5061" fill="white" transform="translate(16.4922 13.5432)"/>
</clipPath>
</defs>
</svg>
