<svg xmlns="http://www.w3.org/2000/svg" width="198" height="174" viewBox="0 0 198 174">
  <g id="Group_1166" data-name="Group 1166" transform="translate(-46.007 -69.021)">
    <g id="Background_Simple" data-name="Background Simple" transform="translate(46.007 69.021)">
      <g id="Group_1177" data-name="Group 1177">
        <path id="Path_938" data-name="Path 938" d="M57.393,148.509c-11.064,22.444,18.644,36.939,36.146,43.058,8.813,3.082,15.927,5.367,20.807,13.254,4.529,7.319,4.724,13.72,14.235,16.586,8.746,2.635,26.025-3.8,33.918-11.849,9.684-9.879,8.108-18.477,14.133-28.155,8.682-13.946,52.828-17.2,39.454-42.629-3.488-6.63-12.026-7.221-18.505-9.992-9.638-4.121-11.963-10.275-15.118-20.2-2.878-9.051-6.632-18.547-15.988-21.832-9.095-3.194-20.068,1.319-28.946-2.838-14.163-6.631-38.464-25.742-46.952,4.129-3.014,10.6.326,25.136-5.5,34.477C78.9,132.4,64.093,134.918,57.393,148.509Z" transform="translate(-54.987 -71.768)" fill="#e6f4ff"/>
      </g>
    </g>
    <g id="Goal" transform="translate(208.566 82.788)">
      <g id="Group_1180" data-name="Group 1180" transform="translate(0 0)">
        <path id="Path_943" data-name="Path 943" d="M407.548,98.945v66.318c9.427,0,18.372-11.894,18.372-33.159S416.975,98.945,407.548,98.945Z" transform="translate(-390.48 -98.945)" fill="#263238"/>
        <ellipse id="Ellipse_106" data-name="Ellipse 106" cx="17.068" cy="33.159" rx="17.068" ry="33.159" transform="translate(0 0)" fill="#fc593b"/>
        <ellipse id="Ellipse_107" data-name="Ellipse 107" cx="13.655" cy="26.527" rx="13.655" ry="26.527" transform="translate(3.414 6.632)" fill="#fff"/>
        <ellipse id="Ellipse_108" data-name="Ellipse 108" cx="10.241" cy="19.895" rx="10.241" ry="19.895" transform="translate(6.827 13.264)" fill="#fc593b"/>
        <ellipse id="Ellipse_109" data-name="Ellipse 109" cx="6.827" cy="13.264" rx="6.827" ry="13.264" transform="translate(10.241 19.896)" fill="#fff"/>
        <ellipse id="Ellipse_110" data-name="Ellipse 110" cx="3.414" cy="6.632" rx="3.414" ry="6.632" transform="translate(13.655 26.527)" fill="#212121"/>
      </g>
    </g>
    <g id="Arrow" transform="translate(60.181 144.764)">
      <path id="Path_946" data-name="Path 946" d="M231.888,222.666l-23.317,17.171,10.205,1.387L198.859,274.4l-28.647-5.085a2.038,2.038,0,0,0-1.894.672l-.011.013-23.8,27.537-33.016-5.22a2.364,2.364,0,0,0-1.953.589l-.016.014L83.789,316.525l-.018.016a2.533,2.533,0,0,0,3.46,3.7l24.677-23.076,33.129,4.946.023,0a2.2,2.2,0,0,0,2-.753l23.61-27.818,28.832,4.892.019,0a1.921,1.921,0,0,0,1.971-.919l20.338-34.477,6.085,8.308Z" transform="translate(-82.968 -222.666)" fill="#263238"/>
    </g>
    <g id="Character" transform="translate(79.526 92.588)">
      <g id="Group_1186" data-name="Group 1186">
        <g id="Group_1185" data-name="Group 1185">
          <path id="Path_947" data-name="Path 947" d="M157.914,171.813l-.263.13-.324.169c-.22.119-.446.235-.669.367-.449.253-.894.535-1.334.825-.884.576-1.744,1.213-2.588,1.875s-1.649,1.384-2.443,2.12l-1.161,1.142-.564.591-.283.3c-.046.049-.07.072-.1.115a3.087,3.087,0,0,0-.377,2.005,13.736,13.736,0,0,0,.571,2.967,41.984,41.984,0,0,0,2.436,6.12l-1.9,1.238a29.129,29.129,0,0,1-3.744-6.181,15.782,15.782,0,0,1-1.142-3.695,8.718,8.718,0,0,1-.09-2.2,5.706,5.706,0,0,1,.791-2.472,5.782,5.782,0,0,1,.407-.576l.287-.351.575-.7c.39-.464.8-.914,1.209-1.361a34.989,34.989,0,0,1,2.638-2.537,30.313,30.313,0,0,1,2.936-2.245c.52-.341,1.048-.673,1.6-.983.273-.158.557-.309.845-.457l.447-.214c.163-.075.287-.132.522-.228Z" transform="translate(-132.094 -142.78)" fill="#b55b52"/>
          <path id="Path_948" data-name="Path 948" d="M184.153,140.308c.172,2.7.581,8.6-1.492,10.115,0,0,.371,2.766,5.264,3.406,5.381.7,2.921-2.335,2.921-2.335-2.845-1.086-2.484-3.255-1.705-5.234Z" transform="translate(-151.219 -129.154)" fill="#b55b52"/>
          <path id="Path_949" data-name="Path 949" d="M179.935,160.109s-.476-1.5-.651-2.407,6.48-.6,8.681-.034,2.906,3.147,2.906,3.147Z" transform="translate(-149.551 -137.455)" fill="#263238"/>
          <path id="Path_950" data-name="Path 950" d="M205.059,136.583a9.638,9.638,0,0,0,1.517,2.16,1.554,1.554,0,0,1-1.256.372Z" transform="translate(-162.271 -127.316)" fill="#a02724"/>
          <path id="Path_951" data-name="Path 951" d="M201.756,130.518a.212.212,0,0,1-.183-.311,2.1,2.1,0,0,1,1.561-1.144.212.212,0,0,1,.04.422h0a1.682,1.682,0,0,0-1.226.919A.212.212,0,0,1,201.756,130.518Z" transform="translate(-160.539 -123.605)" fill="#263238"/>
          <path id="Path_952" data-name="Path 952" d="M204.294,134.753c.037.359.257.631.492.606s.4-.335.358-.694-.257-.631-.492-.606S204.257,134.393,204.294,134.753Z" transform="translate(-161.891 -126.07)" fill="#263238"/>
          <path id="Path_953" data-name="Path 953" d="M204.8,133.791l.837-.338S205.269,134.173,204.8,133.791Z" transform="translate(-162.146 -125.772)" fill="#263238"/>
          <path id="Path_954" data-name="Path 954" d="M136.872,348.749l4.32,1.172,4.092-9.63-4.32-1.172Z" transform="translate(-128.625 -227.952)" fill="#b55b52"/>
          <path id="Path_955" data-name="Path 955" d="M141.975,353.255l-4.967-.785a.355.355,0,0,0-.4.246l-1.187,3.841a.719.719,0,0,0,.585.9c1.736.244,2.587.274,4.772.62,1.344.212,3.285.662,5.141.956,1.815.287,2.245-1.526,1.5-1.814a8.759,8.759,0,0,1-4.744-3.572A1.171,1.171,0,0,0,141.975,353.255Z" transform="translate(-127.894 -234.537)" fill="#263238"/>
          <g id="Group_1181" data-name="Group 1181" transform="translate(10.226 111.169)">
            <path id="Path_956" data-name="Path 956" d="M142.89,339.123l4.322,1.172-2.112,4.963-4.322-1.172Z" transform="translate(-140.778 -339.123)" opacity="0.2"/>
          </g>
          <path id="Path_957" data-name="Path 957" d="M168.743,162.04c-1.774-.691-7.133,3.778-7.133,3.778L164,174.056s6-3.485,6.54-5.9C171.105,165.64,170.84,162.857,168.743,162.04Z" transform="translate(-140.832 -139.978)" fill="#407bff"/>
          <path id="Path_958" data-name="Path 958" d="M192.217,165.648A79.993,79.993,0,0,1,190.45,183.4c-.339,1.726.333,2.495.032,4.259-.2,1.154-.844.984-.936,1.548H171.366c.022-.541-.794-.83-.979-2-.422-2.676,1.127-2.9,1.077-4.586-.126-4.254-.748-9.038-2.61-17.439a3.057,3.057,0,0,1,2.538-3.691c1.307-.19,2.881-.372,4.471-.449a57.864,57.864,0,0,1,8.255,0c1.611.147,3.32.4,4.706.627A4.055,4.055,0,0,1,192.217,165.648Z" transform="translate(-144.37 -139.467)" fill="#fc593b"/>
          <path id="Path_959" data-name="Path 959" d="M205.14,175.22c.81,1.935,3.394,4.838,4.64,6.175.192-1.864.289-3.445.339-4.782Z" transform="translate(-162.311 -146.55)" opacity="0.2"/>
          <path id="Path_960" data-name="Path 960" d="M212.73,167.44c1.492,1.518,3.11,3.068,4.728,4.5a39.6,39.6,0,0,0,5.029,3.9c.214.148.429.251.644.379l.322.185c.046.026,0,0-.005,0s-.028,0-.038-.009a.413.413,0,0,0-.059-.007c-.133.019.16.054.509-.073a10.744,10.744,0,0,0,2.475-1.378,56.365,56.365,0,0,0,5.037-4.147l1.741,1.453a31.337,31.337,0,0,1-4.542,5.43,12.7,12.7,0,0,1-3.208,2.281,5.974,5.974,0,0,1-1.181.409,4.154,4.154,0,0,1-1.611.05,3.513,3.513,0,0,1-.469-.113c-.078-.022-.158-.054-.236-.085s-.183-.074-.2-.084l-.43-.206c-.282-.141-.585-.269-.849-.423a36.353,36.353,0,0,1-5.9-4.1,56.4,56.4,0,0,1-5.1-4.833Z" transform="translate(-164.407 -142.697)" fill="#b55b52"/>
          <path id="Path_961" data-name="Path 961" d="M253.328,170.754a6.113,6.113,0,0,0-1.933,2.339l.385,1.7a.291.291,0,0,0,.413.2l2.72-1.339,1.136-.578a.656.656,0,0,0,.351-.678l-.188-1.289a.654.654,0,0,0-.669-.56l-1.766.057A.844.844,0,0,0,253.328,170.754Z" transform="translate(-185.135 -144.228)" fill="#b55b52"/>
          <path id="Path_962" data-name="Path 962" d="M155.489,213.342a6.116,6.116,0,0,1-1.062,2.842l-1.667.517a.291.291,0,0,1-.377-.259l-.2-3.026-.081-1.549a.271.271,0,0,1,.17-.265l1.787-.709a.27.27,0,0,1,.338.124l.994,1.862A.842.842,0,0,1,155.489,213.342Z" transform="translate(-136.141 -164.248)" fill="#b55b52"/>
          <g id="Group_1183" data-name="Group 1183" transform="translate(0 49.138)">
            <path id="Path_963" data-name="Path 963" d="M121.684,232.055l18.169,2.124a2.056,2.056,0,0,0,2.067-1.29l3.872-10.7a1.175,1.175,0,0,0-1-1.649l-18.169-2.124a2.056,2.056,0,0,0-2.067,1.29l-3.872,10.7A1.175,1.175,0,0,0,121.684,232.055Z" transform="translate(-120.591 -217.16)" fill="#263238"/>
            <g id="Group_1182" data-name="Group 1182" transform="translate(1.645)">
              <path id="Path_964" data-name="Path 964" d="M125.446,235.785l22.272,2.588a1.994,1.994,0,0,0,2.179-1.653l2.169-13.632A1.8,1.8,0,0,0,150.483,221l-22.272-2.588a1.994,1.994,0,0,0-2.179,1.653l-2.169,13.631A1.8,1.8,0,0,0,125.446,235.785Z" transform="translate(-123.839 -217.157)" fill="#407bff"/>
              <path id="Path_965" data-name="Path 965" d="M125.446,235.785l22.272,2.588a1.994,1.994,0,0,0,2.179-1.653l2.169-13.632A1.8,1.8,0,0,0,150.483,221l-22.272-2.588a1.994,1.994,0,0,0-2.179,1.653l-2.169,13.631A1.8,1.8,0,0,0,125.446,235.785Z" transform="translate(-123.839 -217.157)" opacity="0.3"/>
              <path id="Path_966" data-name="Path 966" d="M154.072,222.657a1.1,1.1,0,0,1-.122-.007l-6.468-.752h0a1.031,1.031,0,0,1-.9-1.189l.468-2.94a2.175,2.175,0,0,1,2.38-1.8l4.326.5A2.1,2.1,0,0,1,155.6,218.9l-.454,2.85A1.092,1.092,0,0,1,154.072,222.657Zm-6.473-1.765,6.468.752a.071.071,0,0,0,.074-.056l.453-2.85a1.089,1.089,0,0,0-.958-1.264l-4.326-.5a1.173,1.173,0,0,0-1.263.957l-.468,2.94-.04.527Z" transform="translate(-135.054 -215.95)" fill="#407bff"/>
            </g>
            <path id="Path_967" data-name="Path 967" d="M152.249,238.707l-22.271-2.588A2.053,2.053,0,0,1,128.191,234l.689-13.8a1.751,1.751,0,0,1,1.976-1.677l22.272,2.588a2.053,2.053,0,0,1,1.787,2.114l-.689,13.8A1.751,1.751,0,0,1,152.249,238.707Z" transform="translate(-124.34 -217.213)" fill="#407bff"/>
          </g>
          <path id="Path_968" data-name="Path 968" d="M205.233,162.576c3.442.832,7,4.221,7,4.221l-3.039,7.487s-7.085-4.327-7.749-6.712C200.56,164.4,201.917,161.775,205.233,162.576Z" transform="translate(-160.357 -140.208)" fill="#fc593b"/>
          <path id="Path_969" data-name="Path 969" d="M180.127,128.515c.726,4.382.94,6.253,3.4,8.287,3.7,3.06,8.927,1.209,9.524-3.3.538-4.061-.74-10.546-5.238-11.855A6.059,6.059,0,0,0,180.127,128.515Z" transform="translate(-149.926 -119.818)" fill="#b55b52"/>
          <path id="Path_970" data-name="Path 970" d="M168.265,120.464c-2.9-.333-8.121-4.573-11.062-.231-2.7,3.992-4.078,4.58-8.26,6.188-6.98,2.683-3.1,5.533-6.092,9.835s-8.02,3.03-8.738,8.861c-1.1,8.909,14.352,19.84,23.6,9.793s3.164-13.446,7.331-16.337c5.273-3.658,3.941-9.745,2.125-10.576C169.154,125.971,171.945,120.887,168.265,120.464Z" transform="translate(-127.236 -118.289)" fill="#263238"/>
          <path id="Path_971" data-name="Path 971" d="M200.153,135.015a4.074,4.074,0,0,1,1.07,2.434c.063,1.139-.989,1.234-1.914.521-.833-.643-1.869-2.01-1.5-2.961S199.373,134.165,200.153,135.015Z" transform="translate(-158.657 -126.21)" fill="#b55b52"/>
          <path id="Path_972" data-name="Path 972" d="M170.472,216.784s-1.782,26.732-8.688,40.451c-2.81,5.583-15.651,26.315-15.651,26.315l-6.279-1.039s9.08-22.559,14.653-27.85c.581-14.916-3.773-30.563,2.585-37.877Z" transform="translate(-130.096 -167.587)" fill="#263238"/>
          <path id="Path_973" data-name="Path 973" d="M188.357,231.01a63.986,63.986,0,0,0,2.2,18.738c1-4.306,1.763-8.688,2.335-12.593A31.392,31.392,0,0,0,188.357,231.01Z" transform="translate(-154.007 -174.284)" opacity="0.4"/>
          <path id="Path_974" data-name="Path 974" d="M145.821,345.888l-7.5-2.035.913-2.579,8.074,1.9Z" transform="translate(-129.338 -229.015)" fill="#263238"/>
          <path id="Path_975" data-name="Path 975" d="M251.6,300.881l4.564.672-.912-10.3-4.564-.672Z" transform="translate(-184.785 -203.837)" fill="#b55b52"/>
          <path id="Path_976" data-name="Path 976" d="M255.132,305.435l-4.972-.755a.355.355,0,0,0-.4.249l-1.164,3.847a.719.719,0,0,0,.59.895c1.738.234,2.589.259,4.775.591,1.345.2,3.289.643,5.147.925,1.817.276,2.235-1.539,1.487-1.823a8.757,8.757,0,0,1-4.765-3.544A1.173,1.173,0,0,0,255.132,305.435Z" transform="translate(-183.741 -210.814)" fill="#263238"/>
          <g id="Group_1184" data-name="Group 1184" transform="translate(65.9 86.77)">
            <path id="Path_977" data-name="Path 977" d="M250.683,290.585l4.566.672.424,4.811-4.522-.174Z" transform="translate(-250.683 -290.585)" opacity="0.2"/>
          </g>
          <path id="Path_978" data-name="Path 978" d="M196.437,216.784s29.98,5.081,28.8,13.862c-1.87,13.894-2.6,26.773-2.6,26.773l-5.822-.508s-2.44-13.69-.76-22.836c-7.007-3.166-36.661,9.145-33-17.29Z" transform="translate(-151.261 -167.301)" fill="#263238"/>
          <path id="Path_979" data-name="Path 979" d="M255.141,296.285l-7.721-.91-.086-2.757,8.2.687Z" transform="translate(-183.131 -204.816)" fill="#263238"/>
          <path id="Path_980" data-name="Path 980" d="M172.535,214.545l-.82,1.627c-.064.126.086.255.3.255h19.065c.164,0,.3-.081.31-.183l.164-1.628c.012-.112-.131-.208-.31-.208H172.831A.329.329,0,0,0,172.535,214.545Z" transform="translate(-145.811 -165.993)" fill="#fff"/>
          <path id="Path_981" data-name="Path 981" d="M177.586,216.463h-.493c-.1,0-.173-.051-.167-.112l.231-2.114c.007-.062.093-.112.191-.112h.493c.1,0,.173.051.166.112l-.231,2.114C177.77,216.412,177.684,216.463,177.586,216.463Z" transform="translate(-148.389 -165.853)" fill="#263238"/>
          <path id="Path_982" data-name="Path 982" d="M201.179,216.463h-.493c-.1,0-.173-.051-.166-.112l.231-2.114c.007-.062.093-.112.191-.112h.493c.1,0,.173.051.166.112l-.231,2.114C201.363,216.412,201.277,216.463,201.179,216.463Z" transform="translate(-160.031 -165.853)" fill="#263238"/>
        </g>
      </g>
    </g>
  </g>
</svg>
