<svg width="140" height="140" viewBox="0 0 140 140" fill="none" xmlns="http://www.w3.org/2000/svg">
<path d="M23.0999 20.0462C23.0999 20.0462 22.1724 30.9341 26.4191 39.4653C30.6657 47.9966 42.3586 65.5433 46.967 62.6003C44.797 59.7245 46.2524 56.487 47.8857 54.9091C48.9445 53.8853 53.9145 49.1895 57.2745 46.0162C59.1411 44.2545 59.5816 41.4574 58.3478 39.2058L46.4566 17.5116C45.1674 15.1578 42.3995 14.0408 39.8386 14.837L23.0999 20.0462Z" fill="#296EC8"/>
<path d="M119.954 116.9C119.954 116.9 109.066 117.827 100.535 113.581C92.0034 109.334 74.4568 97.641 77.3997 93.0327C80.2755 95.2027 83.513 93.7473 85.0909 92.1139C86.1147 91.0552 90.8105 86.0852 93.9839 82.7252C95.7455 80.8585 98.5426 80.4181 100.794 81.6519L122.488 93.5431C124.842 94.8323 125.959 97.6002 125.163 100.161L119.954 116.9Z" fill="#1877F2"/>
<path d="M61.2093 78.7905C78.4643 96.0455 98.5514 108.692 119.957 116.897L116.836 122.287C115.308 124.926 112.073 126.116 109.238 124.99C88.553 116.768 69.1601 104.314 52.4214 87.5784C35.6826 70.8426 23.2285 51.4467 15.0064 30.7617C13.8806 27.9296 15.0706 24.6951 17.7101 23.1667L23.1001 20.0459C31.3076 41.4484 43.9543 61.5384 61.2093 78.7905Z" fill="#3CA9F8"/>
</svg>
