<svg width="48" height="48" viewBox="0 0 48 48" fill="none" xmlns="http://www.w3.org/2000/svg">
<rect width="48" height="48" rx="8" fill="#F1F3F7"/>
<path d="M21 39C27.6274 39 33 33.6274 33 27C33 20.3726 27.6274 15 21 15C14.3726 15 9 20.3726 9 27C9 33.6274 14.3726 39 21 39Z" fill="#1877F2"/>
<path d="M29.6873 9.02157C35.2581 9.02157 39.7741 13.5376 39.7741 19.1083C39.7741 24.6791 35.2581 29.1951 29.6873 29.1951C24.1166 29.1951 19.6006 24.6791 19.6006 19.1083C19.6006 13.5376 24.1166 9.02157 29.6873 9.02157Z" fill="#3CA9F8"/>
<path d="M39.7306 29.1951L29.7451 29.1951L35.4106 23.8671L39.7306 29.1951Z" fill="#3CA9F8"/>
<path d="M9.05273 38.9999H20.932L14.1917 32.6616L9.05273 38.9999Z" fill="#1877F2"/>
</svg>
