<svg width="140" height="140" viewBox="0 0 140 140" fill="none" xmlns="http://www.w3.org/2000/svg">
<path d="M17.5 116.2V35H122.5V116.2C122.5 119.39 119.875 122 116.667 122H23.3333C20.125 122 17.5 119.39 17.5 116.2Z" fill="url(#paint0_linear_1336_83211)"/>
<path d="M122.5 23.3333V40.8333H17.5V23.3333C17.5 20.125 20.125 17.5 23.3333 17.5H116.667C119.875 17.5 122.5 20.125 122.5 23.3333Z" fill="url(#paint1_linear_1336_83211)"/>
<path opacity="0.05" d="M103.542 36.4583C98.7087 36.4583 94.7916 32.5412 94.7916 27.7083V17.5H112.292V27.7083C112.292 32.5412 108.375 36.4583 103.542 36.4583Z" fill="black"/>
<path opacity="0.07" d="M103.542 34.2708C99.9162 34.2708 96.9791 31.3338 96.9791 27.7083V17.5H110.104V27.7083C110.104 31.3338 107.167 34.2708 103.542 34.2708Z" fill="black"/>
<path opacity="0.05" d="M36.4584 36.4583C31.6255 36.4583 27.7084 32.5412 27.7084 27.7083V17.5H45.2084V27.7083C45.2084 32.5412 41.2913 36.4583 36.4584 36.4583Z" fill="black"/>
<path opacity="0.07" d="M36.4584 34.2708C32.833 34.2708 29.8959 31.3338 29.8959 27.7083V17.5H43.0209V27.7083C43.0209 31.3338 40.0838 34.2708 36.4584 34.2708Z" fill="black"/>
<path d="M36.4584 32.0832C34.0434 32.0832 32.0834 30.1232 32.0834 27.7082V16.0415C32.0834 13.6265 34.0434 11.6665 36.4584 11.6665C38.8734 11.6665 40.8334 13.6265 40.8334 16.0415V27.7082C40.8334 30.1232 38.8734 32.0832 36.4584 32.0832Z" fill="#3CCBF4"/>
<path d="M110.833 56.8748V65.6248C110.833 66.4298 110.18 67.0832 109.375 67.0832H100.625C99.82 67.0832 99.1667 66.4298 99.1667 65.6248V56.8748C99.1667 56.0698 99.82 55.4165 100.625 55.4165H109.375C110.18 55.4165 110.833 56.0698 110.833 56.8748ZM87.5 56.8748V65.6248C87.5 66.4298 86.8467 67.0832 86.0417 67.0832H77.2917C76.4867 67.0832 75.8333 66.4298 75.8333 65.6248V56.8748C75.8333 56.0698 76.4867 55.4165 77.2917 55.4165H86.0417C86.8467 55.4165 87.5 56.0698 87.5 56.8748ZM64.1667 56.8748V65.6248C64.1667 66.4298 63.5133 67.0832 62.7083 67.0832H53.9583C53.1533 67.0832 52.5 66.4298 52.5 65.6248V56.8748C52.5 56.0698 53.1533 55.4165 53.9583 55.4165H62.7083C63.5133 55.4165 64.1667 56.0698 64.1667 56.8748Z" fill="white"/>
<path d="M110.833 77.2918V86.0418C110.833 86.8468 110.18 87.5002 109.375 87.5002H100.625C99.82 87.5002 99.1666 86.8468 99.1666 86.0418V77.2918C99.1666 76.4868 99.82 75.8335 100.625 75.8335H109.375C110.18 75.8335 110.833 76.4868 110.833 77.2918ZM87.5 77.2918V86.0418C87.5 86.8468 86.8466 87.5002 86.0416 87.5002H77.2916C76.4866 87.5002 75.8333 86.8468 75.8333 86.0418V77.2918C75.8333 76.4868 76.4866 75.8335 77.2916 75.8335H86.0416C86.8466 75.8335 87.5 76.4868 87.5 77.2918ZM64.1666 77.2918V86.0418C64.1666 86.8468 63.5133 87.5002 62.7083 87.5002H53.9583C53.1533 87.5002 52.5 86.8468 52.5 86.0418V77.2918C52.5 76.4868 53.1533 75.8335 53.9583 75.8335H62.7083C63.5133 75.8335 64.1666 76.4868 64.1666 77.2918ZM40.8333 77.2918V86.0418C40.8333 86.8468 40.18 87.5002 39.375 87.5002H30.625C29.82 87.5002 29.1666 86.8468 29.1666 86.0418V77.2918C29.1666 76.4868 29.82 75.8335 30.625 75.8335H39.375C40.18 75.8335 40.8333 76.4868 40.8333 77.2918Z" fill="white"/>
<path d="M87.5 97.7083V106.458C87.5 107.263 86.8466 107.917 86.0416 107.917H77.2916C76.4866 107.917 75.8333 107.263 75.8333 106.458V97.7083C75.8333 96.9033 76.4866 96.25 77.2916 96.25H86.0416C86.8466 96.25 87.5 96.9033 87.5 97.7083ZM64.1666 97.7083V106.458C64.1666 107.263 63.5133 107.917 62.7083 107.917H53.9583C53.1533 107.917 52.5 107.263 52.5 106.458V97.7083C52.5 96.9033 53.1533 96.25 53.9583 96.25H62.7083C63.5133 96.25 64.1666 96.9033 64.1666 97.7083ZM40.8333 97.7083V106.458C40.8333 107.263 40.18 107.917 39.375 107.917H30.625C29.82 107.917 29.1666 107.263 29.1666 106.458V97.7083C29.1666 96.9033 29.82 96.25 30.625 96.25H39.375C40.18 96.25 40.8333 96.9033 40.8333 97.7083Z" fill="white"/>
<path d="M103.542 32.0832C101.127 32.0832 99.1666 30.1232 99.1666 27.7082V16.0415C99.1666 13.6265 101.127 11.6665 103.542 11.6665C105.957 11.6665 107.917 13.6265 107.917 16.0415V27.7082C107.917 30.1232 105.957 32.0832 103.542 32.0832Z" fill="#3CCBF4"/>
<path d="M128.96 122.001H74.9984C74.0864 122.001 73.3264 121.545 72.7184 120.937L59.342 103.913C58.886 103.305 58.886 102.545 59.342 102.088L72.5664 85.064C73.1744 84.456 73.9344 84 74.8464 84H128.96C130.632 84 132 85.368 132 87.0401V118.961C132 120.633 130.632 122.001 128.96 122.001Z" fill="url(#paint2_linear_1336_83211)"/>
<path d="M82.0264 105.767C82.0264 106.474 81.855 107.089 81.5121 107.612C81.1692 108.134 80.6684 108.537 80.0098 108.82C79.3567 109.103 78.562 109.245 77.6259 109.245C77.2122 109.245 76.8067 109.217 76.4094 109.163C76.0175 109.108 75.6392 109.03 75.2745 108.926C74.9153 108.817 74.5724 108.684 74.2458 108.526V106.175C74.8119 106.425 75.3997 106.651 76.0093 106.852C76.6189 107.054 77.2231 107.154 77.8218 107.154C78.2355 107.154 78.5675 107.1 78.8178 106.991C79.0737 106.882 79.2587 106.733 79.373 106.542C79.4873 106.352 79.5445 106.134 79.5445 105.889C79.5445 105.59 79.4438 105.334 79.2424 105.122C79.041 104.909 78.7634 104.711 78.4096 104.526C78.0613 104.341 77.6667 104.142 77.2258 103.93C76.9482 103.799 76.6461 103.641 76.3196 103.456C75.993 103.266 75.6828 103.034 75.3888 102.762C75.0949 102.49 74.8527 102.161 74.6622 101.774C74.4772 101.382 74.3846 100.914 74.3846 100.37C74.3846 99.657 74.5479 99.0474 74.8745 98.5412C75.2011 98.035 75.6664 97.6485 76.2706 97.3818C76.8802 97.1097 77.5986 96.9736 78.426 96.9736C79.0464 96.9736 79.637 97.0471 80.1976 97.1941C80.7637 97.3356 81.3542 97.5424 81.9693 97.8146L81.1528 99.7821C80.6031 99.559 80.1105 99.3875 79.6751 99.2678C79.2397 99.1426 78.7961 99.08 78.3443 99.08C78.0286 99.08 77.7592 99.1317 77.5361 99.2351C77.3129 99.3331 77.1442 99.4746 77.0299 99.6597C76.9156 99.8393 76.8584 100.049 76.8584 100.288C76.8584 100.571 76.9401 100.811 77.1033 101.007C77.2721 101.197 77.5224 101.382 77.8545 101.562C78.1919 101.742 78.611 101.951 79.1118 102.191C79.7214 102.479 80.2412 102.781 80.6711 103.097C81.1066 103.407 81.4413 103.774 81.6753 104.199C81.9094 104.618 82.0264 105.141 82.0264 105.767Z" fill="white"/>
<path d="M88.7946 109.081H86.2637V99.2515H83.0225V97.1451H92.0358V99.2515H88.7946V109.081Z" fill="white"/>
<path d="M101.18 109.081L100.314 106.24H95.9628L95.0974 109.081H92.3706L96.5833 97.0961H99.6776L103.907 109.081H101.18ZM99.7103 104.117L98.8448 101.342C98.7904 101.156 98.7169 100.92 98.6244 100.631C98.5373 100.337 98.4475 100.041 98.355 99.7413C98.2679 99.4365 98.1971 99.1725 98.1427 98.9494C98.0883 99.1725 98.0121 99.4501 97.9141 99.7821C97.8216 100.109 97.7318 100.419 97.6447 100.713C97.5576 101.007 97.495 101.216 97.4569 101.342L96.5997 104.117H99.7103Z" fill="white"/>
<path d="M108.895 97.1451C109.978 97.1451 110.871 97.2757 111.573 97.537C112.281 97.7982 112.806 98.1928 113.149 98.7208C113.492 99.2487 113.663 99.9155 113.663 100.721C113.663 101.265 113.56 101.742 113.353 102.15C113.146 102.558 112.874 102.904 112.536 103.187C112.199 103.47 111.834 103.701 111.442 103.881L114.953 109.081H112.144L109.295 104.501H107.948V109.081H105.417V97.1451H108.895ZM108.715 99.2188H107.948V102.444H108.764C109.603 102.444 110.201 102.305 110.561 102.027C110.925 101.744 111.108 101.331 111.108 100.786C111.108 100.22 110.912 99.8175 110.52 99.578C110.133 99.3386 109.532 99.2188 108.715 99.2188Z" fill="white"/>
<path d="M121.06 109.081H118.529V99.2515H115.288V97.1451H124.301V99.2515H121.06V109.081Z" fill="white"/>
<defs>
<linearGradient id="paint0_linear_1336_83211" x1="18.7075" y1="39.8198" x2="97.0355" y2="97.3571" gradientUnits="userSpaceOnUse">
<stop stop-color="#28AFEA"/>
<stop offset="1" stop-color="#047ED6"/>
</linearGradient>
<linearGradient id="paint1_linear_1336_83211" x1="18.725" y1="19.2733" x2="120.161" y2="39.9" gradientUnits="userSpaceOnUse">
<stop stop-color="#0077D2"/>
<stop offset="1" stop-color="#0B59A2"/>
</linearGradient>
<linearGradient id="paint2_linear_1336_83211" x1="86.3258" y1="77.5413" x2="114.323" y2="130.197" gradientUnits="userSpaceOnUse">
<stop stop-color="#21AD64"/>
<stop offset="1" stop-color="#088242"/>
</linearGradient>
</defs>
</svg>
