
<svg width="48" height="48" viewBox="0 0 48 48" fill="none" xmlns="http://www.w3.org/2000/svg">
<path opacity="0.4" d="M36.7602 25.68V35.54C36.7602 38.08 34.7802 40.8 32.4002 41.6L26.0202 43.72C24.9002 44.1 23.0802 44.1 21.9802 43.72L15.6002 41.6C13.2002 40.8 11.2402 38.08 11.2402 35.54L11.2602 25.68L20.1002 31.44C22.2602 32.86 25.8202 32.86 27.9802 31.44L36.7602 25.68Z" fill="#202734"/>
<path d="M39.9591 12.9201L27.9791 5.06006C25.8191 3.64006 22.2591 3.64006 20.0991 5.06006L8.05906 12.9201C4.19906 15.4201 4.19906 21.0801 8.05906 23.6001L11.2591 25.6801L20.0991 31.4401C22.2591 32.8601 25.8191 32.8601 27.9791 31.4401L36.7591 25.6801L39.4991 23.8801V30.0001C39.4991 30.8201 40.1791 31.5001 40.9991 31.5001C41.8191 31.5001 42.4991 30.8201 42.4991 30.0001V20.1601C43.2991 17.5801 42.4791 14.5801 39.9591 12.9201Z" fill="#202734"/>
</svg>
