<svg id="Group_199" data-name="Group 199" xmlns="http://www.w3.org/2000/svg" xmlns:xlink="http://www.w3.org/1999/xlink" width="20" height="20" viewBox="0 0 20 20">
  <defs>
    <clipPath id="clip-path">
      <path id="Color" d="M10,20A10,10,0,1,1,20,10,10.011,10.011,0,0,1,10,20ZM10,2a8,8,0,1,0,8,8A8.009,8.009,0,0,0,10,2Zm4,9H10a1,1,0,0,1-1-1V6a1,1,0,1,1,2,0V9h3a1,1,0,1,1,0,2Z" fill="#2682ff"/>
    </clipPath>
  </defs>
  <path id="Color-2" data-name="Color" d="M10,20A10,10,0,1,1,20,10,10.011,10.011,0,0,1,10,20ZM10,2a8,8,0,1,0,8,8A8.009,8.009,0,0,0,10,2Zm4,9H10a1,1,0,0,1-1-1V6a1,1,0,1,1,2,0V9h3a1,1,0,1,1,0,2Z" fill="#2682ff"/>
</svg>
