<svg width="73" height="20" viewBox="0 0 73 20" fill="none" xmlns="http://www.w3.org/2000/svg">
<g clip-path="url(#clip0_166:15885)">
<path fill-rule="evenodd" clip-rule="evenodd" d="M12.6009 -0.00107663C12.1238 -0.00107663 11.6663 0.189819 11.3289 0.529614C10.9916 0.86941 10.8021 1.33027 10.8021 1.81082V6.04735C10.5443 5.89401 10.2772 5.75703 10.0024 5.6372C9.1743 5.28189 8.28595 5.09063 7.38598 5.07387H7.03112C6.13169 5.08663 5.24321 5.27457 4.41466 5.62732C4.13921 5.74367 3.87155 5.87793 3.61337 6.02923V1.7927C3.61337 1.31215 3.42386 0.851291 3.08651 0.511495C2.74917 0.1717 2.29164 -0.0191956 1.81456 -0.0191956C1.33749 -0.0191956 0.879951 0.1717 0.542608 0.511495C0.205265 0.851291 0.0157478 1.31215 0.0157478 1.7927L-0.000605093 12.5323C-0.0249522 13.8213 0.280866 15.0949 0.887355 16.2302L0.951131 16.3521C0.958569 16.3655 0.967389 16.3806 0.976861 16.3968C0.99654 16.4305 1.01903 16.4691 1.0378 16.5069C1.79544 17.8373 2.97323 18.874 4.38359 19.4521C4.98708 19.7017 5.62133 19.8679 6.26908 19.9462C6.44896 19.9676 6.63047 19.9824 6.81526 19.9923H7.18647H7.53642C7.71044 19.9923 7.88157 19.9719 8.05116 19.9516C8.06165 19.9504 8.07213 19.9491 8.08261 19.9479C8.32217 19.9202 8.56015 19.8801 8.79559 19.8276C9.73543 19.6225 10.6231 19.224 11.4028 18.6571C12.1826 18.0902 12.8377 17.3671 13.327 16.5333C13.3332 16.5224 13.3395 16.5117 13.3457 16.5009C13.3688 16.4611 13.3917 16.4216 13.4136 16.3801C13.4414 16.3274 13.4578 16.2977 13.4807 16.2565C13.6012 16.0305 13.7103 15.7985 13.8077 15.5614C14.1933 14.6096 14.3867 13.5899 14.3768 12.5619L14.3964 1.80752C14.3956 1.32869 14.2066 0.869666 13.8707 0.530771C13.5349 0.191875 13.0795 0.000663795 12.6042 -0.00107663H12.6009ZM10.4653 14.071C10.2871 14.5206 10.0258 14.932 9.6951 15.2833C9.36917 15.6255 8.98042 15.9008 8.5504 16.0938C8.46209 16.1333 8.37052 16.1712 8.27894 16.2025L7.21927 17.2632L6.21357 16.2403C6.0748 16.1979 5.9388 16.1468 5.80639 16.0872C5.37888 15.889 4.99349 15.6093 4.6715 15.2636C4.34745 14.9097 4.09278 14.4972 3.9209 14.048C3.72946 13.5652 3.63444 13.0491 3.64127 12.5293C3.64154 12.3297 3.65575 12.1305 3.68379 11.933C3.72853 11.6505 3.80535 11.3742 3.91273 11.1094C4.09018 10.658 4.34662 10.2424 4.66986 9.88225C4.99587 9.52867 5.38396 9.23884 5.81456 9.02737C6.13206 8.87058 6.47387 8.76974 6.82517 8.72923L6.9887 8.71605H7.41714L7.58067 8.72923C7.93541 8.77173 8.28012 8.87595 8.59946 9.03725C9.02757 9.24946 9.41205 9.54118 9.73271 9.89708C10.0574 10.2571 10.3144 10.6734 10.4915 11.1259C10.8833 12.2854 10.6373 13.5724 10.4653 14.071Z" fill="#1877F2"/>
<path d="M19.8066 9.9053C20.0866 9.22072 20.4953 8.59709 21.0102 8.0687C21.519 7.54805 22.1262 7.13528 22.7959 6.85473C23.4933 6.56285 24.2419 6.41551 24.997 6.42152C25.2599 6.42338 25.5221 6.44929 25.7803 6.49894C26.045 6.5495 26.3048 6.62279 26.5571 6.71801C26.8048 6.80939 27.0404 6.93109 27.2586 7.08039C27.4669 7.22218 27.6531 7.39426 27.8114 7.59101V2.48477H30.6339V12.2245C30.6437 13.022 30.493 13.8132 30.1907 14.5503C29.767 15.5819 29.0459 16.4617 28.1207 17.0763C27.1954 17.6908 26.1085 18.0119 25.0003 17.9979C24.2464 18.0041 23.4986 17.8614 22.7992 17.5778C22.1277 17.3115 21.516 16.9121 21.0004 16.4034C20.4833 15.8821 20.0737 15.263 19.7952 14.5816C19.4928 13.8359 19.3421 13.0366 19.352 12.2311C19.3439 11.434 19.4958 10.6435 19.7985 9.90694L19.8066 9.9053ZM22.4231 13.399C22.5622 13.7483 22.7664 14.0676 23.0249 14.3395C23.2795 14.6059 23.5834 14.8196 23.9194 14.9687C24.2619 15.1203 24.6319 15.1986 25.006 15.1986C25.3801 15.1986 25.7502 15.1203 26.0927 14.9687C26.4261 14.8185 26.7276 14.6048 26.9806 14.3395C27.2376 14.0677 27.4398 13.7483 27.5759 13.399C27.7244 13.025 27.8 12.6257 27.7983 12.2229C27.7991 11.8411 27.7258 11.4628 27.5824 11.1094C27.4408 10.7584 27.2369 10.4363 26.9806 10.159C26.7256 9.88542 26.4222 9.662 26.0861 9.50009C25.7475 9.33362 25.3754 9.24794 24.9987 9.24972C24.6247 9.24777 24.2544 9.32405 23.9112 9.47374C23.5757 9.62063 23.2723 9.83278 23.0183 10.098C22.7608 10.3684 22.5571 10.686 22.4182 11.0336C22.1228 11.7928 22.1228 12.6364 22.4182 13.3957L22.4231 13.399Z" fill="#202734"/>
<path d="M36.084 3.86206C36.0855 4.11202 36.0348 4.35952 35.9352 4.58846C35.8383 4.80906 35.7001 5.00873 35.528 5.1765C35.3529 5.34601 35.1484 5.48168 34.9246 5.57677C34.466 5.77212 33.9494 5.77797 33.4865 5.59307C33.0237 5.40817 32.6515 5.04734 32.4504 4.58846C32.3517 4.35948 32.3008 4.11251 32.3008 3.86288C32.3008 3.61325 32.3517 3.36628 32.4504 3.1373C32.6434 2.68908 33.0025 2.33447 33.4512 2.14899C33.6845 2.0514 33.9345 2.00116 34.1871 2.00116C34.4397 2.00116 34.6897 2.0514 34.923 2.14899C35.147 2.24365 35.3516 2.37937 35.5264 2.54926C35.7002 2.71745 35.8387 2.9191 35.9336 3.14224C36.0334 3.36885 36.0847 3.61413 36.084 3.86206ZM35.5934 17.7939H32.766V6.8385H35.6L35.5934 17.7939Z" fill="#202734"/>
<path d="M40.5615 17.7872H37.7275V2.48654H40.5615V17.7872Z" fill="#202734"/>
<path d="M45.5234 17.7872H42.6895V2.48654H45.5234V17.7872Z" fill="#202734"/>
<path d="M58.6803 12.2246C58.6903 13.0296 58.5396 13.8284 58.2371 14.5735C57.959 15.2551 57.5493 15.8743 57.0319 16.3953C56.5209 16.9059 55.913 17.3075 55.2445 17.5763C54.5457 17.86 53.7984 18.0027 53.0451 17.9963C51.9368 18.0139 50.8488 17.6953 49.9226 17.082C48.9964 16.4686 48.2747 15.5889 47.8514 14.557C47.5494 13.8198 47.3981 13.0287 47.4066 12.2312V2.48654H50.2307V7.60267C50.3883 7.40592 50.574 7.23383 50.7818 7.09204C51.0001 6.94111 51.2356 6.81723 51.4834 6.72308C51.7362 6.62806 51.9966 6.55478 52.2618 6.504C52.5199 6.45354 52.7821 6.42762 53.0451 6.42658C53.7997 6.4219 54.5476 6.56977 55.2445 6.86144C55.9135 7.14121 56.521 7.55155 57.0319 8.06882C57.5471 8.59575 57.9568 9.2176 58.2387 9.90048C58.5407 10.6371 58.6909 11.4278 58.6803 12.2246ZM55.8463 12.2246C55.8511 11.8196 55.7761 11.4176 55.6255 11.042C55.4861 10.6909 55.2813 10.37 55.0221 10.0965C54.7675 9.83056 54.4629 9.61834 54.126 9.47221C53.7828 9.32239 53.4125 9.2461 53.0385 9.24819C52.662 9.24692 52.2902 9.33376 51.9527 9.50186C51.6166 9.66377 51.3133 9.88719 51.0582 10.1607C50.8039 10.4383 50.6022 10.7604 50.4629 11.1111C50.3197 11.4641 50.2464 11.8418 50.2471 12.223C50.243 12.6254 50.3163 13.0248 50.4629 13.3991C50.5961 13.747 50.7962 14.065 51.0519 14.3347C51.3076 14.6044 51.6137 14.8205 51.9527 14.9705C52.2952 15.1221 52.6652 15.2003 53.0393 15.2003C53.4134 15.2003 53.7835 15.1221 54.126 14.9705C54.4616 14.8208 54.7654 14.6071 55.0205 14.3413C55.2789 14.0684 55.4837 13.7487 55.6239 13.3991C55.7744 13.0263 55.85 12.6271 55.8463 12.2246Z" fill="#202734"/>
<path d="M63.5322 3.86218C63.5337 4.11215 63.483 4.35964 63.3833 4.58858C63.2865 4.80959 63.1476 5.00936 62.9745 5.17663C62.8002 5.34635 62.5962 5.48206 62.3727 5.57689C62.1395 5.67448 61.8894 5.72472 61.6369 5.72472C61.3843 5.72472 61.1342 5.67448 60.901 5.57689C60.4535 5.38951 60.095 5.0355 59.9002 4.58858C59.8011 4.35998 59.75 4.11325 59.75 3.86383C59.75 3.6144 59.8011 3.36767 59.9002 3.13907C60.0935 2.69105 60.4524 2.33654 60.901 2.15076C61.1342 2.05317 61.3843 2.00293 61.6369 2.00293C61.8894 2.00293 62.1395 2.05317 62.3727 2.15076C62.5965 2.24585 62.801 2.38152 62.9762 2.55103C63.1492 2.71987 63.2875 2.92136 63.3833 3.14401C63.4824 3.37024 63.5331 3.61493 63.5322 3.86218ZM63.0416 17.794H60.2142V6.83862H63.0481L63.0416 17.794Z" fill="#202734"/>
<path d="M67.9941 17.7872H65.1602V2.48654H67.9941V17.7872Z" fill="#202734"/>
<path d="M72.9716 17.7872H70.1377V2.48654H72.9716V17.7872Z" fill="#202734"/>
</g>
<defs>
<clipPath id="clip0_166:15885">
<rect width="72.973" height="20" fill="white"/>
</clipPath>
</defs>
</svg>
