<svg id="Group_10" data-name="Group 10" xmlns="http://www.w3.org/2000/svg" xmlns:xlink="http://www.w3.org/1999/xlink" width="14" height="20" viewBox="0 0 14 20">
  <defs>
    <clipPath id="clip-path">
      <path id="Color" d="M13,20a.993.993,0,0,1-.484-.125L6.835,16.733,1.506,19.862A1.013,1.013,0,0,1,1,20a.987.987,0,0,1-.6-.2,1,1,0,0,1-.367-1.049L2.34,9.772a6,6,0,1,1,9.319,0l2.309,8.978a1,1,0,0,1-.356,1.04A1.01,1.01,0,0,1,13,20Zm-6.18-5.419a1.01,1.01,0,0,1,.486.126L11.453,17,9.964,11.211a5.961,5.961,0,0,1-5.929,0L2.568,16.92l3.747-2.2A.98.98,0,0,1,6.819,14.581ZM7,2a4,4,0,1,0,4,4A4,4,0,0,0,7,2Z" fill="#2682ff"/>
    </clipPath>
  </defs>
  <path id="Color-2" data-name="Color" d="M13,20a.993.993,0,0,1-.484-.125L6.835,16.733,1.506,19.862A1.013,1.013,0,0,1,1,20a.987.987,0,0,1-.6-.2,1,1,0,0,1-.367-1.049L2.34,9.772a6,6,0,1,1,9.319,0l2.309,8.978a1,1,0,0,1-.356,1.04A1.01,1.01,0,0,1,13,20Zm-6.18-5.419a1.01,1.01,0,0,1,.486.126L11.453,17,9.964,11.211a5.961,5.961,0,0,1-5.929,0L2.568,16.92l3.747-2.2A.98.98,0,0,1,6.819,14.581ZM7,2a4,4,0,1,0,4,4A4,4,0,0,0,7,2Z" fill="#2682ff"/>
</svg>
