<svg width="145" height="48" viewBox="0 0 145 48" fill="none" xmlns="http://www.w3.org/2000/svg">
<path d="M0 10.5C0 7.23841 0 5.60761 0.532843 4.32122C1.2433 2.60602 2.60602 1.2433 4.32122 0.532843C5.60761 0 7.23841 0 10.5 0H134.5C137.762 0 139.392 0 140.679 0.532843C142.394 1.2433 143.757 2.60602 144.467 4.32122C145 5.60761 145 7.23841 145 10.5V37.5C145 40.7616 145 42.3924 144.467 43.6788C143.757 45.394 142.394 46.7567 140.679 47.4672C139.392 48 137.762 48 134.5 48H10.5C7.23841 48 5.60761 48 4.32122 47.4672C2.60602 46.7567 1.2433 45.394 0.532843 43.6788C0 42.3924 0 40.7616 0 37.5V10.5Z" fill="#0C0D10"/>
<path d="M98.5104 23.0412V25.7904H96.7752V27.5933H98.5104V33.7193C98.5104 35.8111 99.4633 36.6478 101.86 36.6478C102.282 36.6478 102.683 36.598 103.034 36.5382V34.7552C102.733 34.7851 102.543 34.805 102.212 34.805C101.138 34.805 100.667 34.307 100.667 33.1715V27.5933H103.034V25.7904H100.667V23.0412H98.5104Z" fill="white"/>
<path d="M109.141 36.7972C112.33 36.7972 114.286 34.6756 114.286 31.1593C114.286 27.6631 112.32 25.5314 109.141 25.5314C105.951 25.5314 103.985 27.6631 103.985 31.1593C103.985 34.6756 105.941 36.7972 109.141 36.7972ZM109.141 34.8947C107.265 34.8947 106.212 33.53 106.212 31.1593C106.212 28.8086 107.265 27.434 109.141 27.434C111.006 27.434 112.07 28.8086 112.07 31.1593C112.07 33.5201 111.006 34.8947 109.141 34.8947Z" fill="white"/>
<path d="M115.96 36.5881H118.116V30.1832C118.116 28.6591 119.27 27.6332 120.904 27.6332C121.286 27.6332 121.928 27.7029 122.108 27.7627V25.6509C121.877 25.5912 121.466 25.5613 121.145 25.5613C119.721 25.5613 118.507 26.3382 118.196 27.4041H118.036V25.7406H115.96V36.5881Z" fill="white"/>
<path d="M127.463 27.3543C129.057 27.3543 130.1 28.4599 130.151 30.1632H124.634C124.754 28.4699 125.868 27.3543 127.463 27.3543ZM130.141 33.6595C129.739 34.5062 128.847 34.9744 127.543 34.9744C125.818 34.9744 124.704 33.7691 124.634 31.8666V31.747H132.347V31C132.347 27.5933 130.512 25.5314 127.473 25.5314C124.393 25.5314 122.437 27.7328 122.437 31.1992C122.437 34.6656 124.353 36.7972 127.483 36.7972C129.98 36.7972 131.725 35.6019 132.217 33.6595H130.141Z" fill="white"/>
<path d="M84.3686 32.5823C84.5349 35.2459 86.77 36.9494 90.0967 36.9494C93.6521 36.9494 95.8769 35.1633 95.8769 32.3138C95.8769 30.0735 94.6086 28.8346 91.5314 28.1222L89.8784 27.7195C87.924 27.2653 87.1339 26.6562 87.1339 25.5928C87.1339 24.2506 88.3606 23.3731 90.2007 23.3731C91.9472 23.3731 93.1531 24.23 93.3714 25.6031H95.6377C95.5026 23.0943 93.2779 21.3289 90.2319 21.3289C86.9572 21.3289 84.774 23.0943 84.774 25.7476C84.774 27.9364 86.0111 29.2372 88.7245 29.867L90.6581 30.3316C92.6437 30.7962 93.517 31.4776 93.517 32.6132C93.517 33.9347 92.1447 34.8949 90.2735 34.8949C88.267 34.8949 86.874 33.9967 86.6765 32.5823H84.3686Z" fill="white"/>
<path d="M62.0297 25.5613C60.5453 25.5613 59.2614 26.2984 58.5994 27.5336H58.4389V25.7406H56.3627V40.1939H58.5192V34.9445H58.6897C59.2614 36.09 60.4951 36.7673 62.0498 36.7673C64.8081 36.7673 66.5633 34.6058 66.5633 31.1593C66.5633 27.7129 64.8081 25.5613 62.0297 25.5613ZM61.4179 34.8449C59.6125 34.8449 58.4791 33.4304 58.4791 31.1693C58.4791 28.8982 59.6125 27.4838 61.4279 27.4838C63.2534 27.4838 64.3467 28.8683 64.3467 31.1593C64.3467 33.4603 63.2534 34.8449 61.4179 34.8449Z" fill="white"/>
<path d="M74.1092 25.5613C72.6247 25.5613 71.3409 26.2984 70.6789 27.5336H70.5184V25.7406H68.4422V40.1939H70.5986V34.9445H70.7691C71.3409 36.09 72.5746 36.7673 74.1292 36.7673C76.8875 36.7673 78.6428 34.6058 78.6428 31.1593C78.6428 27.7129 76.8875 25.5613 74.1092 25.5613ZM73.4973 34.8449C71.6919 34.8449 70.5585 33.4304 70.5585 31.1693C70.5585 28.8982 71.6919 27.4838 73.5074 27.4838C75.3328 27.4838 76.4261 28.8683 76.4261 31.1593C76.4261 33.4603 75.3328 34.8449 73.4973 34.8449Z" fill="white"/>
<path d="M52.4936 36.5881H54.9678L49.5516 21.6902H47.0462L41.6299 36.5881H44.0209L45.4036 32.6339H51.1214L52.4936 36.5881ZM48.1793 24.3952H48.356L50.5288 30.6929H45.9962L48.1793 24.3952Z" fill="white"/>
<path d="M43.0781 10.4532V17.64H45.691C47.8474 17.64 49.0962 16.3202 49.0962 14.0242C49.0962 11.7631 47.8374 10.4532 45.691 10.4532H43.0781ZM44.2015 11.4692H45.5656C47.0651 11.4692 47.9528 12.4155 47.9528 14.0392C47.9528 15.6877 47.0801 16.624 45.5656 16.624H44.2015V11.4692Z" fill="white"/>
<path d="M52.9207 17.7446C54.5155 17.7446 55.4934 16.6838 55.4934 14.9257C55.4934 13.1775 54.5104 12.1117 52.9207 12.1117C51.3259 12.1117 50.3429 13.1775 50.3429 14.9257C50.3429 16.6838 51.3209 17.7446 52.9207 17.7446ZM52.9207 16.7934C51.9829 16.7934 51.4563 16.111 51.4563 14.9257C51.4563 13.7503 51.9829 13.063 52.9207 13.063C53.8535 13.063 54.3851 13.7503 54.3851 14.9257C54.3851 16.1061 53.8535 16.7934 52.9207 16.7934Z" fill="white"/>
<path d="M63.8214 12.2163H62.7432L61.7702 16.3551H61.685L60.5616 12.2163H59.5285L58.4051 16.3551H58.3249L57.347 12.2163H56.2537L57.7582 17.64H58.8665L59.9899 13.6457H60.0752L61.2035 17.64H62.3219L63.8214 12.2163Z" fill="white"/>
<path d="M65.0631 17.64H66.1414V14.4675C66.1414 13.6208 66.6479 13.0929 67.4453 13.0929C68.2427 13.0929 68.6238 13.5262 68.6238 14.3978V17.64H69.7021V14.1288C69.7021 12.8389 69.03 12.1117 67.8114 12.1117C66.9889 12.1117 66.4473 12.4753 66.1815 13.0779H66.1012V12.2163H65.0631V17.64Z" fill="white"/>
<path d="M71.4002 17.64H72.4784V10.0996H71.4002V17.64Z" fill="white"/>
<path d="M76.5336 17.7446C78.1284 17.7446 79.1063 16.6838 79.1063 14.9257C79.1063 13.1775 78.1233 12.1117 76.5336 12.1117C74.9388 12.1117 73.9558 13.1775 73.9558 14.9257C73.9558 16.6838 74.9338 17.7446 76.5336 17.7446ZM76.5336 16.7934C75.5957 16.7934 75.0692 16.111 75.0692 14.9257C75.0692 13.7503 75.5957 13.063 76.5336 13.063C77.4664 13.063 77.998 13.7503 77.998 14.9257C77.998 16.1061 77.4664 16.7934 76.5336 16.7934Z" fill="white"/>
<path d="M82.3189 16.8282C81.7322 16.8282 81.3059 16.5443 81.3059 16.0562C81.3059 15.5781 81.6469 15.3241 82.3992 15.2743L83.7332 15.1896V15.6429C83.7332 16.3152 83.1314 16.8282 82.3189 16.8282ZM82.0431 17.7297C82.7603 17.7297 83.357 17.4209 83.683 16.878H83.7683V17.64H84.8064V13.9346C84.8064 12.7891 84.0341 12.1117 82.665 12.1117C81.4262 12.1117 80.5436 12.7094 80.4333 13.6407H81.4764C81.5968 13.2572 82.013 13.0381 82.6148 13.0381C83.352 13.0381 83.7332 13.3618 83.7332 13.9346V14.4027L82.2537 14.4874C80.9548 14.5671 80.2226 15.1299 80.2226 16.1061C80.2226 17.0972 80.9899 17.7297 82.0431 17.7297Z" fill="white"/>
<path d="M88.4654 17.7297C89.2176 17.7297 89.8546 17.3761 90.1805 16.7834H90.2658V17.64H91.2989V10.0996H90.2207V13.0779H90.1404C89.8445 12.4803 89.2126 12.1267 88.4654 12.1267C87.0862 12.1267 86.1986 13.2124 86.1986 14.9257C86.1986 16.6439 87.0762 17.7297 88.4654 17.7297ZM88.7713 13.0879C89.674 13.0879 90.2407 13.8001 90.2407 14.9307C90.2407 16.0662 89.679 16.7685 88.7713 16.7685C87.8586 16.7685 87.3119 16.0762 87.3119 14.9257C87.3119 13.7852 87.8636 13.0879 88.7713 13.0879Z" fill="white"/>
<path d="M98.2909 17.7446C99.8857 17.7446 100.864 16.6838 100.864 14.9257C100.864 13.1775 99.8807 12.1117 98.2909 12.1117C96.6961 12.1117 95.7131 13.1775 95.7131 14.9257C95.7131 16.6838 96.6911 17.7446 98.2909 17.7446ZM98.2909 16.7934C97.3531 16.7934 96.8265 16.111 96.8265 14.9257C96.8265 13.7503 97.3531 13.063 98.2909 13.063C99.2237 13.063 99.7553 13.7503 99.7553 14.9257C99.7553 16.1061 99.2237 16.7934 98.2909 16.7934Z" fill="white"/>
<path d="M102.291 17.64H103.369V14.4675C103.369 13.6208 103.876 13.0929 104.673 13.0929C105.47 13.0929 105.852 13.5262 105.852 14.3978V17.64H106.93V14.1288C106.93 12.8389 106.258 12.1117 105.039 12.1117C104.217 12.1117 103.675 12.4753 103.409 13.0779H103.329V12.2163H102.291V17.64Z" fill="white"/>
<path d="M111.896 10.8666V12.2412H111.028V13.1427H111.896V16.2057C111.896 17.2516 112.372 17.6699 113.571 17.6699C113.781 17.6699 113.982 17.645 114.158 17.6151V16.7236C114.007 16.7386 113.912 16.7485 113.746 16.7485C113.21 16.7485 112.974 16.4995 112.974 15.9317V13.1427H114.158V12.2412H112.974V10.8666H111.896Z" fill="white"/>
<path d="M115.605 17.64H116.683V14.4725C116.683 13.6507 117.175 13.0979 118.057 13.0979C118.82 13.0979 119.226 13.5361 119.226 14.4027V17.64H120.304V14.1388C120.304 12.8488 119.587 12.1167 118.423 12.1167C117.601 12.1167 117.024 12.4803 116.758 13.0879H116.673V10.0996H115.605V17.64Z" fill="white"/>
<path d="M124.194 13.0231C124.991 13.0231 125.513 13.576 125.538 14.4276H122.779C122.84 13.581 123.396 13.0231 124.194 13.0231ZM125.533 16.1758C125.332 16.5991 124.886 16.8332 124.234 16.8332C123.371 16.8332 122.814 16.2306 122.779 15.2793V15.2195H126.636V14.846C126.636 13.1427 125.718 12.1117 124.199 12.1117C122.659 12.1117 121.681 13.2124 121.681 14.9456C121.681 16.6788 122.639 17.7446 124.204 17.7446C125.452 17.7446 126.325 17.147 126.571 16.1758H125.533Z" fill="white"/>
<path d="M29.9289 24.361C29.9551 22.3438 31.0459 20.4351 32.7764 19.3786C31.6847 17.8302 29.8562 16.8485 27.9538 16.7893C25.9247 16.5778 23.9576 17.9951 22.9236 17.9951C21.8696 17.9951 20.2776 16.8103 18.5633 16.8454C16.3288 16.9171 14.2457 18.1787 13.1586 20.1188C10.8216 24.1369 12.5648 30.0422 14.8033 33.2901C15.9233 34.8805 17.2323 36.6571 18.9451 36.5941C20.6211 36.525 21.2471 35.5327 23.2702 35.5327C25.2745 35.5327 25.8618 36.5941 27.6093 36.554C29.4077 36.525 30.5409 34.9565 31.6216 33.351C32.4263 32.2178 33.0455 30.9653 33.4563 29.64C31.3428 28.7523 29.9314 26.64 29.9289 24.361Z" fill="white"/>
<path d="M26.6282 14.6533C27.6087 13.4843 28.0919 11.9817 27.9749 10.4646C26.4767 10.6209 25.0929 11.3319 24.099 12.4561C23.1272 13.5545 22.6214 15.0307 22.7171 16.4898C24.2157 16.5051 25.689 15.8133 26.6282 14.6533Z" fill="white"/>
<path d="M4.32122 47.4672L3.93853 48.391L4.32122 47.4672ZM144.467 43.6788L143.543 43.2961L144.467 43.6788ZM140.679 47.4672L140.296 46.5433L140.679 47.4672ZM140.679 0.532843L140.296 1.45672L140.679 0.532843ZM144.467 4.32122L145.391 3.93853L144.467 4.32122ZM10.5 1H134.5V-1H10.5V1ZM144 10.5V37.5H146V10.5H144ZM134.5 47H10.5V49H134.5V47ZM1 37.5V10.5H-1V37.5H1ZM10.5 47C8.85552 47 7.67225 46.9995 6.73798 46.9357C5.8127 46.8726 5.20494 46.7508 4.7039 46.5433L3.93853 48.391C4.72389 48.7163 5.57473 48.861 6.60184 48.9311C7.61997 49.0005 8.88289 49 10.5 49V47ZM-1 37.5C-1 39.1171 -1.00054 40.38 -0.931075 41.3982C-0.860996 42.4253 -0.716341 43.2761 -0.391036 44.0615L1.45672 43.2961C1.24918 42.7951 1.12742 42.1873 1.06429 41.262C1.00054 40.3278 1 39.1445 1 37.5H-1ZM4.7039 46.5433C3.23373 45.9343 2.06569 44.7663 1.45672 43.2961L-0.391036 44.0615C0.420915 46.0217 1.97831 47.5791 3.93853 48.391L4.7039 46.5433ZM144 37.5C144 39.1445 143.999 40.3278 143.936 41.262C143.873 42.1873 143.751 42.7951 143.543 43.2961L145.391 44.0615C145.716 43.2761 145.861 42.4253 145.931 41.3982C146.001 40.38 146 39.1171 146 37.5H144ZM134.5 49C136.117 49 137.38 49.0005 138.398 48.9311C139.425 48.861 140.276 48.7163 141.061 48.391L140.296 46.5433C139.795 46.7508 139.187 46.8726 138.262 46.9357C137.328 46.9995 136.144 47 134.5 47V49ZM143.543 43.2961C142.934 44.7663 141.766 45.9343 140.296 46.5433L141.061 48.391C143.022 47.5791 144.579 46.0217 145.391 44.0615L143.543 43.2961ZM134.5 1C136.144 1 137.328 1.00054 138.262 1.06429C139.187 1.12742 139.795 1.24918 140.296 1.45672L141.061 -0.391036C140.276 -0.716341 139.425 -0.860996 138.398 -0.931075C137.38 -1.00054 136.117 -1 134.5 -1V1ZM146 10.5C146 8.88289 146.001 7.61997 145.931 6.60184C145.861 5.57473 145.716 4.72389 145.391 3.93853L143.543 4.7039C143.751 5.20494 143.873 5.8127 143.936 6.73798C143.999 7.67225 144 8.85552 144 10.5H146ZM140.296 1.45672C141.766 2.06569 142.934 3.23373 143.543 4.7039L145.391 3.93853C144.579 1.97831 143.022 0.420915 141.061 -0.391036L140.296 1.45672ZM10.5 -1C8.88289 -1 7.61997 -1.00054 6.60184 -0.931075C5.57473 -0.860996 4.72389 -0.716341 3.93853 -0.391036L4.7039 1.45672C5.20494 1.24918 5.8127 1.12742 6.73798 1.06429C7.67225 1.00054 8.85552 1 10.5 1V-1ZM1 10.5C1 8.85552 1.00054 7.67225 1.06429 6.73798C1.12742 5.8127 1.24918 5.20494 1.45672 4.7039L-0.391036 3.93853C-0.716341 4.72389 -0.860996 5.57473 -0.931075 6.60184C-1.00054 7.61997 -1 8.88289 -1 10.5H1ZM3.93853 -0.391036C1.97831 0.420915 0.420915 1.97831 -0.391036 3.93853L1.45672 4.7039C2.06569 3.23373 3.23373 2.06569 4.7039 1.45672L3.93853 -0.391036Z" fill="#A6A6A6"/>
</svg>
