<svg width="48" height="48" viewBox="0 0 48 48" fill="none" xmlns="http://www.w3.org/2000/svg">
<rect width="48" height="48" rx="8" fill="#F1F3F7"/>
<path d="M7.73746 18.6078C7.87379 14.5416 7.94196 12.5085 8.78537 10.982C9.52725 9.63919 10.6752 8.56574 12.0647 7.91546C13.6443 7.1762 15.6774 7.24437 19.7436 7.38071L30.3921 7.73775C34.4583 7.87408 36.4914 7.94225 38.018 8.78566C39.3608 9.52754 40.4342 10.6755 41.0845 12.0649C41.8237 13.6446 41.7556 15.6777 41.6192 19.7439L41.2622 30.3924C41.1259 34.4586 41.0577 36.4917 40.2143 38.0183C39.4724 39.361 38.3245 40.4345 36.935 41.0848C35.3554 41.824 33.3223 41.7559 29.2561 41.6195L18.6075 41.2625C14.5413 41.1262 12.5082 41.058 10.9817 40.2146C9.6389 39.4727 8.56545 38.3248 7.91517 36.9353C7.17591 35.3557 7.24408 33.3226 7.38042 29.2564L7.73746 18.6078Z" fill="#2D8CFF"/>
<path d="M16.6639 19.1494C15.9397 19.1252 15.3344 19.6472 15.312 20.3155L15.1152 26.1843C15.0581 27.8885 16.5089 29.3202 18.3557 29.3821L26.1257 29.5821C26.85 29.6064 27.4552 29.0843 27.4777 28.416L27.6765 22.4867C27.7336 20.7825 25.9992 19.4625 24.1524 19.4005L16.6639 19.1494Z" fill="white"/>
<path d="M29.471 21.8918C28.9897 22.2552 28.7026 22.7934 28.6833 23.3684L28.601 25.8243C28.5817 26.3993 28.8321 26.9555 29.288 27.3503L32.1335 29.5494C32.7107 30.0493 33.6535 29.6916 33.6779 28.9635L33.9553 20.6918C33.9797 19.9637 33.063 19.5437 32.4536 20.0038L29.471 21.8918Z" fill="white"/>
</svg>
