<svg width="163" height="48" viewBox="0 0 163 48" fill="none" xmlns="http://www.w3.org/2000/svg">
<path d="M0 5C0 2.23858 2.23858 0 5 0H158C160.761 0 163 2.23858 163 5V43C163 45.7614 160.761 48 158 48H5C2.23858 48 0 45.7614 0 43V5Z" fill="black"/>
<path d="M82.2682 26.1013C79.4284 26.1013 77.1138 28.2481 77.1138 31.2049C77.1138 34.1437 79.4284 36.3085 82.2682 36.3085C85.1092 36.3085 87.4238 34.1437 87.4238 31.2049C87.4226 28.2481 85.108 26.1013 82.2682 26.1013ZM82.2682 34.2997C80.7118 34.2997 79.3704 33.0241 79.3704 31.2061C79.3704 29.3689 80.713 28.1125 82.2682 28.1125C83.8245 28.1125 85.166 29.3689 85.166 31.2061C85.166 33.0229 83.8245 34.2997 82.2682 34.2997ZM71.0224 26.1013C68.1826 26.1013 65.868 28.2481 65.868 31.2049C65.868 34.1437 68.1826 36.3085 71.0224 36.3085C73.8634 36.3085 76.178 34.1437 76.178 31.2049C76.178 28.2481 73.8634 26.1013 71.0224 26.1013ZM71.0224 34.2997C69.466 34.2997 68.1246 33.0241 68.1246 31.2061C68.1246 29.3689 69.4672 28.1125 71.0224 28.1125C72.5787 28.1125 73.9202 29.3689 73.9202 31.2061C73.9214 33.0229 72.5787 34.2997 71.0224 34.2997ZM57.6467 27.6685V29.8333H62.8603C62.7046 31.0513 62.2965 31.9405 61.6734 32.5585C60.9152 33.3121 59.7283 34.1437 57.6467 34.1437C54.4374 34.1437 51.9284 31.5721 51.9284 28.3825C51.9284 25.1929 54.4374 22.6213 57.6467 22.6213C59.3782 22.6213 60.6423 23.2981 61.5756 24.1681L63.1127 22.6405C61.8087 21.4033 60.0784 20.4565 57.6467 20.4565C53.2506 20.4565 49.5547 24.0133 49.5547 28.3825C49.5547 32.7517 53.2506 36.3085 57.6467 36.3085C60.0193 36.3085 61.8099 35.5345 63.2093 34.0849C64.6485 32.6545 65.0964 30.6433 65.0964 29.0197C65.0964 28.5181 65.0578 28.0537 64.9793 27.6673H57.6467V27.6685ZM112.352 29.3497C111.925 28.2097 110.621 26.1013 107.956 26.1013C105.31 26.1013 103.112 28.1701 103.112 31.2049C103.112 34.0657 105.291 36.3085 108.208 36.3085C110.561 36.3085 111.923 34.8781 112.488 34.0465L110.738 32.8861C110.154 33.7369 109.356 34.2973 108.208 34.2973C107.061 34.2973 106.244 33.7753 105.718 32.7505L112.585 29.9281L112.352 29.3497ZM105.349 31.0513C105.291 29.0785 106.886 28.0741 108.034 28.0741C108.929 28.0741 109.687 28.5193 109.941 29.1565L105.349 31.0513ZM99.7671 36.0001H102.023V20.9989H99.7671V36.0001ZM96.0701 27.2425H95.9928C95.4869 26.6425 94.5137 26.1013 93.2894 26.1013C90.7212 26.1013 88.368 28.3441 88.368 31.2253C88.368 34.0861 90.7212 36.3097 93.2894 36.3097C94.5149 36.3097 95.4869 35.7685 95.9928 35.1505H96.0701V35.8849C96.0701 37.8373 95.0196 38.8813 93.328 38.8813C91.9468 38.8813 91.0907 37.8961 90.7406 37.0645L88.7761 37.8769C89.34 39.2293 90.8372 40.8925 93.328 40.8925C95.9735 40.8925 98.2108 39.3457 98.2108 35.5753V26.4121H96.0713V27.2425H96.0701ZM93.4838 34.2997C91.9274 34.2997 90.6246 33.0037 90.6246 31.2253C90.6246 29.4265 91.9274 28.1125 93.4838 28.1125C95.0196 28.1125 96.2258 29.4265 96.2258 31.2253C96.2258 33.0037 95.0196 34.2997 93.4838 34.2997ZM122.922 20.9989H117.523V36.0001H119.775V30.3169H122.92C125.417 30.3169 127.873 28.5205 127.873 25.6585C127.873 22.7965 125.419 20.9989 122.922 20.9989ZM122.98 28.2289H119.775V23.0869H122.98C124.664 23.0869 125.62 24.4729 125.62 25.6585C125.62 26.8201 124.664 28.2289 122.98 28.2289ZM136.903 26.0749C135.272 26.0749 133.583 26.7889 132.884 28.3717L134.883 29.2009C135.311 28.3717 136.108 28.1005 136.942 28.1005C138.107 28.1005 139.292 28.7953 139.311 30.0301V30.1849C138.903 29.9533 138.029 29.6065 136.961 29.6065C134.806 29.6065 132.611 30.7837 132.611 32.9833C132.611 34.9909 134.379 36.2833 136.359 36.2833C137.873 36.2833 138.708 35.6077 139.232 34.8157H139.31V35.9737H141.485V30.2221C141.487 27.5605 139.485 26.0749 136.903 26.0749ZM136.63 34.2961C135.894 34.2961 134.864 33.9289 134.864 33.0217C134.864 31.8637 136.146 31.4197 137.254 31.4197C138.242 31.4197 138.71 31.6321 139.311 31.9213C139.136 33.3121 137.932 34.2961 136.63 34.2961ZM149.408 26.4025L146.826 32.9065H146.749L144.068 26.4025H141.641L145.661 35.4925L143.369 40.5493H145.719L151.914 26.4025H149.408ZM129.117 36.0001H131.369V20.9989H129.117V36.0001Z" fill="white"/>
<path d="M57.2528 12.2916C57.2528 13.2972 56.9534 14.0976 56.3533 14.6952C55.6723 15.4056 54.7837 15.7608 53.6922 15.7608C52.6466 15.7608 51.7567 15.4008 51.0262 14.6808C50.2946 13.9596 49.9287 13.0668 49.9287 12.0012C49.9287 10.9344 50.2946 10.0416 51.0262 9.32158C51.7567 8.60038 52.6466 8.24038 53.6922 8.24038C54.2114 8.24038 54.7076 8.34118 55.1785 8.54158C55.6506 8.74318 56.0285 9.01078 56.3111 9.34558L55.6748 9.97918C55.1954 9.40918 54.535 9.12478 53.691 9.12478C52.9279 9.12478 52.2687 9.39118 51.712 9.92398C51.1554 10.4568 50.8777 11.1492 50.8777 12C50.8777 12.8508 51.1554 13.5432 51.712 14.076C52.2687 14.6088 52.9279 14.8752 53.691 14.8752C54.5 14.8752 55.1749 14.6076 55.7146 14.0712C56.0648 13.722 56.2676 13.236 56.3219 12.6132H53.691V11.748H57.2009C57.2371 11.9364 57.2528 12.1176 57.2528 12.2916Z" fill="white"/>
<path d="M62.8191 9.28445H59.5205V11.5668H62.4955V12.4321H59.5205V14.7144H62.8191V15.6H58.5896V8.40005H62.8191V9.28445Z" fill="white"/>
<path d="M66.7442 15.6H65.8133V9.28445H63.7897V8.40005H68.7679V9.28445H66.7442V15.6Z" fill="white"/>
<path d="M72.3695 15.6V8.40005H73.3004V15.6H72.3695Z" fill="white"/>
<path d="M77.4287 15.6H76.4978V9.28445H74.4742V8.40005H79.4524V9.28445H77.4287V15.6Z" fill="white"/>
<path d="M88.8759 14.67C88.1635 15.3972 87.2785 15.7608 86.2196 15.7608C85.1607 15.7608 84.2757 15.3972 83.5645 14.67C82.8521 13.9428 82.4972 13.0524 82.4972 12C82.4972 10.9476 82.8521 10.0572 83.5645 9.33004C84.2757 8.60284 85.1607 8.23804 86.2196 8.23804C87.2725 8.23804 88.1563 8.60404 88.8711 9.33484C89.5859 10.0656 89.9432 10.9536 89.9432 12C89.9432 13.0524 89.5871 13.9428 88.8759 14.67ZM84.2515 14.0664C84.7876 14.6064 85.4432 14.8752 86.2196 14.8752C86.996 14.8752 87.6528 14.6052 88.1877 14.0664C88.7238 13.5264 88.993 12.8376 88.993 12C88.993 11.1624 88.7238 10.4736 88.1877 9.93364C87.6528 9.39364 86.996 9.12484 86.2196 9.12484C85.4432 9.12484 84.7876 9.39484 84.2515 9.93364C83.7167 10.4736 83.4474 11.1624 83.4474 12C83.4474 12.8376 83.7167 13.5264 84.2515 14.0664Z" fill="white"/>
<path d="M91.2497 15.6V8.40005H92.3822L95.903 14.0004H95.9429L95.903 12.6132V8.40005H96.834V15.6H95.862L92.1782 9.72725H92.1383L92.1782 11.1144V15.6H91.2497Z" fill="white"/>
<path d="M57.2528 12.2916C57.2528 13.2972 56.9534 14.0976 56.3533 14.6952C55.6723 15.4056 54.7837 15.7608 53.6922 15.7608C52.6466 15.7608 51.7567 15.4008 51.0262 14.6808C50.2946 13.9596 49.9287 13.0668 49.9287 12.0012C49.9287 10.9344 50.2946 10.0416 51.0262 9.32158C51.7567 8.60038 52.6466 8.24038 53.6922 8.24038C54.2114 8.24038 54.7076 8.34118 55.1785 8.54158C55.6506 8.74318 56.0285 9.01078 56.3111 9.34558L55.6748 9.97918C55.1954 9.40918 54.535 9.12478 53.691 9.12478C52.9279 9.12478 52.2687 9.39118 51.712 9.92398C51.1554 10.4568 50.8777 11.1492 50.8777 12C50.8777 12.8508 51.1554 13.5432 51.712 14.076C52.2687 14.6088 52.9279 14.8752 53.691 14.8752C54.5 14.8752 55.1749 14.6076 55.7146 14.0712C56.0648 13.722 56.2676 13.236 56.3219 12.6132H53.691V11.748H57.2009C57.2371 11.9364 57.2528 12.1176 57.2528 12.2916Z" stroke="white" stroke-width="0.2" stroke-miterlimit="10"/>
<path d="M62.8191 9.28445H59.5205V11.5668H62.4955V12.4321H59.5205V14.7144H62.8191V15.6H58.5896V8.40005H62.8191V9.28445Z" stroke="white" stroke-width="0.2" stroke-miterlimit="10"/>
<path d="M66.7442 15.6H65.8133V9.28445H63.7897V8.40005H68.7679V9.28445H66.7442V15.6Z" stroke="white" stroke-width="0.2" stroke-miterlimit="10"/>
<path d="M72.3695 15.6V8.40005H73.3004V15.6H72.3695Z" stroke="white" stroke-width="0.2" stroke-miterlimit="10"/>
<path d="M77.4287 15.6H76.4978V9.28445H74.4742V8.40005H79.4524V9.28445H77.4287V15.6Z" stroke="white" stroke-width="0.2" stroke-miterlimit="10"/>
<path d="M88.8759 14.67C88.1635 15.3972 87.2785 15.7608 86.2196 15.7608C85.1607 15.7608 84.2757 15.3972 83.5645 14.67C82.8521 13.9428 82.4972 13.0524 82.4972 12C82.4972 10.9476 82.8521 10.0572 83.5645 9.33004C84.2757 8.60284 85.1607 8.23804 86.2196 8.23804C87.2725 8.23804 88.1563 8.60404 88.8711 9.33484C89.5859 10.0656 89.9432 10.9536 89.9432 12C89.9432 13.0524 89.5871 13.9428 88.8759 14.67ZM84.2515 14.0664C84.7876 14.6064 85.4432 14.8752 86.2196 14.8752C86.996 14.8752 87.6528 14.6052 88.1877 14.0664C88.7238 13.5264 88.993 12.8376 88.993 12C88.993 11.1624 88.7238 10.4736 88.1877 9.93364C87.6528 9.39364 86.996 9.12484 86.2196 9.12484C85.4432 9.12484 84.7876 9.39484 84.2515 9.93364C83.7167 10.4736 83.4474 11.1624 83.4474 12C83.4474 12.8376 83.7167 13.5264 84.2515 14.0664Z" stroke="white" stroke-width="0.2" stroke-miterlimit="10"/>
<path d="M91.2497 15.6V8.40005H92.3822L95.903 14.0004H95.9429L95.903 12.6132V8.40005H96.834V15.6H95.862L92.1782 9.72725H92.1383L92.1782 11.1144V15.6H91.2497Z" stroke="white" stroke-width="0.2" stroke-miterlimit="10"/>
<g filter="url(#filter0_ii_676_55505)">
<path d="M12.6 9.04561C12.2487 9.41521 12.041 9.98881 12.041 10.7316V37.2708C12.041 38.0148 12.2487 38.5872 12.6 38.9568L12.6894 39.0432L27.648 24.1764V24.0012V23.826L12.6894 8.95801L12.6 9.04561Z" fill="url(#paint0_linear_676_55505)"/>
<path d="M32.6338 29.1335L27.6484 24.1763V24.0011V23.8259L32.635 18.8699L32.7473 18.9335L38.6552 22.2695C40.3419 23.2223 40.3419 24.7811 38.6552 25.7351L32.7473 29.0711L32.6338 29.1335Z" fill="url(#paint1_linear_676_55505)"/>
<g filter="url(#filter1_i_676_55505)">
<path d="M32.7464 29.07L27.6463 24.0012L12.5996 38.9568C13.155 39.5424 14.0739 39.6144 15.1086 39.0312L32.7464 29.07Z" fill="url(#paint2_linear_676_55505)"/>
</g>
<path d="M32.7464 18.9324L15.1086 8.97238C14.0739 8.38798 13.155 8.46118 12.5996 9.04678L27.6475 24.0024L32.7464 18.9324Z" fill="url(#paint3_linear_676_55505)"/>
</g>
<path d="M5 1H158V-1H5V1ZM162 5V43H164V5H162ZM158 47H5V49H158V47ZM1 43V5H-1V43H1ZM5 47C2.79086 47 1 45.2091 1 43H-1C-1 46.3137 1.6863 49 5 49V47ZM162 43C162 45.2091 160.209 47 158 47V49C161.314 49 164 46.3137 164 43H162ZM158 1C160.209 1 162 2.79086 162 5H164C164 1.68629 161.314 -1 158 -1V1ZM5 -1C1.68629 -1 -1 1.68629 -1 5H1C1 2.79086 2.79086 1 5 1V-1Z" fill="#A6A6A6"/>
<defs>
<filter id="filter0_ii_676_55505" x="12.041" y="8.56909" width="27.8789" height="30.865" filterUnits="userSpaceOnUse" color-interpolation-filters="sRGB">
<feFlood flood-opacity="0" result="BackgroundImageFix"/>
<feBlend mode="normal" in="SourceGraphic" in2="BackgroundImageFix" result="shape"/>
<feColorMatrix in="SourceAlpha" type="matrix" values="0 0 0 0 0 0 0 0 0 0 0 0 0 0 0 0 0 0 127 0" result="hardAlpha"/>
<feOffset dy="-0.15"/>
<feComposite in2="hardAlpha" operator="arithmetic" k2="-1" k3="1"/>
<feColorMatrix type="matrix" values="0 0 0 0 0 0 0 0 0 0 0 0 0 0 0 0 0 0 0.12 0"/>
<feBlend mode="normal" in2="shape" result="effect1_innerShadow_676_55505"/>
<feColorMatrix in="SourceAlpha" type="matrix" values="0 0 0 0 0 0 0 0 0 0 0 0 0 0 0 0 0 0 127 0" result="hardAlpha"/>
<feOffset dy="0.15"/>
<feComposite in2="hardAlpha" operator="arithmetic" k2="-1" k3="1"/>
<feColorMatrix type="matrix" values="0 0 0 0 1 0 0 0 0 1 0 0 0 0 1 0 0 0 0.25 0"/>
<feBlend mode="normal" in2="effect1_innerShadow_676_55505" result="effect2_innerShadow_676_55505"/>
</filter>
<filter id="filter1_i_676_55505" x="12.5996" y="24.0012" width="20.1465" height="15.4329" filterUnits="userSpaceOnUse" color-interpolation-filters="sRGB">
<feFlood flood-opacity="0" result="BackgroundImageFix"/>
<feBlend mode="normal" in="SourceGraphic" in2="BackgroundImageFix" result="shape"/>
<feColorMatrix in="SourceAlpha" type="matrix" values="0 0 0 0 0 0 0 0 0 0 0 0 0 0 0 0 0 0 127 0" result="hardAlpha"/>
<feOffset dy="-0.15"/>
<feComposite in2="hardAlpha" operator="arithmetic" k2="-1" k3="1"/>
<feColorMatrix type="matrix" values="0 0 0 0 0 0 0 0 0 0 0 0 0 0 0 0 0 0 0.08 0"/>
<feBlend mode="normal" in2="shape" result="effect1_innerShadow_676_55505"/>
</filter>
<linearGradient id="paint0_linear_676_55505" x1="26.322" y1="10.4508" x2="6.18397" y2="30.7131" gradientUnits="userSpaceOnUse">
<stop stop-color="#00A0FF"/>
<stop offset="0.0066" stop-color="#00A1FF"/>
<stop offset="0.2601" stop-color="#00BEFF"/>
<stop offset="0.5122" stop-color="#00D2FF"/>
<stop offset="0.7604" stop-color="#00DFFF"/>
<stop offset="1" stop-color="#00E3FF"/>
</linearGradient>
<linearGradient id="paint1_linear_676_55505" x1="40.8508" y1="24.0011" x2="11.6365" y2="24.0011" gradientUnits="userSpaceOnUse">
<stop stop-color="#FFE000"/>
<stop offset="0.4087" stop-color="#FFBD00"/>
<stop offset="0.7754" stop-color="#FFA500"/>
<stop offset="1" stop-color="#FF9C00"/>
</linearGradient>
<linearGradient id="paint2_linear_676_55505" x1="29.9767" y1="26.7539" x2="2.66706" y2="54.2322" gradientUnits="userSpaceOnUse">
<stop stop-color="#FF3A44"/>
<stop offset="1" stop-color="#C31162"/>
</linearGradient>
<linearGradient id="paint3_linear_676_55505" x1="8.81004" y1="0.212143" x2="21.0046" y2="12.4819" gradientUnits="userSpaceOnUse">
<stop stop-color="#32A071"/>
<stop offset="0.0685" stop-color="#2DA771"/>
<stop offset="0.4762" stop-color="#15CF74"/>
<stop offset="0.8009" stop-color="#06E775"/>
<stop offset="1" stop-color="#00F076"/>
</linearGradient>
</defs>
</svg>
