<svg width="30" height="30" viewBox="0 0 30 30" fill="none" xmlns="http://www.w3.org/2000/svg">
<path d="M17.5 14.375H12.5V26.25H17.5V14.375Z" fill="#64717C"/>
<path d="M10.625 25H19.375C19.7065 25 20.0245 25.1317 20.2589 25.3661C20.4933 25.6005 20.625 25.9185 20.625 26.25V26.875H9.375V26.25C9.375 25.9185 9.5067 25.6005 9.74112 25.3661C9.97554 25.1317 10.2935 25 10.625 25Z" fill="#889097"/>
<path d="M26.875 4.375H3.125C2.43464 4.375 1.875 4.93464 1.875 5.625V16.25C1.875 16.9404 2.43464 17.5 3.125 17.5H26.875C27.5654 17.5 28.125 16.9404 28.125 16.25V5.625C28.125 4.93464 27.5654 4.375 26.875 4.375Z" fill="#889097"/>
<path d="M26.25 5.625H3.75C3.40482 5.625 3.125 5.90482 3.125 6.25V15.625C3.125 15.9702 3.40482 16.25 3.75 16.25H26.25C26.5952 16.25 26.875 15.9702 26.875 15.625V6.25C26.875 5.90482 26.5952 5.625 26.25 5.625Z" fill="url(#paint0_radial_2_798)"/>
<path d="M15 3.75C15.3315 3.75 15.6495 3.8817 15.8839 4.11612C16.1183 4.35054 16.25 4.66848 16.25 5V6.25H13.75V5C13.75 4.66848 13.8817 4.35054 14.1161 4.11612C14.3505 3.8817 14.6685 3.75 15 3.75Z" fill="#64717C"/>
<path d="M22.5 3.75C22.8315 3.75 23.1495 3.8817 23.3839 4.11612C23.6183 4.35054 23.75 4.66848 23.75 5V6.25H21.25V5C21.25 4.66848 21.3817 4.35054 21.6161 4.11612C21.8505 3.8817 22.1685 3.75 22.5 3.75Z" fill="#64717C"/>
<path d="M7.5 3.75C7.83152 3.75 8.14946 3.8817 8.38388 4.11612C8.6183 4.35054 8.75 4.66848 8.75 5V6.25H6.25V5C6.25 4.66848 6.3817 4.35054 6.61612 4.11612C6.85054 3.8817 7.16848 3.75 7.5 3.75Z" fill="#64717C"/>
<path opacity="0.05" d="M17.5 24.375H12.5V25H17.5V24.375Z" fill="black"/>
<path opacity="0.07" d="M17.5 24.6875H12.5V25H17.5V24.6875Z" fill="black"/>
<path opacity="0.05" d="M12.5 18.125H17.5V17.5H12.5V18.125Z" fill="black"/>
<path opacity="0.07" d="M12.5 17.8125H17.5V17.5H12.5V17.8125Z" fill="black"/>
<defs>
<radialGradient id="paint0_radial_2_798" cx="0" cy="0" r="1" gradientUnits="userSpaceOnUse" gradientTransform="translate(28.825 20.3875) scale(24.415)">
<stop stop-color="#9E6FD9"/>
<stop offset="0.173" stop-color="#AA73C7"/>
<stop offset="0.307" stop-color="#B477B8"/>
<stop offset="0.522" stop-color="#CA7F97"/>
<stop offset="1" stop-color="#FC914D"/>
</radialGradient>
</defs>
</svg>
