<svg width="77" height="76" viewBox="0 0 77 76" fill="none" xmlns="http://www.w3.org/2000/svg">
<path d="M45.2168 32.0337C46.9697 30.2415 47.9663 27.8437 48 25.337H44.8333C44.8296 27.0155 44.1612 28.6243 42.9742 29.8112C41.7873 30.9981 40.1786 31.6666 38.5 31.6703H17.9167C17.0768 31.6703 16.2714 32.0039 15.6775 32.5978C15.0836 33.1917 14.75 33.9971 14.75 34.837V52.2572C14.75 53.0971 15.0836 53.9025 15.6775 54.4964C16.2714 55.0903 17.0768 55.4239 17.9167 55.4239H35.3333C35.7533 55.4239 36.156 55.5907 36.4529 55.8876C36.7499 56.1846 36.9167 56.5873 36.9167 57.0072V61.7572H43.25V53.8406C43.25 53.0007 42.9163 52.1953 42.3225 51.6014C41.7286 51.0075 40.9232 50.6739 40.0833 50.6739H21.0833C20.6634 50.6739 20.2607 50.5071 19.9637 50.2101C19.6668 49.9132 19.5 49.5105 19.5 49.0906V36.4203C19.5 36.0004 19.6668 35.5977 19.9637 35.3007C20.2607 35.0038 20.6634 34.837 21.0833 34.837H41.6667C43.8716 34.7933 46.0545 35.2821 48.0303 36.2619C50.006 37.2417 51.7163 38.6836 53.016 40.4652L55.6507 38.7087C54.4352 36.9653 52.8881 35.4784 51.0978 34.3331C49.3076 33.1878 47.3092 32.4064 45.2168 32.0337Z" fill="url(#paint0_radial_13_912)"/>
<path d="M61.4583 14.2536C60.5803 14.2594 59.7166 14.476 58.9398 14.8853C59.2954 13.1464 58.9889 11.3375 58.0803 9.81288C57.1718 8.28826 55.7267 7.15783 54.0281 6.64308C52.3296 6.12833 50.5001 6.26636 48.898 7.03013C47.2959 7.79389 46.0368 9.12834 45.3673 10.772C44.6189 9.63388 43.5232 8.76756 42.2432 8.30179C40.9631 7.83602 39.5669 7.79566 38.2621 8.18671C36.9573 8.57775 35.8134 9.37933 35.0005 10.4723C34.1876 11.5654 33.749 12.8915 33.7499 14.2536C33.7499 14.4543 33.7907 14.6436 33.8091 14.8395C33.0537 14.4591 32.2206 14.2586 31.3749 14.2536C30.6472 14.2536 29.9266 14.397 29.2542 14.6755C28.5819 14.954 27.971 15.3622 27.4564 15.8767C26.9418 16.3913 26.5336 17.0022 26.2551 17.6746C25.9766 18.3469 25.8333 19.0676 25.8333 19.7953C25.8333 20.523 25.9766 21.2437 26.2551 21.916C26.5336 22.5884 26.9418 23.1993 27.4564 23.7139C27.971 24.2284 28.5819 24.6366 29.2542 24.9151C29.9266 25.1936 30.6472 25.337 31.3749 25.337H61.4583C62.928 25.337 64.3375 24.7531 65.3768 23.7139C66.4161 22.6746 66.9999 21.265 66.9999 19.7953C66.9999 18.3256 66.4161 16.916 65.3768 15.8768C64.3375 14.8375 62.928 14.2536 61.4583 14.2536Z" fill="#33C481"/>
<path d="M28.2083 33.2536C27.3476 33.2591 26.5003 33.4671 25.735 33.8608C25.5079 32.3699 24.754 31.0097 23.6102 30.0269C22.4663 29.0441 21.0081 28.5037 19.5 28.5037C17.9919 28.5037 16.5337 29.0441 15.3898 30.0269C14.246 31.0097 13.4921 32.3699 13.265 33.8608C12.4997 33.4671 11.6524 33.2591 10.7917 33.2536C9.32193 33.2536 7.91238 33.8375 6.87312 34.8768C5.83385 35.916 5.25 37.3256 5.25 38.7953C5.25 40.265 5.83385 41.6746 6.87312 42.7139C7.91238 43.7531 9.32193 44.337 10.7917 44.337H28.2083C29.6781 44.337 31.0876 43.7531 32.1269 42.7139C33.1661 41.6746 33.75 40.265 33.75 38.7953C33.75 37.3256 33.1661 35.916 32.1269 34.8768C31.0876 33.8375 29.6781 33.2536 28.2083 33.2536Z" fill="#33C481"/>
<path d="M59.8749 33.2537C58.265 33.2553 56.7031 33.8028 55.4444 34.8067C54.1858 35.8105 53.3046 37.2115 52.9449 38.7807C52.3363 38.2704 51.6136 37.9144 50.8381 37.743C50.0626 37.5715 49.2571 37.5896 48.4901 37.7957C47.7231 38.0019 47.0171 38.39 46.432 38.9271C45.8469 39.4642 45.4 40.1345 45.1292 40.8812C44.8584 41.6279 44.7716 42.4288 44.8764 43.2161C44.9811 44.0035 45.2741 44.7539 45.7307 45.4038C46.1872 46.0538 46.7938 46.584 47.4989 46.9495C48.204 47.3151 48.9869 47.5052 49.7812 47.5037H59.8749C61.7646 47.5037 63.5769 46.753 64.9131 45.4168C66.2492 44.0806 66.9999 42.2683 66.9999 40.3787C66.9999 38.489 66.2492 36.6767 64.9131 35.3405C63.5769 34.0043 61.7646 33.2537 59.8749 33.2537Z" fill="#33C481"/>
<path d="M60.2866 61.9156C57.8561 64.912 54.7714 67.3117 51.2692 68.9304C47.767 70.5492 43.9404 71.3439 40.0833 71.2537C36.2261 71.3439 32.3996 70.5492 28.8974 68.9304C25.3952 67.3117 22.3104 64.912 19.8799 61.9156C19.2783 61.2031 19.3891 60.174 20.2916 60.174H59.8749C60.7774 60.174 60.8883 61.2031 60.2866 61.9156Z" fill="url(#paint1_linear_13_912)"/>
<defs>
<radialGradient id="paint0_radial_13_912" cx="0" cy="0" r="1" gradientUnits="userSpaceOnUse" gradientTransform="translate(31.2626 40.2388) scale(49.6913)">
<stop stop-color="#C26715"/>
<stop offset="0.508" stop-color="#B85515"/>
<stop offset="1" stop-color="#AD3F16"/>
</radialGradient>
<linearGradient id="paint1_linear_13_912" x1="40.0833" y1="59.7946" x2="40.0833" y2="73.5902" gradientUnits="userSpaceOnUse">
<stop stop-color="#2AA4F4"/>
<stop offset="1" stop-color="#007AD9"/>
</linearGradient>
</defs>
</svg>
