<svg width="48" height="48" viewBox="0 0 48 48" fill="none" xmlns="http://www.w3.org/2000/svg">
<path d="M4.7998 29.8C4.7998 29.2477 5.24752 28.8 5.7998 28.8H12.4798V40H4.7998V29.8Z" fill="#58CC02"/>
<path d="M12.48 25C12.48 24.4477 12.9277 24 13.48 24H20.16V40H12.48V25Z" fill="#53BF03"/>
<path d="M20.1602 18.6C20.1602 18.0477 20.6079 17.6 21.1602 17.6H27.8402V40H20.1602V18.6Z" fill="#DBE0E2"/>
<path d="M27.8398 13.8C27.8398 13.2477 28.2876 12.8 28.8398 12.8H35.5198V40H27.8398V13.8Z" fill="#E9EBED"/>
<path d="M35.52 9C35.52 8.44772 35.9677 8 36.52 8H42.2C42.7523 8 43.2 8.44772 43.2 9V40H35.52V9Z" fill="#F7F8F9"/>
</svg>
