<svg width="30" height="30" viewBox="0 0 30 30" fill="none" xmlns="http://www.w3.org/2000/svg">
<g clip-path="url(#clip0_100_249)">
<path d="M22.5 3.75V26.25C22.5 26.4142 22.4677 26.5767 22.4049 26.7284C22.3421 26.8801 22.2501 27.0179 22.134 27.134C22.0179 27.2501 21.8801 27.3421 21.7284 27.4049C21.5767 27.4677 21.4142 27.5 21.25 27.5H18.125V2.5H21.25C21.4142 2.49995 21.5767 2.53226 21.7284 2.59506C21.8801 2.65786 22.0179 2.74993 22.134 2.86602C22.2501 2.9821 22.3421 3.11992 22.4049 3.27159C22.4677 3.42327 22.5 3.58584 22.5 3.75V3.75Z" fill="#1783BD"/>
<path d="M21.25 3.75V26.25C21.25 26.4142 21.2177 26.5767 21.1549 26.7284C21.0921 26.8801 21.0001 27.0179 20.884 27.134C20.7679 27.2501 20.6301 27.3421 20.4784 27.4049C20.3267 27.4677 20.1642 27.5 20 27.5H16.25V2.5H20C20.1642 2.49995 20.3267 2.53226 20.4784 2.59506C20.6301 2.65786 20.7679 2.74993 20.884 2.86602C21.0001 2.9821 21.0921 3.11992 21.1549 3.27159C21.2177 3.42327 21.25 3.58584 21.25 3.75V3.75Z" fill="url(#paint0_linear_100_249)"/>
<path d="M1.25 3.75V26.25C1.24995 26.4142 1.28226 26.5767 1.34506 26.7284C1.40786 26.8801 1.49993 27.0179 1.61602 27.134C1.7321 27.2501 1.86991 27.3421 2.02159 27.4049C2.17327 27.4677 2.33583 27.5 2.5 27.5H3.75V2.5H2.5C2.33583 2.49995 2.17327 2.53226 2.02159 2.59506C1.86991 2.65786 1.7321 2.74993 1.61602 2.86602C1.49993 2.9821 1.40786 3.11992 1.34506 3.27159C1.28226 3.42327 1.24995 3.58584 1.25 3.75V3.75Z" fill="url(#paint1_linear_100_249)"/>
<path d="M18.75 2.5H3.75V27.5H18.75C18.9142 27.5 19.0767 27.4677 19.2284 27.4049C19.3801 27.3421 19.5179 27.2501 19.634 27.134C19.7501 27.0179 19.8421 26.8801 19.9049 26.7284C19.9677 26.5767 20 26.4142 20 26.25V3.75C20 3.58584 19.9677 3.42327 19.9049 3.27159C19.8421 3.11992 19.7501 2.9821 19.634 2.86602C19.5179 2.74993 19.3801 2.65786 19.2284 2.59506C19.0767 2.53226 18.9142 2.49995 18.75 2.5V2.5Z" fill="url(#paint2_linear_100_249)"/>
<path d="M17.5 5H6.25C5.90482 5 5.625 5.27982 5.625 5.625V6.875C5.625 7.22018 5.90482 7.5 6.25 7.5H17.5C17.8452 7.5 18.125 7.22018 18.125 6.875V5.625C18.125 5.27982 17.8452 5 17.5 5Z" fill="url(#paint3_linear_100_249)"/>
<path opacity="0.05" d="M13.1531 13.6509C13.2161 13.6507 13.2779 13.6679 13.3318 13.7006C13.3857 13.7333 13.4294 13.7802 13.4583 13.8362L14.1086 15.0907L15.41 14.6078C15.4608 14.5888 15.5154 14.5821 15.5693 14.5883C15.6232 14.5946 15.6749 14.6135 15.72 14.6436C15.7651 14.6737 15.8025 14.7141 15.829 14.7614C15.8554 14.8087 15.8703 14.8617 15.8723 14.9159L15.9268 16.2919L17.2189 16.5314C17.2756 16.5419 17.3288 16.5666 17.3735 16.6031C17.4182 16.6397 17.453 16.6869 17.4746 16.7405C17.4962 16.7941 17.5039 16.8522 17.4971 16.9095C17.4902 16.9669 17.469 17.0216 17.4354 17.0685L16.6792 18.125L17.4355 19.1806C17.4691 19.2276 17.4904 19.2822 17.4972 19.3396C17.5041 19.3969 17.4964 19.4551 17.4748 19.5087C17.4533 19.5622 17.4185 19.6095 17.3738 19.6461C17.3291 19.6826 17.2759 19.7073 17.2191 19.7179L15.9272 19.9577L15.873 21.3336C15.871 21.3878 15.8562 21.4407 15.8297 21.4881C15.8032 21.5354 15.7659 21.5758 15.7208 21.6059C15.6756 21.636 15.624 21.655 15.5701 21.6612C15.5162 21.6675 15.4616 21.6608 15.4108 21.6418L14.1088 21.1592L13.4587 22.4137C13.4345 22.4604 13.3999 22.501 13.3576 22.5322C13.3152 22.5634 13.2663 22.5844 13.2145 22.5937C13.1628 22.603 13.1096 22.6002 13.0591 22.5857C13.0085 22.5711 12.962 22.5451 12.9231 22.5097L11.875 21.5566L10.8272 22.5097C10.7883 22.5451 10.7418 22.5711 10.6912 22.5857C10.6407 22.6002 10.5875 22.603 10.5357 22.5937C10.484 22.5845 10.435 22.5634 10.3927 22.5322C10.3504 22.501 10.3158 22.4605 10.2916 22.4138L9.64134 21.1593L8.3399 21.6422C8.28909 21.6612 8.23449 21.6679 8.1806 21.6616C8.12672 21.6554 8.07508 21.6365 8.02994 21.6064C7.9848 21.5763 7.94745 21.5359 7.92098 21.4886C7.8945 21.4412 7.87964 21.3883 7.87764 21.3341L7.82314 19.9581L6.53109 19.7186C6.47431 19.7081 6.4211 19.6834 6.3764 19.6469C6.33169 19.6103 6.29694 19.5631 6.27535 19.5095C6.25376 19.4559 6.24603 19.3978 6.25289 19.3405C6.25974 19.2831 6.28095 19.2284 6.31456 19.1815L7.07071 18.125L6.31446 17.0694C6.28082 17.0224 6.25957 16.9677 6.25269 16.9104C6.2458 16.8531 6.2535 16.7949 6.27508 16.7413C6.29665 16.6878 6.3314 16.6405 6.3761 16.6039C6.4208 16.5674 6.47401 16.5427 6.53079 16.5321L7.82276 16.2923L7.87694 14.9164C7.87893 14.8622 7.89377 14.8093 7.92023 14.7619C7.9467 14.7146 7.98403 14.6742 8.02916 14.6441C8.07428 14.614 8.12591 14.595 8.1798 14.5888C8.23368 14.5825 8.28828 14.5892 8.33909 14.6082L9.64114 15.0908L10.2912 13.8363C10.3154 13.7896 10.35 13.749 10.3923 13.7178C10.4347 13.6866 10.4836 13.6656 10.5354 13.6563C10.5871 13.647 10.6403 13.6498 10.6909 13.6643C10.7414 13.6789 10.7879 13.7049 10.8268 13.7403L11.875 14.6934L12.9228 13.7403C12.9856 13.6827 13.0678 13.6508 13.1531 13.6509L13.1531 13.6509ZM13.1531 13.0259C12.9123 13.0258 12.6801 13.1157 12.5022 13.2779L11.8749 13.8485L11.2473 13.2778C11.1375 13.178 11.0063 13.1047 10.8638 13.0637C10.7212 13.0226 10.5711 13.0149 10.4251 13.0411C10.2791 13.0673 10.141 13.1266 10.0216 13.2146C9.90219 13.3026 9.80459 13.4169 9.73635 13.5486L9.3404 14.3127L8.55631 14.0221C8.41294 13.9688 8.25898 13.9502 8.10706 13.968C7.95513 13.9857 7.80958 14.0392 7.68234 14.1241C7.55509 14.209 7.44978 14.3228 7.37505 14.4562C7.30032 14.5897 7.2583 14.739 7.25242 14.8918L7.21789 15.7689L6.41674 15.9176C6.25654 15.9474 6.10642 16.017 5.98031 16.1202C5.8542 16.2234 5.75618 16.3567 5.69532 16.5079C5.63445 16.659 5.61273 16.8231 5.63214 16.9849C5.65156 17.1467 5.7115 17.3009 5.80641 17.4334L6.30199 18.1252L5.80633 18.8177C5.71151 18.9502 5.65165 19.1045 5.63231 19.2662C5.61297 19.428 5.63476 19.592 5.69567 19.7432C5.75658 19.8943 5.85463 20.0276 5.98076 20.1307C6.10688 20.2338 6.25699 20.3035 6.41718 20.3331L7.21838 20.4817L7.25313 21.3588C7.25904 21.5117 7.30111 21.6609 7.37588 21.7944C7.45065 21.9278 7.556 22.0416 7.68327 22.1265C7.81055 22.2113 7.95612 22.2648 8.10806 22.2824C8.26 22.3001 8.41396 22.2815 8.55732 22.2282L9.34072 21.9375L9.73671 22.7014C9.80497 22.8331 9.90258 22.9474 10.022 23.0354C10.1415 23.1234 10.2795 23.1828 10.4256 23.2089C10.5716 23.2351 10.7217 23.2273 10.8642 23.1862C11.0068 23.1452 11.138 23.0719 11.2477 22.9721L11.875 22.4014L12.5026 22.9721C12.6124 23.072 12.7436 23.1452 12.8862 23.1863C13.0287 23.2273 13.1788 23.2351 13.3248 23.2089C13.4708 23.1827 13.6089 23.1233 13.7283 23.0353C13.8477 22.9473 13.9453 22.833 14.0136 22.7013L14.4095 21.9373L15.1936 22.2279C15.337 22.2812 15.4909 22.2997 15.6429 22.282C15.7948 22.2643 15.9403 22.2108 16.0676 22.1259C16.1948 22.041 16.3001 21.9272 16.3749 21.7937C16.4496 21.6603 16.4916 21.511 16.4975 21.3582L16.532 20.4811L17.3332 20.3324C17.4934 20.3026 17.6435 20.233 17.7696 20.1298C17.8957 20.0266 17.9937 19.8933 18.0546 19.7421C18.1155 19.591 18.1372 19.4269 18.1178 19.2651C18.0984 19.1033 18.0384 18.9491 17.9435 18.8166L17.4479 18.1248L17.9436 17.4323C18.0384 17.2998 18.0983 17.1455 18.1176 16.9838C18.137 16.822 18.1152 16.6579 18.0543 16.5068C17.9933 16.3557 17.8953 16.2224 17.7692 16.1193C17.643 16.0162 17.4929 15.9465 17.3327 15.9169L16.5315 15.7683L16.4968 14.8912C16.4909 14.7383 16.4488 14.5891 16.374 14.4556C16.2993 14.3222 16.1939 14.2084 16.0667 14.1235C15.9394 14.0387 15.7938 13.9852 15.6419 13.9676C15.4899 13.9499 15.336 13.9685 15.1926 14.0218L14.4092 14.3124L14.0132 13.5486C13.9318 13.3908 13.8084 13.2585 13.6567 13.1662C13.5049 13.074 13.3306 13.0255 13.1531 13.0259V13.0259Z" fill="black"/>
<path opacity="0.07" d="M13.1531 13.6509C13.2161 13.6507 13.278 13.6679 13.3318 13.7006C13.3857 13.7333 13.4295 13.7802 13.4584 13.8362L14.1086 15.0907L15.4101 14.6078C15.4609 14.5888 15.5155 14.5821 15.5694 14.5883C15.6232 14.5946 15.6749 14.6135 15.72 14.6436C15.7652 14.6737 15.8025 14.714 15.829 14.7614C15.8555 14.8087 15.8703 14.8617 15.8723 14.9159L15.9268 16.2919L17.2189 16.5314C17.2757 16.5419 17.3289 16.5666 17.3736 16.6031C17.4183 16.6397 17.453 16.6869 17.4746 16.7405C17.4962 16.794 17.5039 16.8522 17.4971 16.9095C17.4902 16.9669 17.469 17.0215 17.4354 17.0685L16.6792 18.125L17.4355 19.1806C17.4691 19.2276 17.4904 19.2822 17.4973 19.3396C17.5041 19.3969 17.4964 19.4551 17.4749 19.5086C17.4533 19.5622 17.4185 19.6095 17.3738 19.6461C17.3291 19.6826 17.2759 19.7073 17.2192 19.7178L15.9272 19.9577L15.873 21.3336C15.871 21.3878 15.8562 21.4407 15.8297 21.4881C15.8032 21.5354 15.7659 21.5758 15.7208 21.6059C15.6757 21.636 15.624 21.655 15.5701 21.6612C15.5163 21.6675 15.4617 21.6608 15.4109 21.6418L14.1088 21.1592L13.4587 22.4137C13.4345 22.4604 13.3999 22.5009 13.3576 22.5321C13.3153 22.5633 13.2663 22.5844 13.2146 22.5937C13.1628 22.603 13.1096 22.6002 13.0591 22.5857C13.0085 22.5711 12.962 22.5451 12.9231 22.5097L11.875 21.5566L10.8272 22.5097C10.7883 22.5451 10.7418 22.5711 10.6913 22.5857C10.6407 22.6002 10.5875 22.603 10.5358 22.5937C10.484 22.5844 10.4351 22.5634 10.3927 22.5322C10.3504 22.501 10.3158 22.4605 10.2916 22.4138L9.64136 21.1593L8.33992 21.6422C8.28911 21.6612 8.23451 21.6679 8.18063 21.6616C8.12674 21.6554 8.0751 21.6365 8.02996 21.6064C7.98482 21.5763 7.94748 21.5359 7.921 21.4886C7.89452 21.4412 7.87966 21.3883 7.87766 21.3341L7.82316 19.9581L6.53111 19.7186C6.47433 19.7081 6.42112 19.6834 6.37642 19.6468C6.33171 19.6103 6.29696 19.563 6.27537 19.5095C6.25378 19.4559 6.24605 19.3978 6.25291 19.3404C6.25976 19.2831 6.28098 19.2284 6.31458 19.1815L7.07073 18.125L6.31448 17.0694C6.28084 17.0224 6.25959 16.9677 6.25271 16.9104C6.24582 16.8531 6.25353 16.7949 6.2751 16.7413C6.29667 16.6878 6.33142 16.6405 6.37612 16.6039C6.42082 16.5674 6.47403 16.5427 6.53081 16.5321L7.82278 16.2923L7.87696 14.9164C7.87895 14.8622 7.89379 14.8092 7.92026 14.7619C7.94672 14.7145 7.98405 14.6742 8.02918 14.6441C8.0743 14.614 8.12593 14.595 8.17982 14.5888C8.2337 14.5825 8.2883 14.5892 8.33911 14.6081L9.64116 15.0907L10.2913 13.8362C10.3154 13.7896 10.35 13.749 10.3924 13.7178C10.4347 13.6866 10.4836 13.6656 10.5354 13.6563C10.5872 13.647 10.6404 13.6498 10.6909 13.6643C10.7414 13.6789 10.7879 13.7049 10.8268 13.7403L11.875 14.6934L12.9228 13.7403C12.9857 13.6827 13.0678 13.6508 13.1531 13.6509L13.1531 13.6509ZM13.1531 13.3384C12.9901 13.3383 12.8329 13.3992 12.7125 13.5091L11.8749 14.2709L11.037 13.509C10.9627 13.4414 10.8739 13.3918 10.7773 13.364C10.6808 13.3362 10.5791 13.331 10.4802 13.3487C10.3813 13.3664 10.2879 13.4066 10.207 13.4662C10.1261 13.5258 10.06 13.6032 10.0138 13.6924L9.49076 14.7017L8.4477 14.3151C8.35061 14.279 8.24633 14.2664 8.14342 14.2783C8.04052 14.2903 7.94192 14.3266 7.85574 14.384C7.76955 14.4415 7.69823 14.5186 7.64764 14.609C7.59704 14.6995 7.56861 14.8006 7.56469 14.9041L7.52031 16.0306L6.47375 16.2248C6.36526 16.245 6.2636 16.2922 6.1782 16.362C6.09279 16.4319 6.02641 16.5222 5.98519 16.6246C5.94398 16.7269 5.92927 16.838 5.94242 16.9476C5.95557 17.0572 5.99616 17.1616 6.06043 17.2513L6.68635 18.125L6.06043 18.9996C5.99622 19.0893 5.95569 19.1938 5.94259 19.3033C5.92949 19.4129 5.94425 19.524 5.9855 19.6263C6.02674 19.7286 6.09315 19.8189 6.17856 19.8887C6.26397 19.9586 6.36563 20.0057 6.47411 20.0259L7.52075 20.2199L7.56537 21.3464C7.56933 21.4499 7.59779 21.5511 7.64841 21.6414C7.69904 21.7318 7.77039 21.8089 7.85659 21.8664C7.9428 21.9239 8.04141 21.9601 8.14432 21.972C8.24724 21.984 8.35152 21.9713 8.4486 21.9352L9.49101 21.5484L10.0141 22.5576C10.0604 22.6468 10.1265 22.7242 10.2073 22.7838C10.2882 22.8434 10.3817 22.8836 10.4806 22.9013C10.5795 22.919 10.6812 22.9138 10.7777 22.886C10.8743 22.8581 10.9631 22.8085 11.0374 22.7409L11.875 21.979L12.7129 22.7409C12.7872 22.8085 12.876 22.8582 12.9726 22.886C13.0691 22.9138 13.1708 22.919 13.2697 22.9013C13.3685 22.8836 13.462 22.8433 13.5429 22.7837C13.6238 22.7241 13.6899 22.6468 13.7361 22.5575L14.2591 21.5483L15.3022 21.9349C15.3993 21.971 15.5036 21.9836 15.6065 21.9716C15.7094 21.9596 15.808 21.9234 15.8942 21.8659C15.9803 21.8084 16.0517 21.7313 16.1023 21.6409C16.1529 21.5505 16.1813 21.4494 16.1852 21.3459L16.2296 20.2194L17.2761 20.0251C17.3846 20.005 17.4863 19.9578 17.5717 19.8879C17.6571 19.818 17.7235 19.7277 17.7647 19.6254C17.8059 19.523 17.8206 19.4119 17.8075 19.3024C17.7943 19.1928 17.7537 19.0883 17.6895 18.9986L17.0635 18.1249L17.6895 17.2504C17.7537 17.1607 17.7942 17.0562 17.8073 16.9467C17.8204 16.8371 17.8056 16.726 17.7644 16.6237C17.7231 16.5213 17.6567 16.4311 17.5713 16.3612C17.4859 16.2914 17.3843 16.2442 17.2758 16.2241L16.2291 16.0301L16.1845 14.9036C16.1806 14.8 16.1521 14.6989 16.1015 14.6085C16.0509 14.5181 15.9795 14.441 15.8933 14.3836C15.8071 14.3261 15.7085 14.2899 15.6056 14.278C15.5027 14.266 15.3984 14.2786 15.3013 14.3148L14.2589 14.7016L13.7358 13.6924C13.6806 13.5855 13.597 13.4959 13.4942 13.4334C13.3914 13.371 13.2734 13.3381 13.1531 13.3384H13.1531Z" fill="black"/>
<path d="M16.6792 18.125L17.4353 17.0685C17.4689 17.0216 17.4902 16.9669 17.497 16.9095C17.5039 16.8522 17.4961 16.7941 17.4746 16.7405C17.453 16.6869 17.4182 16.6397 17.3735 16.6031C17.3288 16.5666 17.2756 16.5419 17.2188 16.5314L15.9268 16.2919L15.8723 14.9159C15.8701 14.8618 15.8552 14.8089 15.8286 14.7616C15.8021 14.7143 15.7648 14.674 15.7197 14.644C15.6746 14.6139 15.623 14.595 15.5692 14.5887C15.5154 14.5824 15.4608 14.5889 15.41 14.6078L14.1086 15.0907L13.4583 13.8362C13.4341 13.7895 13.3995 13.749 13.3572 13.7178C13.3148 13.6866 13.2659 13.6656 13.2141 13.6563C13.1624 13.647 13.1092 13.6498 13.0587 13.6643C13.0081 13.6789 12.9616 13.7049 12.9227 13.7403L11.8749 14.6934L10.8268 13.7403C10.7879 13.7049 10.7414 13.6789 10.6908 13.6644C10.6403 13.6498 10.5871 13.6471 10.5354 13.6564C10.4836 13.6656 10.4347 13.6867 10.3923 13.7179C10.35 13.7491 10.3154 13.7896 10.2912 13.8363L9.64112 15.0907L8.33908 14.6081C8.28826 14.5893 8.23371 14.5828 8.17988 14.5891C8.12605 14.5954 8.07449 14.6143 8.0294 14.6444C7.98431 14.6745 7.94699 14.7148 7.92049 14.7621C7.89399 14.8094 7.87906 14.8622 7.87693 14.9164L7.82274 16.2923L6.53078 16.5321C6.474 16.5426 6.42079 16.5673 6.3761 16.6039C6.3314 16.6405 6.29666 16.6877 6.27508 16.7413C6.25351 16.7949 6.24581 16.853 6.25269 16.9104C6.25957 16.9677 6.28081 17.0224 6.31444 17.0693L7.07069 18.125L6.31455 19.1814C6.28094 19.2284 6.25972 19.2831 6.25287 19.3404C6.24601 19.3977 6.25373 19.4559 6.27532 19.5094C6.29691 19.563 6.33166 19.6102 6.37637 19.6468C6.42107 19.6834 6.47428 19.708 6.53106 19.7186L7.82311 19.9581L7.87762 21.334C7.87977 21.3882 7.89471 21.4411 7.92123 21.4883C7.94775 21.5356 7.98509 21.5759 8.03018 21.606C8.07528 21.636 8.12686 21.655 8.18069 21.6613C8.23452 21.6676 8.28908 21.661 8.33989 21.6422L9.64131 21.1593L10.2916 22.4138C10.3158 22.4604 10.3504 22.5009 10.3927 22.5321C10.435 22.5633 10.484 22.5844 10.5357 22.5936C10.5875 22.6029 10.6407 22.6001 10.6912 22.5856C10.7417 22.571 10.7882 22.5451 10.8271 22.5097L11.8749 21.5566L12.9231 22.5097C12.962 22.5451 13.0085 22.5711 13.059 22.5856C13.1096 22.6002 13.1628 22.6029 13.2145 22.5936C13.2663 22.5843 13.3152 22.5633 13.3575 22.5321C13.3999 22.5009 13.4345 22.4604 13.4586 22.4137L14.1088 21.1592L15.4108 21.6418C15.4616 21.6607 15.5162 21.6672 15.57 21.6609C15.6238 21.6546 15.6754 21.6356 15.7205 21.6055C15.7656 21.5755 15.8029 21.5351 15.8294 21.4879C15.8559 21.4406 15.8708 21.3877 15.8729 21.3336L15.9271 19.9577L17.2191 19.7179C17.2759 19.7073 17.3291 19.6826 17.3738 19.646C17.4185 19.6095 17.4532 19.5622 17.4748 19.5086C17.4964 19.4551 17.5041 19.3969 17.4972 19.3396C17.4903 19.2822 17.4691 19.2276 17.4354 19.1806L16.6792 18.125Z" fill="url(#paint4_linear_100_249)"/>
<path d="M28.8728 29.2188H14.8772C14.4703 29.2188 14.1406 28.7526 14.1406 28.1771V13.0729C14.1406 12.4974 14.4703 12.0312 14.8772 12.0312H28.8728C29.2797 12.0312 29.6094 12.4974 29.6094 13.0729V28.1771C29.6094 28.7526 29.2797 29.2188 28.8728 29.2188Z" fill="url(#paint5_radial_100_249)"/>
<path d="M27.8906 18.4766H27.0312C26.9173 18.4765 26.808 18.4312 26.7275 18.3507C26.6469 18.2701 26.6016 18.1608 26.6016 18.0469V17.1875C26.6016 17.0736 26.6469 16.9643 26.7275 16.8837C26.808 16.8031 26.9173 16.7579 27.0312 16.7578H27.8906C28.0046 16.7579 28.1138 16.8031 28.1944 16.8837C28.275 16.9643 28.3203 17.0736 28.3203 17.1875V18.0469C28.3203 18.1608 28.275 18.2701 28.1944 18.3507C28.1138 18.4312 28.0046 18.4765 27.8906 18.4766V18.4766Z" fill="white"/>
<path d="M27.8906 15.4688H27.0312C26.9173 15.4687 26.808 15.4234 26.7275 15.3429C26.6469 15.2623 26.6016 15.153 26.6016 15.0391V14.1797C26.6016 14.0657 26.6469 13.9565 26.7275 13.8759C26.808 13.7953 26.9173 13.75 27.0312 13.75H27.8906C28.0046 13.75 28.1138 13.7953 28.1944 13.8759C28.275 13.9565 28.3203 14.0657 28.3203 14.1797V15.0391C28.3203 15.153 28.275 15.2623 28.1944 15.3429C28.1138 15.4234 28.0046 15.4687 27.8906 15.4688V15.4688Z" fill="white"/>
<path d="M27.8906 21.4844H27.0312C26.9173 21.4843 26.808 21.4391 26.7275 21.3585C26.6469 21.2779 26.6016 21.1686 26.6016 21.0547V20.1953C26.6016 20.0814 26.6469 19.9721 26.7275 19.8915C26.808 19.8109 26.9173 19.7657 27.0312 19.7656H27.8906C28.0046 19.7657 28.1138 19.8109 28.1944 19.8915C28.275 19.9721 28.3203 20.0814 28.3203 20.1953V21.0547C28.3203 21.1686 28.275 21.2779 28.1944 21.3585C28.1138 21.4391 28.0046 21.4843 27.8906 21.4844V21.4844Z" fill="white"/>
<path d="M27.8906 24.4922H27.0312C26.9173 24.4921 26.808 24.4469 26.7275 24.3663C26.6469 24.2857 26.6016 24.1764 26.6016 24.0625V23.2031C26.6016 23.0892 26.6469 22.9799 26.7275 22.8993C26.808 22.8188 26.9173 22.7735 27.0312 22.7734H27.8906C28.0046 22.7735 28.1138 22.8188 28.1944 22.8993C28.275 22.9799 28.3203 23.0892 28.3203 23.2031V24.0625C28.3203 24.1764 28.275 24.2857 28.1944 24.3663C28.1138 24.4469 28.0046 24.4921 27.8906 24.4922Z" fill="white"/>
<path d="M27.8906 27.5H27.0312C26.9173 27.5 26.808 27.4547 26.7275 27.3741C26.6469 27.2935 26.6016 27.1843 26.6016 27.0703V26.2109C26.6016 26.097 26.6469 25.9877 26.7275 25.9071C26.808 25.8266 26.9173 25.7813 27.0312 25.7812H27.8906C28.0046 25.7813 28.1138 25.8266 28.1944 25.9071C28.275 25.9877 28.3203 26.097 28.3203 26.2109V27.0703C28.3203 27.1843 28.275 27.2935 28.1944 27.3741C28.1138 27.4547 28.0046 27.5 27.8906 27.5V27.5Z" fill="white"/>
<path d="M16.7188 18.4766H15.8594C15.7454 18.4765 15.6362 18.4312 15.5556 18.3507C15.475 18.2701 15.4297 18.1608 15.4297 18.0469V17.1875C15.4297 17.0736 15.475 16.9643 15.5556 16.8837C15.6362 16.8031 15.7454 16.7579 15.8594 16.7578H16.7188C16.8327 16.7579 16.942 16.8031 17.0225 16.8837C17.1031 16.9643 17.1484 17.0736 17.1484 17.1875V18.0469C17.1484 18.1608 17.1031 18.2701 17.0225 18.3507C16.942 18.4312 16.8327 18.4765 16.7188 18.4766Z" fill="white"/>
<path d="M16.7188 15.4688H15.8594C15.7454 15.4687 15.6362 15.4234 15.5556 15.3429C15.475 15.2623 15.4297 15.153 15.4297 15.0391V14.1797C15.4297 14.0657 15.475 13.9565 15.5556 13.8759C15.6362 13.7953 15.7454 13.75 15.8594 13.75H16.7188C16.8327 13.75 16.942 13.7953 17.0225 13.8759C17.1031 13.9565 17.1484 14.0657 17.1484 14.1797V15.0391C17.1484 15.153 17.1031 15.2623 17.0225 15.3429C16.942 15.4234 16.8327 15.4687 16.7188 15.4688Z" fill="white"/>
<path d="M16.7188 21.4844H15.8594C15.7454 21.4843 15.6362 21.4391 15.5556 21.3585C15.475 21.2779 15.4297 21.1686 15.4297 21.0547V20.1953C15.4297 20.0814 15.475 19.9721 15.5556 19.8915C15.6362 19.8109 15.7454 19.7657 15.8594 19.7656H16.7188C16.8327 19.7657 16.942 19.8109 17.0225 19.8915C17.1031 19.9721 17.1484 20.0814 17.1484 20.1953V21.0547C17.1484 21.1686 17.1031 21.2779 17.0225 21.3585C16.942 21.4391 16.8327 21.4843 16.7188 21.4844Z" fill="white"/>
<path d="M16.7188 24.4922H15.8594C15.7454 24.4921 15.6362 24.4469 15.5556 24.3663C15.475 24.2857 15.4297 24.1764 15.4297 24.0625V23.2031C15.4297 23.0892 15.475 22.9799 15.5556 22.8993C15.6362 22.8188 15.7454 22.7735 15.8594 22.7734H16.7188C16.8327 22.7735 16.942 22.8188 17.0225 22.8993C17.1031 22.9799 17.1484 23.0892 17.1484 23.2031V24.0625C17.1484 24.1764 17.1031 24.2857 17.0225 24.3663C16.942 24.4469 16.8327 24.4921 16.7188 24.4922Z" fill="white"/>
<path d="M16.7188 27.5H15.8594C15.7454 27.5 15.6362 27.4547 15.5556 27.3741C15.475 27.2935 15.4297 27.1843 15.4297 27.0703V26.2109C15.4297 26.097 15.475 25.9877 15.5556 25.9071C15.6362 25.8266 15.7454 25.7813 15.8594 25.7812H16.7188C16.8327 25.7813 16.942 25.8266 17.0225 25.9071C17.1031 25.9877 17.1484 26.097 17.1484 26.2109V27.0703C17.1484 27.1843 17.1031 27.2935 17.0225 27.3741C16.942 27.4547 16.8327 27.5 16.7188 27.5V27.5Z" fill="white"/>
<path opacity="0.05" d="M20.0804 17.4024C20.1499 17.4025 20.2177 17.4234 20.2753 17.4623L24.579 20.3313C24.6274 20.3636 24.6671 20.4072 24.6945 20.4585C24.7219 20.5097 24.7363 20.5669 24.7363 20.625C24.7363 20.6832 24.7219 20.7404 24.6945 20.7916C24.6671 20.8428 24.6274 20.8865 24.579 20.9187L20.2753 23.7878C20.2178 23.8266 20.15 23.8475 20.0806 23.8476C20.0341 23.8477 19.9881 23.8386 19.9451 23.8208C19.9022 23.8031 19.8631 23.777 19.8302 23.7442C19.7973 23.7113 19.7712 23.6723 19.7535 23.6293C19.7357 23.5864 19.7265 23.5403 19.7266 23.4938V17.7558C19.7265 17.7093 19.7357 17.6633 19.7534 17.6204C19.7712 17.5775 19.7973 17.5385 19.8302 17.5057C19.863 17.4729 19.902 17.4468 19.945 17.4291C19.9879 17.4114 20.0339 17.4023 20.0804 17.4024V17.4024ZM20.0804 16.9727C19.8727 16.9729 19.6736 17.0554 19.5267 17.2022C19.3798 17.3491 19.2972 17.5481 19.2969 17.7558V23.4938C19.2966 23.6356 19.3349 23.7748 19.4076 23.8965C19.4803 24.0181 19.5848 24.1178 19.7098 24.1847C19.8347 24.2516 19.9756 24.2833 20.1172 24.2763C20.2588 24.2694 20.3958 24.2241 20.5136 24.1453L24.8174 21.2762C24.9246 21.2048 25.0126 21.1079 25.0734 20.9943C25.1342 20.8807 25.166 20.7538 25.166 20.6249C25.166 20.496 25.1341 20.3692 25.0733 20.2556C25.0124 20.1419 24.9245 20.0451 24.8172 19.9737L20.5136 17.1048C20.3855 17.0188 20.2347 16.9729 20.0804 16.9727V16.9727Z" fill="black"/>
<path opacity="0.07" d="M20.0804 17.4024C20.1499 17.4025 20.2177 17.4234 20.2753 17.4623L24.579 20.3313C24.6274 20.3636 24.6671 20.4072 24.6945 20.4585C24.7219 20.5097 24.7363 20.5669 24.7363 20.625C24.7363 20.6832 24.7219 20.7404 24.6945 20.7916C24.6671 20.8428 24.6274 20.8865 24.579 20.9187L20.2753 23.7878C20.2178 23.8266 20.15 23.8475 20.0806 23.8476C20.0341 23.8477 19.9881 23.8386 19.9451 23.8208C19.9022 23.8031 19.8631 23.777 19.8302 23.7442C19.7973 23.7113 19.7712 23.6723 19.7535 23.6293C19.7357 23.5864 19.7265 23.5403 19.7266 23.4938V17.7558C19.7265 17.7093 19.7357 17.6633 19.7534 17.6204C19.7712 17.5775 19.7973 17.5385 19.8302 17.5057C19.863 17.4729 19.902 17.4468 19.945 17.4291C19.9879 17.4114 20.0339 17.4023 20.0804 17.4024V17.4024ZM20.0804 17.1876C19.9297 17.1877 19.7852 17.2476 19.6786 17.3541C19.5719 17.4606 19.5119 17.6051 19.5117 17.7558V23.4938C19.5115 23.5967 19.5392 23.6977 19.5919 23.7861C19.6447 23.8744 19.7204 23.9467 19.8111 23.9953C19.9018 24.0438 20.004 24.0668 20.1068 24.0617C20.2095 24.0567 20.309 24.0238 20.3944 23.9665L24.6982 21.0975C24.776 21.0456 24.8398 20.9754 24.8839 20.893C24.9281 20.8105 24.9511 20.7185 24.9511 20.625C24.9511 20.5315 24.928 20.4394 24.8839 20.357C24.8397 20.2746 24.7759 20.2043 24.6981 20.1525L20.3944 17.2836C20.3016 17.2212 20.1923 17.1878 20.0804 17.1876V17.1876Z" fill="black"/>
<path d="M19.7266 23.4938V17.7558C19.7266 17.6919 19.7439 17.6292 19.7767 17.5744C19.8096 17.5196 19.8567 17.4748 19.913 17.4447C19.9693 17.4145 20.0328 17.4003 20.0966 17.4034C20.1604 17.4065 20.2221 17.4268 20.2753 17.4623L24.579 20.3313C24.6274 20.3635 24.6671 20.4072 24.6945 20.4584C24.7219 20.5097 24.7363 20.5669 24.7363 20.625C24.7363 20.6831 24.7219 20.7404 24.6945 20.7916C24.6671 20.8428 24.6274 20.8865 24.579 20.9187L20.2753 23.7877C20.2221 23.8232 20.1603 23.8435 20.0965 23.8465C20.0327 23.8496 19.9692 23.8353 19.9129 23.8051C19.8566 23.7749 19.8095 23.7301 19.7767 23.6752C19.7439 23.6204 19.7265 23.5577 19.7266 23.4938V23.4938Z" fill="white"/>
</g>
<defs>
<linearGradient id="paint0_linear_100_249" x1="18.7325" y1="15" x2="20.6962" y2="15" gradientUnits="userSpaceOnUse">
<stop offset="0.441" stop-color="#999998"/>
<stop offset="0.653" stop-color="#C1C1C0"/>
<stop offset="0.88" stop-color="#E5E5E5"/>
<stop offset="1" stop-color="#F3F3F3"/>
</linearGradient>
<linearGradient id="paint1_linear_100_249" x1="-0.851249" y1="5.3575" x2="6.68188" y2="25.8781" gradientUnits="userSpaceOnUse">
<stop stop-color="#0176D0"/>
<stop offset="1" stop-color="#16538C"/>
</linearGradient>
<linearGradient id="paint2_linear_100_249" x1="7.3625" y1="3.22125" x2="16.3844" y2="27.7969" gradientUnits="userSpaceOnUse">
<stop stop-color="#33BEF0"/>
<stop offset="1" stop-color="#22A5E2"/>
</linearGradient>
<linearGradient id="paint3_linear_100_249" x1="10.6125" y1="1.63625" x2="13.7919" y2="13.2531" gradientUnits="userSpaceOnUse">
<stop stop-color="#F9F9F9"/>
<stop offset="0.26" stop-color="#F0F1F2"/>
<stop offset="0.678" stop-color="#D9DCDF"/>
<stop offset="1" stop-color="#C2C8CC"/>
</linearGradient>
<linearGradient id="paint4_linear_100_249" x1="10.1162" y1="13.2919" x2="16.4199" y2="30.6125" gradientUnits="userSpaceOnUse">
<stop stop-color="#FED100"/>
<stop offset="1" stop-color="#E38101"/>
</linearGradient>
<radialGradient id="paint5_radial_100_249" cx="0" cy="0" r="1" gradientUnits="userSpaceOnUse" gradientTransform="translate(13.7857 12.0128) scale(22.483)">
<stop offset="0.002" stop-color="#427FDB"/>
<stop offset="0.397" stop-color="#2668CB"/>
<stop offset="0.763" stop-color="#1358BF"/>
<stop offset="1" stop-color="#0C52BB"/>
</radialGradient>
<clipPath id="clip0_100_249">
<rect width="30" height="30" fill="white"/>
</clipPath>
</defs>
</svg>
