<svg width="30" height="30" viewBox="0 0 30 30" fill="none" xmlns="http://www.w3.org/2000/svg">
<path d="M27.5 15C27.5 21.9031 21.9031 27.5 15 27.5C8.09688 27.5 2.5 21.9031 2.5 15C2.5 8.09688 8.09688 2.5 15 2.5C21.9031 2.5 27.5 8.09688 27.5 15Z" fill="url(#paint0_linear_100_307)"/>
<path d="M14.8563 21.5675C15 21.9944 14.8563 22.565 14.7131 22.8519C14.5725 23.2794 14.4294 23.85 14.1425 24.1338C13.8588 24.4206 13.5719 24.5644 13.2881 24.7069C12.8606 24.9906 12.5744 25.5613 12.1469 25.9913C12.1469 26.1319 11.5763 26.8575 11.4331 26.8575C11.38 26.8856 11.3294 26.9113 11.2781 26.9369C10.4356 26.6744 9.63563 26.3194 8.88 25.8938C8.875 25.8788 8.86938 25.8644 8.86375 25.8488C8.86375 25.7056 8.72313 24.8488 8.72313 24.7075C8.58 24.2781 8.43625 23.7075 8.29375 23.28C8.01 22.5663 7.43938 21.8525 7.43938 20.9981C7.43938 20.2838 7.58 19.5731 7.1525 19C6.58188 18.2863 5.44063 18.2863 4.87 17.8588C4.0125 17.2881 3.15813 16.4338 2.73063 15.5763C2.62875 15.4075 2.56 15.2506 2.50375 15.0963C2.50438 15.0631 2.5 15.0325 2.5 15C2.5 11.6525 3.82375 8.61875 5.9675 6.375C7.14 5.42688 9.42688 4.99063 10.815 5.40938C11.2425 5.55 12.7806 6.47 12.7806 6.8975C12.7806 7.04063 12.7806 7.04063 12.6375 7.18438C12.4969 7.3275 12.3531 7.3275 12.21 7.3275C11.7825 7.3275 10.4356 7.01688 10.2919 6.87313C9.43438 6.58688 8.1525 8.44188 8.01 9.0125C7.86688 9.44188 7.86688 10.44 8.58063 10.5831C9.00813 10.5831 10.9644 8.92313 11.2513 8.78C12.3925 8.63938 13.2744 9.6175 13.5613 10.6181C13.9888 11.7594 11.5769 12.8625 10.7194 13.1494C10.4356 13.2925 10.2925 13.0063 10.0056 13.1494C9.29438 13.4331 8.87375 14.0706 8.78875 14.9238C8.71688 15.6456 8.64563 16.3494 8.505 17.0631C8.36188 17.0631 8.06875 17.0613 8.06875 16.9181V16.6344C8.06875 16.2038 7.92563 15.6338 7.49813 15.4906C7.355 15.3506 7.15313 15.5756 7.01 15.5756C6.5825 15.5756 6.15563 15.1463 5.72813 15.4325C5.44125 15.7163 5.1575 16.1463 5.1575 16.5738C5.1575 16.7175 5.1575 16.8606 5.29813 17.0013C5.585 17.1444 5.86875 16.8606 6.15563 17.0013C6.43938 17.0013 6.43938 17.2881 6.43938 17.4306C6.72625 17.8581 7.01 18.4288 7.43938 18.5719H10.2919C10.7194 18.715 11.4331 18.8556 11.7194 19.1425C11.8594 19.4263 11.8594 19.7131 12.0031 19.9969C12.7169 20.7106 13.5713 20.7106 14.4281 20.9969C14.7131 21.14 14.8569 21.2806 14.8563 21.5675ZM22.8275 5.2625C22.7644 5.28125 22.7013 5.29813 22.6394 5.325C22.2119 5.46813 21.0963 7.52813 20.8106 7.955C20.6675 8.09813 20.5269 8.3825 20.6675 8.52563C20.6675 8.66875 20.8106 8.66875 20.9544 8.66875C21.2381 8.81188 21.2769 8.87125 21.5631 9.01188C21.7063 9.01188 21.8469 9.155 21.7063 9.29875C21.7063 9.29875 21.7063 9.44188 21.5631 9.44188C20.8494 10.1556 20.1356 10.7263 19.4238 11.4375C19.28 11.5819 19.1844 11.8688 19.1844 12.0088C19.1844 12.1519 19.28 12.1519 19.28 12.2956C19.28 12.4394 19.1369 12.4388 18.9931 12.5794C18.7094 12.7225 18.4225 12.8663 18.2794 13.0088C18.1388 13.2925 18.2794 13.7225 18.1388 14.0069C17.995 14.7206 17.5656 15.2913 17.2813 16.005C16.9944 16.4325 16.7388 16.8594 16.4519 17.2894C16.4519 17.86 16.3088 18.2875 16.595 18.7144C17.3088 19.7144 18.7375 18.7575 19.7356 19.1844C20.0194 19.3275 20.2638 19.3538 20.4494 19.6119C20.8038 20.1038 20.8469 21.14 20.9906 21.57C21.1313 22.1406 21.2744 22.7113 21.5613 23.2819C21.7031 23.9894 21.9831 24.6963 22.1275 25.2613C25.3725 23.0025 27.5 19.2519 27.5 15C27.5 11.0619 25.6744 7.55375 22.8275 5.2625ZM17.88 5.84813C18.305 5.575 18.5894 5.03063 18.7319 4.6225C18.8713 4.34875 19.2988 3.805 19.1569 3.39688C19.0463 3.18438 18.5963 3.05688 18.2675 2.94625C17.2238 2.66438 16.1325 2.5 15 2.5C14.7125 2.5 14.4306 2.52375 14.1481 2.54312C13.91 2.62562 13.705 2.76563 13.6275 2.98938C13.485 3.67 14.0525 3.53313 14.6188 3.67C14.6188 3.67 14.7613 4.75875 14.7613 4.89563C14.9038 5.57625 14.4769 5.98438 14.4769 6.66313C14.4769 7.07313 14.4769 7.75375 14.7613 8.02563H14.9038C15.0463 8.02563 15.1856 7.88875 15.4706 7.755C15.8956 7.48125 16.3225 7.07438 16.7469 6.80063C17.1713 6.52938 17.5956 6.11938 17.88 5.84813Z" fill="url(#paint1_linear_100_307)"/>
<path opacity="0.05" d="M16.3675 20.7344C16.0525 20.7344 15.7613 20.5781 15.5875 20.3163L14.7413 19.0475C14.3344 18.9944 13.9575 18.81 13.6675 18.52C13.3775 18.2306 13.1938 17.8544 13.14 17.4463L11.87 16.6C11.635 16.4425 11.4844 16.1919 11.4569 15.9113C11.4294 15.6313 11.5282 15.3563 11.7275 15.1569L12.0613 14.8231C12.2975 14.5869 12.6113 14.4569 12.945 14.4569C13.0794 14.4569 13.2125 14.4788 13.3407 14.5219L14.5969 14.94L15.6044 13.9313L12.0025 11.0506C11.795 10.8838 11.6675 10.6356 11.6525 10.37C11.6369 10.105 11.7363 9.84376 11.9257 9.65501L12.2757 9.30563C12.5125 9.06938 12.8263 8.93939 13.16 8.93939C13.3138 8.93939 13.4644 8.96751 13.6088 9.02251L18.5957 10.9406L21.1813 8.35563C21.5357 8.00188 22.0063 7.80688 22.5069 7.80688C23.0082 7.80688 23.4788 8.00188 23.8332 8.35563C24.1863 8.70939 24.3813 9.18001 24.3813 9.68126C24.3813 10.1825 24.1863 10.6538 23.8332 11.0075L21.2469 13.5931L23.1657 18.58C23.3425 19.0413 23.2307 19.5644 22.8825 19.9125L22.5325 20.2625C22.355 20.44 22.1194 20.5369 21.8694 20.5369C21.5832 20.5369 21.3163 20.4088 21.1375 20.1856L18.2563 16.5831L17.2482 17.5913L17.6669 18.8469C17.8169 19.2988 17.7019 19.7888 17.365 20.1263L17.0313 20.46C16.8544 20.6369 16.6188 20.7344 16.3675 20.7344Z" fill="black"/>
<path opacity="0.07" d="M16.3676 20.4219C16.1582 20.4219 15.9638 20.3175 15.8476 20.1431L14.9182 18.75C14.527 18.7325 14.1632 18.5744 13.8888 18.2994C13.6151 18.0256 13.4563 17.6581 13.4382 17.2694L12.0438 16.34C11.887 16.235 11.787 16.0675 11.7688 15.8806C11.7507 15.6937 11.8163 15.5106 11.9488 15.3781L12.2826 15.0444C12.4595 14.8675 12.6951 14.77 12.9457 14.77C13.047 14.77 13.1463 14.7862 13.2426 14.8187L14.682 15.2981L16.0738 13.9062L12.1995 10.8075C12.0607 10.6962 11.9763 10.5312 11.9663 10.3537C11.9557 10.1762 12.0226 10.0025 12.1482 9.8775L12.4982 9.5275C12.6757 9.35 12.9113 9.2525 13.162 9.2525C13.2776 9.2525 13.3901 9.27375 13.4982 9.315L18.6745 11.3062L21.4032 8.5775C21.6988 8.2825 22.0913 8.12 22.5082 8.12C22.9257 8.12 23.3182 8.2825 23.6138 8.5775C24.2232 9.18687 24.2232 10.1781 23.6138 10.7875L20.8845 13.5169L22.8763 18.6931C23.0088 19.0387 22.9257 19.4312 22.6638 19.6925L22.3138 20.0425C22.1957 20.1606 22.0388 20.2256 21.872 20.2256C21.6813 20.2256 21.5032 20.14 21.3845 19.9912L18.2845 16.1162L16.8926 17.5081L17.3726 18.9469C17.4857 19.2856 17.3988 19.6531 17.1463 19.9062L16.8126 20.24C16.692 20.3569 16.5351 20.4219 16.3676 20.4219Z" fill="black"/>
<path d="M6.8269 24.4437C7.1444 24.7187 7.47378 24.9781 7.81753 25.2206L14.81 18.2281L13.9263 17.3444L6.8269 24.4437Z" fill="url(#paint2_linear_100_307)"/>
<path d="M14.5513 17.6362L16.1075 19.9706C16.2169 20.135 16.4494 20.1575 16.5888 20.0181L16.9225 19.6844C17.09 19.5169 17.1481 19.2694 17.0731 19.0444L16.5325 17.4225L14.5513 17.6362Z" fill="#FDB700"/>
<path d="M18.3081 15.6475L21.6256 19.7944C21.7419 19.94 21.9587 19.9519 22.0906 19.82L22.4406 19.47C22.615 19.2956 22.6706 19.0344 22.5819 18.8038L20.5175 13.4375L18.3081 15.6475Z" fill="#FDB700"/>
<path d="M14.765 15.655L13.1431 15.1144C12.9181 15.0394 12.6706 15.0982 12.5031 15.265L12.1693 15.5988C12.03 15.7382 12.0531 15.97 12.2168 16.08L14.5512 17.6363L14.765 15.655Z" fill="#FDB700"/>
<path d="M18.7501 11.67L13.3839 9.60627C13.1532 9.51752 12.892 9.57314 12.7176 9.74752L12.3676 10.0975C12.2357 10.2294 12.2476 10.4463 12.3932 10.5625L16.5401 13.88L18.7501 11.67Z" fill="#FDB700"/>
<path d="M23.3905 8.79688C22.9024 8.30875 22.1111 8.30875 21.623 8.79688L14.1093 16.31C13.6211 16.7981 13.6211 17.5894 14.1093 18.0775C14.5974 18.5656 15.3886 18.5656 15.8768 18.0775L23.3899 10.5644C23.8786 10.0769 23.8786 9.285 23.3905 8.79688Z" fill="#FAD500"/>
<defs>
<linearGradient id="paint0_linear_100_307" x1="6.16125" y1="6.16125" x2="23.9919" y2="23.9919" gradientUnits="userSpaceOnUse">
<stop stop-color="#00BFFE"/>
<stop offset="1" stop-color="#1D55C4"/>
</linearGradient>
<linearGradient id="paint1_linear_100_307" x1="6.3775" y1="6.05063" x2="24.14" y2="23.8131" gradientUnits="userSpaceOnUse">
<stop stop-color="#84E1FE"/>
<stop offset="1" stop-color="#167CF7"/>
</linearGradient>
<linearGradient id="paint2_linear_100_307" x1="4.4519" y1="27.8081" x2="14.0263" y2="18.0744" gradientUnits="userSpaceOnUse">
<stop offset="0.301" stop-color="#0F89E1"/>
<stop offset="0.342" stop-color="#138BE3"/>
<stop offset="0.385" stop-color="#2092E9"/>
<stop offset="0.429" stop-color="#359EF3"/>
<stop offset="0.451" stop-color="#42A5FA"/>
<stop offset="0.511" stop-color="#68B6FA"/>
<stop offset="0.592" stop-color="#94CBFA"/>
<stop offset="0.674" stop-color="#B8DBF9"/>
<stop offset="0.756" stop-color="#D5E8F9"/>
<stop offset="0.838" stop-color="#E9F2F9"/>
<stop offset="0.919" stop-color="#F5F7F9"/>
<stop offset="1" stop-color="#F9F9F9"/>
</linearGradient>
</defs>
</svg>
