<svg width="136" height="136" viewBox="0 0 136 136" fill="none" xmlns="http://www.w3.org/2000/svg">
<path d="M124.667 68C124.667 99.2942 99.2943 124.667 68.0002 124.667C36.706 124.667 11.3335 99.2942 11.3335 68C11.3335 36.7058 36.706 11.3333 68.0002 11.3333C99.2943 11.3333 124.667 36.7058 124.667 68Z" fill="url(#paint0_linear_18_395)"/>
<path d="M67.3485 97.7726C68.0002 99.7078 67.3485 102.295 66.6997 103.595C66.0622 105.533 65.4133 108.12 64.1128 109.406C62.8265 110.707 61.526 111.358 60.2397 112.004C58.3017 113.291 57.004 115.878 55.066 117.827C55.066 118.464 52.4792 121.754 51.8303 121.754C51.5895 121.881 51.36 121.998 51.1277 122.114C47.3083 120.924 43.6817 119.314 40.2562 117.385C40.2335 117.317 40.208 117.252 40.1825 117.181C40.1825 116.532 39.545 112.648 39.545 112.007C38.8962 110.061 38.2445 107.474 37.5985 105.536C36.3122 102.3 33.7253 99.0646 33.7253 95.1915C33.7253 91.953 34.3628 88.7315 32.4248 86.1333C29.838 82.8976 24.6643 82.8976 22.0775 80.9596C18.1902 78.3728 14.317 74.4996 12.379 70.6123C11.9172 69.8473 11.6055 69.1361 11.3505 68.4363C11.3533 68.2861 11.3335 68.1473 11.3335 68C11.3335 52.8246 17.3345 39.0716 27.0528 28.9C32.3682 24.6018 42.7353 22.6241 49.0282 24.5225C50.9662 25.16 57.939 29.3306 57.939 31.2686C57.939 31.9175 57.939 31.9175 57.2902 32.5691C56.6527 33.218 56.001 33.218 55.3522 33.218C53.4142 33.218 47.3083 31.8098 46.6567 31.1581C42.7693 29.8605 36.9582 38.2698 36.3122 40.8566C35.6633 42.8031 35.6633 47.328 38.899 47.9768C40.837 47.9768 49.7053 40.4515 51.0058 39.8026C56.1795 39.1651 60.1773 43.5993 61.4778 48.1355C63.4158 53.3091 52.482 58.31 48.5947 59.6105C47.3083 60.2593 46.6595 58.9616 45.359 59.6105C42.1347 60.8968 40.2278 63.7868 39.8425 67.6543C39.5167 70.9268 39.1937 74.1171 38.5562 77.3528C37.9073 77.3528 36.5785 77.3443 36.5785 76.6955V75.4091C36.5785 73.457 35.9297 70.873 33.9917 70.2241C33.3428 69.5895 32.4277 70.6095 31.7788 70.6095C29.8408 70.6095 27.9057 68.663 25.9677 69.9606C24.6672 71.247 23.3808 73.1963 23.3808 75.1343C23.3808 75.786 23.3808 76.4348 24.0183 77.0723C25.3188 77.7211 26.6052 76.4348 27.9057 77.0723C29.192 77.0723 29.192 78.3728 29.192 79.0188C30.4925 80.9568 31.7788 83.5436 33.7253 84.1925H46.6567C48.5947 84.8413 51.8303 85.4788 53.128 86.7793C53.7627 88.0656 53.7627 89.3661 54.4143 90.6525C57.65 93.8881 61.5232 93.8881 65.4077 95.1858C66.6997 95.8346 67.3513 96.4721 67.3485 97.7726ZM103.485 23.8566C103.199 23.9416 102.912 24.0181 102.632 24.14C100.694 24.7888 95.6365 34.1275 94.3417 36.0626C93.6928 36.7115 93.0553 38.0006 93.6928 38.6495C93.6928 39.2983 94.3417 39.2983 94.9933 39.2983C96.2797 39.9471 96.4553 40.2163 97.753 40.8538C98.4018 40.8538 99.0393 41.5026 98.4018 42.1543C98.4018 42.1543 98.4018 42.8031 97.753 42.8031C94.5173 46.0388 91.2817 48.6256 88.0545 51.85C87.4028 52.5045 86.9693 53.805 86.9693 54.4396C86.9693 55.0885 87.4028 55.0885 87.4028 55.7401C87.4028 56.3918 86.754 56.389 86.1023 57.0265C84.816 57.6753 83.5155 58.327 82.8667 58.973C82.2292 60.2593 82.8667 62.2086 82.2292 63.4978C81.5775 66.7335 79.631 69.3203 78.3418 72.556C77.0413 74.494 75.8825 76.4291 74.582 78.3785C74.582 80.9653 73.9332 82.9033 75.2308 84.8385C78.4665 89.3718 84.9435 85.034 89.4683 86.9691C90.7547 87.618 91.8625 87.737 92.704 88.9071C94.3105 91.137 94.506 95.8346 95.1577 97.784C95.7952 100.371 96.444 102.958 97.7445 105.544C98.3877 108.752 99.657 111.956 100.312 114.518C115.022 104.278 124.667 87.2751 124.667 68C124.667 50.1471 116.391 34.2436 103.485 23.8566ZM81.0562 26.5115C82.9828 25.2733 84.272 22.8055 84.918 20.9553C85.5498 19.7143 87.4878 17.2493 86.8447 15.3991C86.3432 14.4358 84.3032 13.8578 82.8128 13.3563C78.0812 12.0785 73.1342 11.3333 68.0002 11.3333C66.6968 11.3333 65.419 11.441 64.1383 11.5288C63.0588 11.9028 62.1295 12.5375 61.7782 13.5518C61.1322 16.6373 63.7048 16.0168 66.2718 16.6373C66.2718 16.6373 66.9178 21.573 66.9178 22.1935C67.5638 25.279 65.6287 27.1291 65.6287 30.2061C65.6287 32.0648 65.6287 35.1503 66.9178 36.3828H67.5638C68.2098 36.3828 68.8417 35.7623 70.1337 35.156C72.0603 33.915 73.9955 32.0705 75.9193 30.8295C77.8432 29.5998 79.767 27.7411 81.0562 26.5115Z" fill="url(#paint1_linear_18_395)"/>
<path opacity="0.05" d="M121.737 50.1104C116.113 33.2152 102.768 19.8759 85.8698 14.2545C80.1522 18.9324 76.5 26.0384 76.5 34C76.5 40.9077 79.2597 47.1665 83.7222 51.7593C83.7477 51.7849 99.9968 68.0482 99.9968 68.0482C101.105 69.156 102.898 69.156 104.003 68.0482C104.003 68.0482 120.252 51.7849 120.278 51.7593C120.791 51.2323 121.272 50.677 121.737 50.1104Z" fill="black"/>
<path opacity="0.07" d="M121.156 48.5237C115.467 32.9035 103.079 20.519 87.4563 14.8353C81.665 19.2213 77.9165 26.1715 77.9165 34C77.9165 40.5252 80.5458 46.4128 84.7363 50.7733C84.759 50.7988 100.107 66.1583 100.107 66.1583C101.153 67.2038 102.847 67.2038 103.892 66.1583C103.892 66.1583 119.241 50.7988 119.263 50.7733C119.943 50.065 120.572 49.3113 121.156 48.5237Z" fill="black"/>
<path d="M118.247 49.7845C122.213 45.7045 124.667 40.1426 124.667 34C124.667 21.4823 114.518 11.3333 102 11.3333C89.4825 11.3333 79.3335 21.4823 79.3335 34C79.3335 40.1426 81.7872 45.7045 85.7538 49.7845C85.7765 49.8071 100.221 64.2656 100.221 64.2656C101.204 65.2488 102.799 65.2488 103.782 64.2656C103.782 64.2656 118.224 49.81 118.247 49.7845Z" fill="url(#paint2_linear_18_395)"/>
<path d="M102 43.9166C107.477 43.9166 111.917 39.4768 111.917 34C111.917 28.5232 107.477 24.0833 102 24.0833C96.5233 24.0833 92.0835 28.5232 92.0835 34C92.0835 39.4768 96.5233 43.9166 102 43.9166Z" fill="url(#paint3_radial_18_395)"/>
<path d="M102 42.5C106.694 42.5 110.5 38.6944 110.5 34C110.5 29.3056 106.694 25.5 102 25.5C97.3056 25.5 93.5 29.3056 93.5 34C93.5 38.6944 97.3056 42.5 102 42.5Z" fill="#F9F9F9"/>
<defs>
<linearGradient id="paint0_linear_18_395" x1="27.9312" y1="27.931" x2="108.763" y2="108.763" gradientUnits="userSpaceOnUse">
<stop stop-color="#00BFFE"/>
<stop offset="1" stop-color="#1D55C4"/>
</linearGradient>
<linearGradient id="paint1_linear_18_395" x1="28.9115" y1="27.4295" x2="109.435" y2="107.953" gradientUnits="userSpaceOnUse">
<stop stop-color="#84E1FE"/>
<stop offset="1" stop-color="#167CF7"/>
</linearGradient>
<linearGradient id="paint2_linear_18_395" x1="85.9748" y1="17.9718" x2="118.025" y2="50.0197" gradientUnits="userSpaceOnUse">
<stop stop-color="#D43A02"/>
<stop offset="1" stop-color="#B9360C"/>
</linearGradient>
<radialGradient id="paint3_radial_18_395" cx="0" cy="0" r="1" gradientUnits="userSpaceOnUse" gradientTransform="translate(102 34) scale(9.91667)">
<stop offset="0.177"/>
<stop offset="1" stop-opacity="0"/>
</radialGradient>
</defs>
</svg>
