<svg width="30" height="30" viewBox="0 0 30 30" fill="none" xmlns="http://www.w3.org/2000/svg">
<path d="M26.875 6.875H25V25.625H26.875C27.5656 25.625 28.125 25.0656 28.125 24.375V8.125C28.125 7.43438 27.5656 6.875 26.875 6.875Z" fill="url(#paint0_linear_2_813)"/>
<path d="M25.625 24.375V5.625C25.625 4.93438 25.0656 4.375 24.375 4.375H3.125C2.43437 4.375 1.875 4.93438 1.875 5.625V24.375C1.875 25.0656 2.43437 25.625 3.125 25.625H26.875C26.1844 25.625 25.625 25.0656 25.625 24.375Z" fill="#5286FF"/>
<path d="M23.125 10.625H4.375C4.03 10.625 3.75 10.345 3.75 10V8.75C3.75 8.405 4.03 8.125 4.375 8.125H23.125C23.47 8.125 23.75 8.405 23.75 8.75V10C23.75 10.345 23.47 10.625 23.125 10.625Z" fill="white"/>
<path d="M11.875 22.5H4.375C4.03 22.5 3.75 22.22 3.75 21.875V13.75C3.75 13.405 4.03 13.125 4.375 13.125H11.875C12.22 13.125 12.5 13.405 12.5 13.75V21.875C12.5 22.22 12.22 22.5 11.875 22.5Z" fill="white"/>
<path d="M23.75 15H15V13.75C15 13.405 15.28 13.125 15.625 13.125H23.125C23.47 13.125 23.75 13.405 23.75 13.75V15Z" fill="white"/>
<path d="M23.75 15H15V16.875H23.75V15Z" fill="#E6EEFF"/>
<path d="M23.75 16.875H15V18.75H23.75V16.875Z" fill="#CCDCFF"/>
<path d="M23.75 18.75H15V20.625H23.75V18.75Z" fill="#B3CBFF"/>
<path d="M23.125 22.5H15.625C15.28 22.5 15 22.22 15 21.875V20.625H23.75V21.875C23.75 22.22 23.47 22.5 23.125 22.5Z" fill="#9ABAFF"/>
<defs>
<linearGradient id="paint0_linear_2_813" x1="25.6363" y1="16.25" x2="28.235" y2="16.25" gradientUnits="userSpaceOnUse">
<stop stop-color="#3537B0"/>
<stop offset="1" stop-color="#4646CF"/>
</linearGradient>
</defs>
</svg>
