<svg width="30" height="30" viewBox="0 0 30 30" fill="none" xmlns="http://www.w3.org/2000/svg">
<path d="M26.25 5H3.75C3.05938 5 2.5 5.55937 2.5 6.25V22.5C2.5 23.1906 3.05938 23.75 3.75 23.75H8.75V28.7487C8.75 29.3056 9.42313 29.5844 9.81688 29.1906L15.2575 23.75H26.25C26.9406 23.75 27.5 23.1906 27.5 22.5V6.25C27.5 5.55937 26.9406 5 26.25 5Z" fill="url(#paint0_linear_100_398)"/>
<path opacity="0.05" d="M9.375 16.875C10.7557 16.875 11.875 15.7557 11.875 14.375C11.875 12.9943 10.7557 11.875 9.375 11.875C7.99429 11.875 6.875 12.9943 6.875 14.375C6.875 15.7557 7.99429 16.875 9.375 16.875Z" fill="black"/>
<path opacity="0.07" d="M9.375 16.5625C10.5831 16.5625 11.5625 15.5831 11.5625 14.375C11.5625 13.1669 10.5831 12.1875 9.375 12.1875C8.16688 12.1875 7.1875 13.1669 7.1875 14.375C7.1875 15.5831 8.16688 16.5625 9.375 16.5625Z" fill="black"/>
<path d="M9.375 16.25C10.4105 16.25 11.25 15.4105 11.25 14.375C11.25 13.3395 10.4105 12.5 9.375 12.5C8.33947 12.5 7.5 13.3395 7.5 14.375C7.5 15.4105 8.33947 16.25 9.375 16.25Z" fill="white"/>
<path opacity="0.05" d="M15 16.875C16.3807 16.875 17.5 15.7557 17.5 14.375C17.5 12.9943 16.3807 11.875 15 11.875C13.6193 11.875 12.5 12.9943 12.5 14.375C12.5 15.7557 13.6193 16.875 15 16.875Z" fill="black"/>
<path opacity="0.07" d="M15 16.5625C16.2081 16.5625 17.1875 15.5831 17.1875 14.375C17.1875 13.1669 16.2081 12.1875 15 12.1875C13.7919 12.1875 12.8125 13.1669 12.8125 14.375C12.8125 15.5831 13.7919 16.5625 15 16.5625Z" fill="black"/>
<path d="M15 16.25C16.0355 16.25 16.875 15.4105 16.875 14.375C16.875 13.3395 16.0355 12.5 15 12.5C13.9645 12.5 13.125 13.3395 13.125 14.375C13.125 15.4105 13.9645 16.25 15 16.25Z" fill="white"/>
<path opacity="0.05" d="M20.625 16.875C22.0057 16.875 23.125 15.7557 23.125 14.375C23.125 12.9943 22.0057 11.875 20.625 11.875C19.2443 11.875 18.125 12.9943 18.125 14.375C18.125 15.7557 19.2443 16.875 20.625 16.875Z" fill="black"/>
<path opacity="0.07" d="M20.625 16.5625C21.8331 16.5625 22.8125 15.5831 22.8125 14.375C22.8125 13.1669 21.8331 12.1875 20.625 12.1875C19.4169 12.1875 18.4375 13.1669 18.4375 14.375C18.4375 15.5831 19.4169 16.5625 20.625 16.5625Z" fill="black"/>
<path d="M20.625 16.25C21.6605 16.25 22.5 15.4105 22.5 14.375C22.5 13.3395 21.6605 12.5 20.625 12.5C19.5895 12.5 18.75 13.3395 18.75 14.375C18.75 15.4105 19.5895 16.25 20.625 16.25Z" fill="white"/>
<defs>
<linearGradient id="paint0_linear_100_398" x1="7.92875" y1="2.87" x2="22.2375" y2="26.1506" gradientUnits="userSpaceOnUse">
<stop stop-color="#33BEF0"/>
<stop offset="1" stop-color="#0A85D9"/>
</linearGradient>
</defs>
</svg>
