<svg width="30" height="30" viewBox="0 0 30 30" fill="none" xmlns="http://www.w3.org/2000/svg">
<path fill-rule="evenodd" clip-rule="evenodd" d="M25.0025 26.2306L5.01938 26.25C4.3325 26.2506 3.77 25.6894 3.76938 25.0025L3.75 5.01938C3.74938 4.3325 4.31063 3.77 4.9975 3.76938L24.9806 3.75C25.6675 3.74938 26.23 4.31063 26.2306 4.9975L26.25 24.9806C26.2506 25.6675 25.6894 26.23 25.0025 26.2306Z" fill="url(#paint0_linear_2_790)"/>
<path fill-rule="evenodd" clip-rule="evenodd" d="M18.255 12.8794C19.24 13.5831 20.4469 13.9969 21.75 13.9969V11.49C21.5031 11.49 21.2575 11.4644 21.0162 11.4131V13.3863C19.7131 13.3863 18.5069 12.9719 17.5212 12.2688V17.3838C17.5212 19.9425 15.4456 22.0169 12.8856 22.0169C11.9306 22.0169 11.0425 21.7281 10.305 21.2331C11.1469 22.0931 12.3206 22.6269 13.6194 22.6269C16.1794 22.6269 18.255 20.5525 18.255 17.9938V12.8794ZM19.1606 10.3506C18.6575 9.80126 18.3269 9.09064 18.255 8.30501V7.98251H17.5594C17.7344 8.98064 18.3319 9.83376 19.1606 10.3506ZM11.9244 19.27C11.6431 18.9013 11.4912 18.4506 11.4919 17.9869C11.4919 16.8163 12.4412 15.8675 13.6125 15.8675C13.8306 15.8675 14.0475 15.9006 14.2556 15.9669V13.4044C14.0125 13.3713 13.7675 13.3569 13.5219 13.3619V15.3563C13.3137 15.29 13.0969 15.2569 12.8781 15.2569C11.7069 15.2569 10.7575 16.2056 10.7575 17.3763C10.7581 18.2044 11.2325 18.9213 11.9244 19.27Z" fill="#EC407A"/>
<path fill-rule="evenodd" clip-rule="evenodd" d="M17.5212 12.2688C18.5062 12.9725 19.7131 13.3863 21.0162 13.3863V11.4131C20.2887 11.2581 19.645 10.8781 19.1606 10.35C18.3319 9.83314 17.735 8.98064 17.56 7.98251H15.7331V17.9938C15.7287 19.1606 14.7812 20.1056 13.6125 20.1056C12.9237 20.1056 12.3119 19.7775 11.9244 19.2694C11.2325 18.9206 10.7581 18.2038 10.7581 17.3763C10.7581 16.2056 11.7075 15.2569 12.8787 15.2569C13.1031 15.2569 13.3194 15.2919 13.5225 15.3563V13.3625C11.0075 13.4144 8.98499 15.4681 8.98499 17.9944C8.98499 19.2556 9.48874 20.3988 10.3062 21.2338C11.0437 21.7288 11.9319 22.0175 12.8869 22.0175C15.4469 22.0175 17.5225 19.9431 17.5225 17.3844L17.5212 12.2688Z" fill="white"/>
<path fill-rule="evenodd" clip-rule="evenodd" d="M21.0162 11.4138V10.88C20.36 10.8813 19.7175 10.6975 19.1606 10.35C19.6531 10.8894 20.3019 11.2613 21.0162 11.4138ZM17.5594 7.98251C17.5425 7.88689 17.53 7.79126 17.5213 7.69439V7.37189H14.9987V17.3838C14.995 18.5506 14.0469 19.4956 12.8781 19.4956C12.535 19.4956 12.2113 19.4144 11.9244 19.2694C12.3119 19.7775 12.9238 20.1056 13.6125 20.1056C14.7813 20.1056 15.7288 19.1606 15.7331 17.9938V7.98251H17.5594ZM13.5219 13.3625V12.7944C13.3113 12.7656 13.0988 12.7513 12.8856 12.7513C10.325 12.7513 8.25 14.8256 8.25 17.3844C8.25 18.9888 9.06563 20.4025 10.305 21.2338C9.4875 20.3988 8.98375 19.2556 8.98375 17.9944C8.98375 15.4681 11.0069 13.4144 13.5219 13.3625Z" fill="#81D4FA"/>
<defs>
<linearGradient id="paint0_linear_2_790" x1="14.9856" y1="3.84938" x2="14.9856" y2="26.2787" gradientUnits="userSpaceOnUse">
<stop stop-color="#4C4C4C"/>
<stop offset="1" stop-color="#343434"/>
</linearGradient>
</defs>
</svg>
