<svg width="30" height="30" viewBox="0 0 30 30" fill="none" xmlns="http://www.w3.org/2000/svg">
<path d="M4.74132 26.605L3.78882 25.795L13.1107 15.7525L14.0626 16.5625L4.74132 26.605Z" fill="url(#paint0_linear_100_318)"/>
<path d="M15.3125 25.625C15.1271 25.625 14.9458 25.68 14.7917 25.783C14.6375 25.886 14.5173 26.0324 14.4464 26.2037C14.3754 26.375 14.3568 26.5635 14.393 26.7454C14.4292 26.9273 14.5185 27.0943 14.6496 27.2254C14.7807 27.3565 14.9477 27.4458 15.1296 27.482C15.3115 27.5182 15.5 27.4996 15.6713 27.4286C15.8426 27.3577 15.989 27.2375 16.092 27.0833C16.195 26.9292 16.25 26.7479 16.25 26.5625C16.2499 26.3139 16.1511 26.0755 15.9753 25.8997C15.7995 25.7239 15.5611 25.6251 15.3125 25.625V25.625Z" fill="#199BE2"/>
<path d="M21.2362 17.9031L17.3081 16.5306L16.7449 20.7644L14.4556 26.1825L16.0749 27.1081L19.2124 21.8569L21.2362 17.9031Z" fill="#199BE2"/>
<path d="M27.1875 16.875C27.7053 16.875 28.125 16.4553 28.125 15.9375C28.125 15.4197 27.7053 15 27.1875 15C26.6697 15 26.25 15.4197 26.25 15.9375C26.25 16.4553 26.6697 16.875 27.1875 16.875Z" fill="#199BE2"/>
<path d="M26.8444 16.81L23.0607 15.3719C22.9049 15.3124 22.7626 15.2225 22.6419 15.1075L20.5869 13.1456L21.6744 10.2456L23.8894 13.34L27.57 15.0813L26.8444 16.81Z" fill="#199BE2"/>
<path d="M20 5.625C20 6.11951 20.1467 6.60291 20.4214 7.01406C20.6962 7.42521 21.0867 7.74564 21.5436 7.93482C22.0005 8.124 22.5032 8.17344 22.9882 8.07687C23.4732 7.98031 23.9186 7.74208 24.2682 7.39233C24.6178 7.04257 24.8558 6.59699 24.9521 6.11196C25.0484 5.62692 24.9988 5.12422 24.8093 4.66743C24.6199 4.21063 24.2993 3.82027 23.888 3.54572C23.4767 3.27117 22.9933 3.12475 22.4988 3.125C21.8359 3.12529 21.2003 3.38882 20.7317 3.85763C20.2632 4.32644 20 4.96216 20 5.625V5.625Z" fill="url(#paint1_linear_100_318)"/>
<path d="M18.125 11.25C18.125 11.7445 18.2717 12.2279 18.5464 12.6391C18.8212 13.0502 19.2117 13.3706 19.6686 13.5598C20.1255 13.749 20.6282 13.7984 21.1132 13.7019C21.5982 13.6053 22.0436 13.3671 22.3932 13.0173C22.7428 12.6676 22.9808 12.222 23.0771 11.737C23.1734 11.2519 23.1238 10.7492 22.9343 10.2924C22.7449 9.83563 22.4243 9.44527 22.013 9.17072C21.6017 8.89617 21.1183 8.74975 20.6238 8.75C19.9609 8.75029 19.3253 9.01382 18.8567 9.48263C18.3882 9.95144 18.125 10.5872 18.125 11.25V11.25Z" fill="#35C1F1"/>
<path d="M16.875 16.875C16.875 17.3695 17.0217 17.8529 17.2964 18.2641C17.5712 18.6752 17.9617 18.9956 18.4186 19.1848C18.8755 19.374 19.3782 19.4234 19.8632 19.3269C20.3482 19.2303 20.7936 18.9921 21.1432 18.6423C21.4928 18.2926 21.7308 17.847 21.8271 17.362C21.9234 16.8769 21.8738 16.3742 21.6843 15.9174C21.4949 15.4606 21.1743 15.0703 20.763 14.7957C20.3517 14.5212 19.8683 14.3748 19.3737 14.375C18.7109 14.3753 18.0753 14.6388 17.6067 15.1076C17.1382 15.5764 16.875 16.2122 16.875 16.875V16.875Z" fill="#35C1F1"/>
<path d="M24.6875 25.625C24.5021 25.625 24.3208 25.68 24.1667 25.783C24.0125 25.886 23.8923 26.0324 23.8214 26.2037C23.7504 26.375 23.7318 26.5635 23.768 26.7454C23.8042 26.9273 23.8935 27.0943 24.0246 27.2254C24.1557 27.3565 24.3227 27.4458 24.5046 27.482C24.6865 27.5182 24.875 27.4996 25.0463 27.4286C25.2176 27.3577 25.364 27.2375 25.467 27.0833C25.57 26.9292 25.625 26.7479 25.625 26.5625C25.6249 26.3139 25.5261 26.0755 25.3503 25.8997C25.1745 25.7239 24.9361 25.6251 24.6875 25.625V25.625Z" fill="#35C1F1"/>
<path d="M13.4375 15C13.2521 15 13.0708 15.055 12.9167 15.158C12.7625 15.261 12.6423 15.4074 12.5714 15.5787C12.5004 15.75 12.4818 15.9385 12.518 16.1204C12.5542 16.3023 12.6435 16.4693 12.7746 16.6004C12.9057 16.7315 13.0727 16.8208 13.2546 16.857C13.4365 16.8932 13.625 16.8746 13.7963 16.8036C13.9676 16.7327 14.114 16.6125 14.217 16.4583C14.32 16.3042 14.375 16.1229 14.375 15.9375C14.3749 15.6889 14.2761 15.4505 14.1003 15.2747C13.9245 15.0989 13.6861 15.0001 13.4375 15V15Z" fill="#35C1F1"/>
<path d="M23.0462 11.8761L18.0924 11.2024L16.8975 16.5737L17.8868 18.8831L21.3581 21.8194L23.8218 26.9219L25.5756 26.2694L23.9912 20.7231C23.9604 20.6148 23.915 20.5111 23.8562 20.415L21.86 17.145L23.0462 11.8761Z" fill="#35C1F1"/>
<path d="M18.9582 9.38666L12.8086 15.2488L13.9571 16.7179L19.6751 12.0019L18.9582 9.38666Z" fill="#35C1F1"/>
<path d="M4.53015 26.875L1.65525 24.1938C1.41357 23.9684 1.27099 23.6564 1.25868 23.3262C1.24637 22.9959 1.36535 22.6742 1.58958 22.4315L5.20687 18.5152C5.3186 18.3943 5.45312 18.2966 5.60271 18.2278C5.7523 18.159 5.91401 18.1204 6.07855 18.1142C6.2431 18.1081 6.40723 18.1345 6.56153 18.192C6.71582 18.2495 6.85724 18.3369 6.97766 18.4492L9.84375 21.1223L4.53015 26.875Z" fill="url(#paint2_linear_100_318)"/>
<path d="M4.85163 25.6393C4.66906 25.6069 4.48099 25.6294 4.31118 25.7038C4.14138 25.7783 3.99747 25.9015 3.89766 26.0577C3.79785 26.214 3.74662 26.3963 3.75044 26.5817C3.75427 26.7671 3.81298 26.9472 3.91916 27.0992C4.02533 27.2512 4.17419 27.3683 4.34693 27.4357C4.51966 27.5031 4.7085 27.5178 4.88958 27.4779C5.07065 27.438 5.23582 27.3453 5.36419 27.2115C5.49257 27.0777 5.57839 26.9088 5.61081 26.7263C5.65418 26.4815 5.59858 26.2295 5.45622 26.0256C5.31386 25.8218 5.0964 25.6829 4.85163 25.6393V25.6393Z" fill="url(#paint3_linear_100_318)"/>
<defs>
<linearGradient id="paint0_linear_100_318" x1="12.6982" y1="16.5277" x2="7.94002" y2="22.3937" gradientUnits="userSpaceOnUse">
<stop offset="0.002" stop-color="#454545"/>
<stop offset="0.013" stop-color="#464646"/>
<stop offset="0.874" stop-color="#626262"/>
<stop offset="1" stop-color="#6D6D6D"/>
</linearGradient>
<linearGradient id="paint1_linear_100_318" x1="20" y1="5.625" x2="25" y2="5.625" gradientUnits="userSpaceOnUse">
<stop stop-color="#FFCF54"/>
<stop offset="0.261" stop-color="#FDCB4D"/>
<stop offset="0.639" stop-color="#F7C13A"/>
<stop offset="1" stop-color="#F0B421"/>
</linearGradient>
<linearGradient id="paint2_linear_100_318" x1="0.950771" y1="18.0749" x2="6.23761" y2="23.1244" gradientUnits="userSpaceOnUse">
<stop stop-color="#F44F5A"/>
<stop offset="0.443" stop-color="#EE3D4A"/>
<stop offset="1" stop-color="#E52030"/>
</linearGradient>
<linearGradient id="paint3_linear_100_318" x1="4.61623" y1="26.9637" x2="5.21498" y2="23.5914" gradientUnits="userSpaceOnUse">
<stop offset="0.002" stop-color="#454545"/>
<stop offset="0.013" stop-color="#464646"/>
<stop offset="0.874" stop-color="#626262"/>
<stop offset="1" stop-color="#6D6D6D"/>
</linearGradient>
</defs>
</svg>
