<svg width="77" height="76" viewBox="0 0 77 76" fill="none" xmlns="http://www.w3.org/2000/svg">
<path d="M49.9318 14.5201C51.3613 15.9649 52.4869 17.6814 53.2421 19.5683C53.9974 21.4553 54.3669 23.4744 54.329 25.5065C54.3389 28.5504 54.329 34.131 54.329 34.131L32.6199 9.80765C32.6199 9.80765 43.1112 7.71308 49.9318 14.5201Z" fill="#21A366"/>
<path d="M32.6199 9.80762C32.6199 9.80762 30.0044 19.7497 37.341 27.0863C43.8266 33.572 51.1668 30.087 51.1668 36.4203V45.9203H54.3334L54.329 33.503C54.3291 32.8551 54.2013 32.2136 53.953 31.6152C53.7047 31.0168 53.3408 30.4733 52.8822 30.0157L32.6199 9.80762Z" fill="#33C481"/>
<path d="M63.0416 53.8365C65.2277 53.8365 66.9999 52.0643 66.9999 49.8782C66.9999 47.6921 65.2277 45.9199 63.0416 45.9199C60.8555 45.9199 59.0833 47.6921 59.0833 49.8782C59.0833 52.0643 60.8555 53.8365 63.0416 53.8365Z" fill="#C98E00"/>
<path d="M42.0008 66.0012L64.9101 53.3504L61.5218 46.2222L41.6667 55.4198L42.0008 66.0012Z" fill="#C98E00"/>
<path d="M58.2916 45.9203C58.0234 45.9276 57.7561 45.9545 57.4918 46.0009C57.4922 45.9734 57.4999 45.948 57.4999 45.9203C57.5062 45.1543 57.3256 44.3983 56.9738 43.7178C56.6219 43.0373 56.1095 42.4529 55.4808 42.0151C54.8521 41.5774 54.1262 41.2995 53.3659 41.2057C52.6056 41.1118 51.8339 41.2047 51.1177 41.4764C51.0041 40.5193 50.5433 39.6372 49.8228 38.9972C49.1023 38.3571 48.172 38.0036 47.2082 38.0036C46.2445 38.0036 45.3142 38.3571 44.5937 38.9972C43.8731 39.6372 43.4124 40.5193 43.2988 41.4764C42.5825 41.2047 41.8108 41.1118 41.0505 41.2057C40.2903 41.2995 39.5643 41.5774 38.9357 42.0151C38.307 42.4529 37.7946 43.0373 37.4427 43.7178C37.0909 44.3983 36.9103 45.1543 36.9166 45.9203C36.9166 45.948 36.9243 45.9734 36.9247 46.0009C36.1719 45.8894 35.4041 45.9345 34.6695 46.1333C33.9349 46.3321 33.2492 46.6804 32.6554 47.1563C32.0615 47.6322 31.5723 48.2256 31.2182 48.8993C30.8642 49.5729 30.653 50.3124 30.5978 51.0714C30.5426 51.8305 30.6447 52.5927 30.8976 53.3105C31.1505 54.0283 31.5488 54.6862 32.0676 55.243C32.5864 55.7998 33.2145 56.2435 33.9126 56.5465C34.6107 56.8495 35.3639 57.0051 36.1249 57.0036C36.5139 57.0026 36.9017 56.9607 37.2819 56.8786C38.1921 57.834 39.4153 58.4309 40.7286 58.5604C42.0419 58.6899 43.358 58.3434 44.4374 57.5841C45.3644 58.2367 46.4704 58.5869 47.6041 58.5869C48.7377 58.5869 49.8437 58.2367 50.7707 57.5841C51.8363 58.3322 53.1319 58.6799 54.4288 58.5657C55.7257 58.4515 56.9406 57.8828 57.859 56.96C58.0044 56.9714 58.1435 57.0036 58.2916 57.0036C59.7613 57.0036 61.1709 56.4198 62.2101 55.3805C63.2494 54.3412 63.8332 52.9317 63.8332 51.4619C63.8332 49.9922 63.2494 48.5827 62.2101 47.5434C61.1709 46.5041 59.7613 45.9203 58.2916 45.9203V45.9203Z" fill="url(#paint0_linear_13_918)"/>
<path d="M71.75 51.462C71.7504 50.8106 71.5899 50.1692 71.2828 49.5947C70.9758 49.0202 70.5316 48.5305 69.9897 48.1689C69.4479 47.8074 68.8251 47.5852 68.1768 47.5222C67.5285 47.4592 66.8746 47.5572 66.2733 47.8076L66.2717 47.806L66.2542 47.814L66.2448 47.8187L46.4167 57.0036L44.0417 55.4203C44.9147 55.4229 45.7639 55.136 46.4564 54.6044C47.149 54.0728 47.6457 53.3266 47.8689 52.4826C48.092 51.6386 48.0291 50.7444 47.6898 49.9401C47.3505 49.1357 46.7541 48.4665 45.9939 48.0372L46.0003 48.0119L24.3862 37.1407H24.3466C23.3363 36.6729 22.2374 36.4273 21.124 36.4204C20.0107 36.4136 18.9089 36.6457 17.8929 37.1011H17.8581L5.25 42.7536V63.337L18.0592 57.4501L43.2516 67.7545H43.2532C43.8049 67.9995 44.4064 68.1118 45.0094 68.0824C45.6124 68.053 46.2001 67.8826 46.7254 67.585L46.7523 67.5835L69.6616 54.9342L69.66 54.931C70.2898 54.5961 70.8168 54.0966 71.1849 53.4856C71.5529 52.8746 71.7483 52.1752 71.75 51.462Z" fill="url(#paint1_linear_13_918)"/>
<path d="M44.0417 53.8365C45.3534 53.8365 46.4167 52.7732 46.4167 51.4615C46.4167 50.1498 45.3534 49.0865 44.0417 49.0865C42.7301 49.0865 41.6667 50.1498 41.6667 51.4615C41.6667 52.7732 42.7301 53.8365 44.0417 53.8365Z" fill="#FFDE87"/>
<path d="M46.4167 57.0036L44.0592 55.4235C42.0721 55.3285 40.5093 54.6825 27.4167 49.8612V55.4203L45.7058 62.9158C45.7058 62.9158 44.4107 59.301 46.4167 57.0036Z" fill="url(#paint2_linear_13_918)"/>
<defs>
<linearGradient id="paint0_linear_13_918" x1="47.2082" y1="39.7923" x2="47.2082" y2="57.2533" gradientUnits="userSpaceOnUse">
<stop stop-color="#C26715"/>
<stop offset="0.508" stop-color="#B85515"/>
<stop offset="1" stop-color="#AD3F16"/>
</linearGradient>
<linearGradient id="paint1_linear_13_918" x1="5.25" y1="52.2532" x2="71.75" y2="52.2532" gradientUnits="userSpaceOnUse">
<stop stop-color="#FFCF54"/>
<stop offset="0.261" stop-color="#FDCB4D"/>
<stop offset="0.639" stop-color="#F7C13A"/>
<stop offset="1" stop-color="#F0B421"/>
</linearGradient>
<linearGradient id="paint2_linear_13_918" x1="35.867" y1="57.5858" x2="38.6948" y2="52.7091" gradientUnits="userSpaceOnUse">
<stop stop-color="#F0B421" stop-opacity="0"/>
<stop offset="0.512" stop-color="#E9AB12" stop-opacity="0.512"/>
<stop offset="1" stop-color="#E09F00"/>
</linearGradient>
</defs>
</svg>
