<svg width="30" height="30" viewBox="0 0 30 30" fill="none" xmlns="http://www.w3.org/2000/svg">
<path d="M28.1325 21.6C27.8581 23 26.6925 24.0669 25.2525 24.2669C22.9894 24.6 19.2175 25 14.9656 25C10.7825 25 7.01062 24.6 4.67875 24.2669C3.23875 24.0669 2.0725 23 1.79875 21.6C1.52438 20.0669 1.25 17.8 1.25 15C1.25 12.2 1.52438 9.93312 1.79875 8.4C2.07313 7 3.23875 5.93313 4.67875 5.73313C6.94187 5.4 10.7137 5 14.9656 5C19.2175 5 22.9206 5.4 25.2525 5.73313C26.6925 5.93313 27.8588 7 28.1325 8.4C28.4069 9.93312 28.75 12.2 28.75 15C28.6812 17.8 28.4069 20.0669 28.1325 21.6Z" fill="url(#paint0_linear_2_782)"/>
<path opacity="0.05" d="M20.22 14.025L13.0725 9.25998C12.7119 9.01935 12.2512 8.99685 11.8694 9.20185C11.4875 9.40623 11.25 9.80185 11.25 10.235V19.765C11.25 20.1981 11.4875 20.5943 11.8694 20.7987C12.0431 20.8918 12.2325 20.9375 12.4219 20.9375C12.6494 20.9375 12.8756 20.8712 13.0719 20.7406L20.2194 15.9756C20.5462 15.7575 20.7412 15.3931 20.7412 15.0006C20.7419 14.6075 20.5462 14.2431 20.22 14.025Z" fill="black"/>
<path opacity="0.07" d="M12.9256 9.52314L19.6694 14.0194C20.1 14.3288 20.39 14.6056 20.39 14.965C20.39 15.3244 20.25 15.575 19.9431 15.7988C19.7113 15.9675 13.04 20.4013 13.04 20.4013C12.4769 20.7788 11.5625 20.6988 11.5625 19.4644V10.465C11.5625 9.21188 12.5525 9.27439 12.9256 9.52314Z" fill="black"/>
<path d="M11.875 19.73V10.2706C11.875 9.80622 12.3925 9.52872 12.7794 9.78685L19.8744 14.5168C20.22 14.7468 20.22 15.2543 19.8744 15.485L12.7794 20.215C12.3925 20.4718 11.875 20.195 11.875 19.73Z" fill="white"/>
<defs>
<linearGradient id="paint0_linear_2_782" x1="6.135" y1="6.16938" x2="25.7787" y2="25.8131" gradientUnits="userSpaceOnUse">
<stop stop-color="#F44F5A"/>
<stop offset="0.443" stop-color="#EE3D4A"/>
<stop offset="1" stop-color="#E52030"/>
</linearGradient>
</defs>
</svg>
