<svg width="15" height="16" viewBox="0 0 15 16" fill="none" xmlns="http://www.w3.org/2000/svg">
<path d="M7.5 0.5C3.3645 0.5 0 3.5285 0 7.25C0 11.1942 3.78 14.381 8.25 13.9647V15.5C8.265 15.4947 8.25 16.25 9 15.8383L9.405 15.5787C10.254 15.0342 14.5103 12.1077 14.9573 7.96625C14.985 7.73075 15 7.4915 15 7.25C15 3.5285 11.6355 0.5 7.5 0.5ZM4.875 8H4.125C3.918 8 3.75 7.832 3.75 7.625V6.875C3.75 6.668 3.918 6.5 4.125 6.5H4.875C5.082 6.5 5.25 6.668 5.25 6.875V7.625C5.25 7.832 5.082 8 4.875 8ZM7.875 8H7.125C6.918 8 6.75 7.832 6.75 7.625V6.875C6.75 6.668 6.918 6.5 7.125 6.5H7.875C8.082 6.5 8.25 6.668 8.25 6.875V7.625C8.25 7.832 8.082 8 7.875 8ZM10.875 8H10.125C9.918 8 9.75 7.832 9.75 7.625V6.875C9.75 6.668 9.918 6.5 10.125 6.5H10.875C11.082 6.5 11.25 6.668 11.25 6.875V7.625C11.25 7.832 11.082 8 10.875 8Z" fill="white"/>
</svg>
