<svg width="64" height="64" viewBox="0 0 64 64" fill="none" xmlns="http://www.w3.org/2000/svg">
<path d="M14.0002 8C9.23758 8 5.3335 11.9041 5.3335 16.6667V38V46.0469C5.3335 48.6491 8.52004 50.2735 10.6252 48.7448C10.626 48.7448 10.6269 48.7448 10.6278 48.7448L16.3882 44.5547C17.4868 48.0822 20.7926 50.6667 24.6668 50.6667H41.3491L53.3726 59.4115C53.3734 59.4115 53.3743 59.4115 53.3752 59.4115C55.4802 60.9401 58.6668 59.3157 58.6668 56.7135V48.6667V27.3333C58.6668 22.5707 54.7627 18.6667 50.0002 18.6667H48.0002V16.6667C48.0002 11.9041 44.0961 8 39.3335 8H14.0002ZM14.0002 12H39.3335C41.9336 12 44.0002 14.0666 44.0002 16.6667V31.3333C44.0002 33.9334 41.9336 36 39.3335 36H22.0002C21.5772 35.9999 21.1651 36.134 20.8231 36.3828L9.3335 44.7396V38V16.6667C9.3335 14.0666 11.4001 12 14.0002 12ZM48.0002 22.6667H50.0002C52.6002 22.6667 54.6668 24.7332 54.6668 27.3333V48.6667V55.4062L43.1772 47.0495C42.8352 46.8006 42.4231 46.6666 42.0002 46.6667H24.6668C22.0667 46.6667 20.0002 44.6001 20.0002 42V41.9271L22.6512 40H39.3335C44.0961 40 48.0002 36.0959 48.0002 31.3333V22.6667Z" fill="#1E9AF1"/>
</svg>
