<svg width="88" height="88" viewBox="0 0 88 88" fill="none" xmlns="http://www.w3.org/2000/svg">
<path d="M44 88C68.3005 88 88 68.3005 88 44C88 19.6995 68.3005 0 44 0C19.6995 0 0 19.6995 0 44C0 68.3005 19.6995 88 44 88Z" fill="white"/>
<path d="M63.5 66H23.5C22.1187 66 21 64.8813 21 63.5V38.5C21 37.1187 22.1187 36 23.5 36H63.5C64.8812 36 66 37.1187 66 38.5V63.5C66 64.8813 64.8812 66 63.5 66Z" fill="url(#paint0_linear_424_846)"/>
<path d="M33.5 59.75C33.5 60.44 32.94 61 32.25 61H27.25C26.56 61 26 60.44 26 59.75C26 59.06 26.56 58.5 27.25 58.5H32.25C32.94 58.5 33.5 59.06 33.5 59.75Z" fill="url(#paint1_linear_424_846)"/>
<path d="M42.25 59.75C42.25 60.44 41.69 61 41 61H36C35.31 61 34.75 60.44 34.75 59.75C34.75 59.06 35.31 58.5 36 58.5H41C41.69 58.5 42.25 59.06 42.25 59.75Z" fill="url(#paint2_linear_424_846)"/>
<path d="M51 59.75C51 60.44 50.44 61 49.75 61H44.75C44.06 61 43.5 60.44 43.5 59.75C43.5 59.06 44.06 58.5 44.75 58.5H49.75C50.44 58.5 51 59.06 51 59.75Z" fill="url(#paint3_linear_424_846)"/>
<path d="M59.75 59.75C59.75 60.44 59.19 61 58.5 61H53.5C52.81 61 52.25 60.44 52.25 59.75C52.25 59.06 52.81 58.5 53.5 58.5H58.5C59.19 58.5 59.75 59.06 59.75 59.75Z" fill="url(#paint4_linear_424_846)"/>
<path d="M55.835 52.25H61.1638C61.7638 52.25 62.25 51.7638 62.25 51.165V45.8363C62.25 45.2363 61.7638 44.75 61.165 44.75H55.8362C55.2362 44.75 54.75 45.2363 54.75 45.835V51.1638C54.75 51.7638 55.2363 52.25 55.835 52.25Z" fill="#BBD2DE"/>
<path d="M54.4995 31.7325C54.4995 32.1249 54.3714 32.52 54.1071 32.8505C53.489 33.6228 52.362 33.7482 51.5889 33.1301L43.7501 26.859L35.9113 33.1301C35.1382 33.7482 34.0112 33.6228 33.393 32.8505C32.774 32.0774 32.9003 30.9504 33.6725 30.3323L42.6311 23.1654C43.2851 22.6422 44.2159 22.6422 44.8699 23.1654L53.8285 30.3323C54.2693 30.6861 54.4995 31.2075 54.4995 31.7325Z" fill="#33C481"/>
<path d="M54.4995 21.9595C54.4995 22.3519 54.3714 22.747 54.1071 23.0775C53.489 23.8498 52.362 23.9752 51.5889 23.357L43.7501 17.086L35.9113 23.357C35.1382 23.9752 34.0112 23.8498 33.393 23.0775C32.774 22.3044 32.9003 21.1774 33.6725 20.5593L42.6311 13.3924C43.2851 12.8692 44.2159 12.8692 44.8699 13.3924L53.8285 20.5593C54.2693 20.9131 54.4995 21.4345 54.4995 21.9595Z" fill="#33C481" fill-opacity="0.6"/>
<defs>
<linearGradient id="paint0_linear_424_846" x1="35.0613" y1="30.5562" x2="49.5975" y2="65.7712" gradientUnits="userSpaceOnUse">
<stop stop-color="#32BDEF"/>
<stop offset="1" stop-color="#1EA2E4"/>
</linearGradient>
<linearGradient id="paint1_linear_424_846" x1="26.3925" y1="61.1362" x2="32.1762" y2="58.7488" gradientUnits="userSpaceOnUse">
<stop stop-color="#5BC8EF"/>
<stop offset="1" stop-color="#42BEFC"/>
</linearGradient>
<linearGradient id="paint2_linear_424_846" x1="35.1425" y1="61.1362" x2="40.9262" y2="58.7488" gradientUnits="userSpaceOnUse">
<stop stop-color="#5BC8EF"/>
<stop offset="1" stop-color="#42BEFC"/>
</linearGradient>
<linearGradient id="paint3_linear_424_846" x1="43.8925" y1="61.1362" x2="49.6762" y2="58.7488" gradientUnits="userSpaceOnUse">
<stop stop-color="#5BC8EF"/>
<stop offset="1" stop-color="#42BEFC"/>
</linearGradient>
<linearGradient id="paint4_linear_424_846" x1="52.6425" y1="61.1362" x2="58.4262" y2="58.7488" gradientUnits="userSpaceOnUse">
<stop stop-color="#5BC8EF"/>
<stop offset="1" stop-color="#42BEFC"/>
</linearGradient>
</defs>
</svg>
