<svg width="24" height="25" viewBox="0 0 24 25" fill="none" xmlns="http://www.w3.org/2000/svg">
<path d="M19.9806 6.49018C19.7208 6.49792 19.4742 6.6065 19.2931 6.79292L9.00008 17.0859L5.70712 13.7929C5.61497 13.6969 5.5046 13.6203 5.38247 13.5675C5.26034 13.5147 5.12891 13.4869 4.99587 13.4855C4.86283 13.4842 4.73086 13.5094 4.60768 13.5597C4.4845 13.6099 4.3726 13.6843 4.27852 13.7784C4.18444 13.8725 4.11008 13.9844 4.05979 14.1075C4.0095 14.2307 3.98429 14.3627 3.98565 14.4957C3.987 14.6288 4.01489 14.7602 4.06767 14.8823C4.12046 15.0045 4.19708 15.1148 4.29305 15.207L8.29305 19.207C8.4806 19.3944 8.73491 19.4998 9.00008 19.4998C9.26526 19.4998 9.51957 19.3944 9.70712 19.207L20.7071 8.20698C20.8516 8.06652 20.9503 7.88567 20.9903 7.68815C21.0302 7.49063 21.0096 7.28565 20.931 7.10007C20.8525 6.91448 20.7197 6.75695 20.5501 6.64812C20.3805 6.53929 20.182 6.48424 19.9806 6.49018Z" fill="#099A71"/>
</svg>
