<svg width="21" height="19" viewBox="0 0 21 19" fill="none" xmlns="http://www.w3.org/2000/svg">
<path d="M10.5 0.5C6.09356 0.5 2.5 4.09356 2.5 8.5V9.5C1.4 9.5 0.5 10.4 0.5 11.5V13.5C0.5 14.6 1.4 15.5 2.5 15.5H4.5V10.5V9.5V8.5C4.5 5.17444 7.17444 2.5 10.5 2.5C13.8256 2.5 16.5 5.17444 16.5 8.5V9.5V10.5V15.5V16.5H12.4121C12.3088 16.2079 12.1176 15.9549 11.8648 15.7759C11.6119 15.5968 11.3098 15.5004 11 15.5C10.6022 15.5 10.2206 15.658 9.93934 15.9393C9.65804 16.2206 9.5 16.6022 9.5 17C9.50051 17.3789 9.64438 17.7435 9.9027 18.0207C10.161 18.2979 10.5147 18.467 10.8926 18.4941C10.9283 18.498 10.9641 18.5 11 18.5H16.5C17.5931 18.5 18.5 17.5931 18.5 16.5V15.5C19.6 15.5 20.5 14.6 20.5 13.5V11.5C20.5 10.4 19.6 9.5 18.5 9.5V8.5C18.5 4.09356 14.9064 0.5 10.5 0.5Z" fill="white"/>
</svg>
