<svg width="24" height="24" viewBox="0 0 24 24" fill="none" xmlns="http://www.w3.org/2000/svg">
<path d="M3.99018 2.99023C3.79125 2.99029 3.59685 3.04967 3.43184 3.16078C3.26683 3.27189 3.13871 3.42969 3.06385 3.614C2.98899 3.79832 2.9708 4.00077 3.01161 4.19547C3.05241 4.39017 3.15035 4.56828 3.29292 4.70703L5.07612 6.49023C3.14425 8.04173 1.89147 9.94401 1.27143 11.0605C0.939431 11.6585 0.950337 12.3785 1.27534 12.9805C2.43034 15.1185 5.75095 20 11.9999 20C14.0755 20 15.8059 19.4547 17.2421 18.6562L19.2929 20.707C19.3851 20.803 19.4954 20.8796 19.6176 20.9324C19.7397 20.9852 19.8711 21.0131 20.0042 21.0144C20.1372 21.0158 20.2692 20.9906 20.3924 20.9403C20.5155 20.89 20.6274 20.8157 20.7215 20.7216C20.8156 20.6275 20.89 20.5156 20.9402 20.3924C20.9905 20.2692 21.0157 20.1373 21.0144 20.0042C21.013 19.8712 20.9851 19.7397 20.9324 19.6176C20.8796 19.4955 20.803 19.3851 20.707 19.293L4.70698 3.29297C4.61379 3.19717 4.50234 3.12103 4.37923 3.06903C4.25611 3.01704 4.12383 2.99024 3.99018 2.99023ZM11.9999 4C10.7879 4 9.70574 4.19972 8.71674 4.51172L11.2773 7.07227C11.5143 7.03727 11.7529 7 11.9999 7C14.7609 7 16.9999 9.239 16.9999 12C16.9999 12.247 16.9627 12.4857 16.9277 12.7227L20.3574 16.1523C21.4314 14.9603 22.2174 13.7513 22.6874 12.9473C23.0414 12.3433 23.04 11.6013 22.705 10.9863C21.536 8.83333 18.2189 4 11.9999 4ZM7.83393 9.24805L9.29682 10.7109C9.10811 11.1008 8.99995 11.5366 8.99995 12C8.99995 13.657 10.3429 15 11.9999 15C12.4634 15 12.8991 14.8918 13.289 14.7031L14.7539 16.168C13.7603 16.8268 12.5205 17.1424 11.1992 16.9375C9.10116 16.6115 7.38845 14.8988 7.06245 12.8008C6.85762 11.48 7.1757 10.2414 7.83393 9.24805Z" fill="#646E82"/>
</svg>
