<svg width="41" height="40" viewBox="0 0 41 40" fill="none" xmlns="http://www.w3.org/2000/svg">
<circle cx="20.5" cy="20" r="20" fill="#0A66C2"/>
<path d="M13.3881 11.0156C12.0132 11.0156 11.1143 11.9184 11.1143 13.1051C11.1143 14.2655 11.9864 15.1941 13.3353 15.1941H13.3614C14.7632 15.1941 15.6356 14.2655 15.6356 13.1051C15.6094 11.9184 14.7632 11.0156 13.3881 11.0156Z" fill="white"/>
<path d="M11.3553 16.8452H15.3747V28.9377H11.3553V16.8452Z" fill="white"/>
<path d="M25.2386 16.5613C23.0703 16.5613 21.6163 18.5988 21.6163 18.5988V16.8451H17.5968V28.9376H21.6161V22.1847C21.6161 21.8232 21.6423 21.4622 21.7485 21.2037C22.0391 20.4818 22.7003 19.7339 23.8107 19.7339C25.2651 19.7339 25.8468 20.8429 25.8468 22.4685V28.9376H29.8659V22.004C29.8659 18.2897 27.8829 16.5613 25.2386 16.5613Z" fill="white"/>
</svg>
