<svg width="64" height="64" viewBox="0 0 64 64" fill="none" xmlns="http://www.w3.org/2000/svg">
<path d="M32.6665 5.33325C30.112 5.33325 27.9998 7.447 27.9998 9.99992V16.6666C27.9998 19.2195 30.112 21.3333 32.6665 21.3333H37.1717L40.5858 24.7473C40.9609 25.1222 41.4695 25.3329 41.9998 25.3329C42.5302 25.3329 43.0388 25.1222 43.4139 24.7473L46.828 21.3333H51.3332C53.8877 21.3333 55.9998 19.2195 55.9998 16.6666V9.99992C55.9998 7.447 53.8877 5.33325 51.3332 5.33325H32.6665ZM32.6665 9.33325H51.3332C51.7254 9.33325 51.9998 9.60884 51.9998 9.99992V16.6666C51.9998 17.0577 51.7254 17.3333 51.3332 17.3333H45.9998C45.4694 17.3334 44.9608 17.5441 44.5858 17.9192L41.9998 20.5051L39.4139 17.9192C39.0389 17.5441 38.5302 17.3334 37.9998 17.3333H32.6665C32.2743 17.3333 31.9998 17.0577 31.9998 16.6666V9.99992C31.9998 9.60884 32.2743 9.33325 32.6665 9.33325ZM13.3332 25.3333C11.2776 25.3333 9.4827 26.1761 8.33838 27.4635C7.19406 28.7508 6.6665 30.3888 6.6665 31.9999C6.6665 33.611 7.19406 35.249 8.33838 36.5364C9.4827 37.8237 11.2776 38.6666 13.3332 38.6666C15.3887 38.6666 17.1836 37.8237 18.328 36.5364C19.4723 35.249 19.9998 33.611 19.9998 31.9999C19.9998 30.3888 19.4723 28.7508 18.328 27.4635C17.1836 26.1761 15.3887 25.3333 13.3332 25.3333ZM31.9998 25.3333C29.4998 25.3333 27.3716 26.3428 26.005 27.8801C24.6385 29.4175 23.9998 31.3888 23.9998 33.3333C23.9998 35.2777 24.6385 37.249 26.005 38.7864C27.3716 40.3237 29.4998 41.3332 31.9998 41.3332C34.4998 41.3332 36.6281 40.3237 37.9946 38.7864C39.3612 37.249 39.9998 35.2777 39.9998 33.3333C39.9998 31.3888 39.3612 29.4175 37.9946 27.8801C36.6281 26.3428 34.4998 25.3333 31.9998 25.3333ZM50.6665 25.3333C48.611 25.3333 46.816 26.1761 45.6717 27.4635C44.5274 28.7508 43.9998 30.3888 43.9998 31.9999C43.9998 33.611 44.5274 35.249 45.6717 36.5364C46.816 37.8237 48.611 38.6666 50.6665 38.6666C52.7221 38.6666 54.517 37.8237 55.6613 36.5364C56.8056 35.249 57.3332 33.611 57.3332 31.9999C57.3332 30.3888 56.8056 28.7508 55.6613 27.4635C54.517 26.1761 52.7221 25.3333 50.6665 25.3333ZM13.3332 29.3333C14.3887 29.3333 14.9271 29.6571 15.3384 30.1197C15.7496 30.5823 15.9998 31.2777 15.9998 31.9999C15.9998 32.7221 15.7496 33.4175 15.3384 33.8801C14.9271 34.3428 14.3887 34.6666 13.3332 34.6666C12.2776 34.6666 11.7392 34.3428 11.328 33.8801C10.9167 33.4175 10.6665 32.7221 10.6665 31.9999C10.6665 31.2777 10.9167 30.5823 11.328 30.1197C11.7392 29.6571 12.2776 29.3333 13.3332 29.3333ZM31.9998 29.3333C33.4998 29.3333 34.3716 29.8237 35.005 30.5364C35.6385 31.249 35.9998 32.2777 35.9998 33.3333C35.9998 34.3888 35.6385 35.4175 35.005 36.1301C34.3716 36.8428 33.4998 37.3333 31.9998 37.3333C30.4998 37.3333 29.6281 36.8428 28.9946 36.1301C28.3612 35.4175 27.9998 34.3888 27.9998 33.3333C27.9998 32.2777 28.3612 31.249 28.9946 30.5364C29.6281 29.8237 30.4998 29.3333 31.9998 29.3333ZM50.6665 29.3333C51.7221 29.3333 52.2605 29.6571 52.6717 30.1197C53.0829 30.5823 53.3332 31.2777 53.3332 31.9999C53.3332 32.7221 53.0829 33.4175 52.6717 33.8801C52.2605 34.3428 51.7221 34.6666 50.6665 34.6666C49.611 34.6666 49.0725 34.3428 48.6613 33.8801C48.2501 33.4175 47.9998 32.7221 47.9998 31.9999C47.9998 31.2777 48.2501 30.5823 48.6613 30.1197C49.0725 29.6571 49.611 29.3333 50.6665 29.3333ZM6.6665 41.3332C4.4665 41.3332 2.6665 43.1332 2.6665 45.3332V47.4661C2.6665 51.5061 7.3465 54.6666 13.3332 54.6666C15.0132 54.6666 16.5998 54.4142 17.9998 53.9609C17.5598 52.9342 17.3332 51.8266 17.3332 50.6666V49.9609C16.2265 50.3875 14.8532 50.6666 13.3332 50.6666C9.57317 50.6666 6.6665 48.9461 6.6665 47.4661V45.3332H18.1457C18.9457 43.7599 20.3205 42.5074 21.9738 41.8541C21.3871 41.5207 20.7065 41.3332 19.9998 41.3332H6.6665ZM43.9998 41.3332C43.2932 41.3332 42.6125 41.5207 42.0259 41.8541C43.6792 42.5074 45.054 43.7599 45.854 45.3332H57.3332V47.4661C57.3332 48.9461 54.4265 50.6666 50.6665 50.6666C49.1465 50.6666 47.7732 50.3875 46.6665 49.9609V50.6666C46.6665 51.8266 46.4398 52.9342 45.9998 53.9609C47.3998 54.4142 48.9865 54.6666 50.6665 54.6666C56.6532 54.6666 61.3332 51.5061 61.3332 47.4661V45.3332C61.3332 43.1332 59.5332 41.3332 57.3332 41.3332H43.9998ZM24.6665 43.9999C22.1132 43.9999 19.9998 46.1133 19.9998 48.6666V50.6666C19.9998 53.2241 21.7064 55.3082 23.9009 56.6249C26.0954 57.9416 28.9142 58.6666 31.9998 58.6666C35.0855 58.6666 37.9043 57.9416 40.0988 56.6249C42.2933 55.3082 43.9998 53.2241 43.9998 50.6666V48.6666C43.9998 46.1133 41.8864 43.9999 39.3332 43.9999H24.6665ZM24.6665 47.9999H39.3332C39.7266 47.9999 39.9998 48.2732 39.9998 48.6666V50.6666C39.9998 51.4224 39.4664 52.3403 38.0415 53.1952C36.6167 54.0502 34.4369 54.6666 31.9998 54.6666C29.5628 54.6666 27.383 54.0502 25.9582 53.1952C24.5333 52.3403 23.9998 51.4224 23.9998 50.6666V48.6666C23.9998 48.2732 24.2731 47.9999 24.6665 47.9999Z" fill="#1E9AF1"/>
</svg>
