<svg width="64" height="64" viewBox="0 0 64 64" fill="none" xmlns="http://www.w3.org/2000/svg">
<path d="M11.3335 10.6667C8.04349 10.6667 5.3335 13.3767 5.3335 16.6667V47.3334C5.3335 50.6234 8.04349 53.3334 11.3335 53.3334H52.6668C55.9568 53.3334 58.6668 50.6234 58.6668 47.3334V16.6667C58.6668 13.3767 55.9568 10.6667 52.6668 10.6667H11.3335ZM11.3335 14.6667H52.6668C53.7955 14.6667 54.6668 15.5381 54.6668 16.6667V47.3334C54.6668 48.4621 53.7955 49.3334 52.6668 49.3334H11.3335C10.2048 49.3334 9.3335 48.4621 9.3335 47.3334V16.6667C9.3335 15.5381 10.2048 14.6667 11.3335 14.6667ZM48.6278 17.3152C48.1084 17.3303 47.6152 17.547 47.2528 17.9194L43.3335 21.8386L42.0809 20.586C41.8966 20.3941 41.6759 20.2408 41.4316 20.1353C41.1873 20.0297 40.9245 19.9739 40.6584 19.9712C40.3923 19.9685 40.1284 20.0189 39.882 20.1195C39.6357 20.2201 39.4119 20.3688 39.2237 20.557C39.0356 20.7451 38.8868 20.9689 38.7863 21.2153C38.6857 21.4616 38.6353 21.7256 38.638 21.9917C38.6407 22.2577 38.6964 22.5206 38.802 22.7649C38.9076 23.0091 39.0608 23.2299 39.2528 23.4141L41.9194 26.0808C42.2945 26.4557 42.8032 26.6664 43.3335 26.6664C43.8638 26.6664 44.3725 26.4557 44.7476 26.0808L50.0809 20.7475C50.3694 20.4665 50.5664 20.1049 50.646 19.7101C50.7257 19.3153 50.6843 18.9056 50.5273 18.5347C50.3703 18.1639 50.1049 17.849 49.766 17.6314C49.4271 17.4138 49.0304 17.3036 48.6278 17.3152ZM15.3335 20.0001C15.0685 19.9963 14.8053 20.0453 14.5594 20.1441C14.3135 20.243 14.0896 20.3897 13.9009 20.5758C13.7122 20.7619 13.5623 20.9836 13.46 21.2281C13.3577 21.4726 13.305 21.735 13.305 22.0001C13.305 22.2651 13.3577 22.5275 13.46 22.7721C13.5623 23.0166 13.7122 23.2383 13.9009 23.4244C14.0896 23.6105 14.3135 23.7572 14.5594 23.856C14.8053 23.9549 15.0685 24.0038 15.3335 24.0001H32.6668C32.9319 24.0038 33.195 23.9549 33.4409 23.856C33.6869 23.7572 33.9107 23.6105 34.0994 23.4244C34.2882 23.2383 34.438 23.0166 34.5403 22.7721C34.6426 22.5275 34.6953 22.2651 34.6953 22.0001C34.6953 21.735 34.6426 21.4726 34.5403 21.2281C34.438 20.9836 34.2882 20.7619 34.0994 20.5758C33.9107 20.3897 33.6869 20.243 33.4409 20.1441C33.195 20.0453 32.9319 19.9963 32.6668 20.0001H15.3335ZM48.6278 26.6485C48.1084 26.6637 47.6152 26.8803 47.2528 27.2527L43.3335 31.172L42.0809 29.9194C41.8966 29.7274 41.6759 29.5742 41.4316 29.4686C41.1873 29.363 40.9245 29.3073 40.6584 29.3046C40.3923 29.3019 40.1284 29.3523 39.882 29.4529C39.6357 29.5534 39.4119 29.7021 39.2237 29.8903C39.0356 30.0785 38.8868 30.3023 38.7863 30.5486C38.6857 30.795 38.6353 31.0589 38.638 31.325C38.6407 31.5911 38.6964 31.8539 38.802 32.0982C38.9076 32.3424 39.0608 32.5632 39.2528 32.7475L41.9194 35.4141C42.2945 35.7891 42.8032 35.9997 43.3335 35.9997C43.8638 35.9997 44.3725 35.7891 44.7476 35.4141L50.0809 30.0808C50.3694 29.7998 50.5664 29.4382 50.646 29.0434C50.7257 28.6486 50.6843 28.239 50.5273 27.8681C50.3703 27.4972 50.1049 27.1823 49.766 26.9647C49.4271 26.7471 49.0304 26.6369 48.6278 26.6485V26.6485ZM15.3335 30.0001C15.0685 29.9963 14.8053 30.0453 14.5594 30.1441C14.3135 30.243 14.0896 30.3897 13.9009 30.5758C13.7122 30.7619 13.5623 30.9836 13.46 31.2281C13.3577 31.4726 13.305 31.735 13.305 32.0001C13.305 32.2651 13.3577 32.5275 13.46 32.7721C13.5623 33.0166 13.7122 33.2383 13.9009 33.4244C14.0896 33.6105 14.3135 33.7572 14.5594 33.856C14.8053 33.9549 15.0685 34.0038 15.3335 34.0001H32.6668C32.9319 34.0038 33.195 33.9549 33.4409 33.856C33.6869 33.7572 33.9107 33.6105 34.0994 33.4244C34.2882 33.2383 34.438 33.0166 34.5403 32.7721C34.6426 32.5275 34.6953 32.2651 34.6953 32.0001C34.6953 31.735 34.6426 31.4726 34.5403 31.2281C34.438 30.9836 34.2882 30.7619 34.0994 30.5758C33.9107 30.3897 33.6869 30.243 33.4409 30.1441C33.195 30.0453 32.9319 29.9963 32.6668 30.0001H15.3335ZM48.6278 35.9819C48.1084 35.997 47.6152 36.2137 47.2528 36.586L43.3335 40.5053L42.0809 39.2527C41.8966 39.0607 41.6759 38.9075 41.4316 38.8019C41.1873 38.6964 40.9245 38.6406 40.6584 38.6379C40.3923 38.6352 40.1284 38.6856 39.882 38.7862C39.6357 38.8868 39.4119 39.0355 39.2237 39.2236C39.0356 39.4118 38.8868 39.6356 38.7863 39.882C38.6857 40.1283 38.6353 40.3923 38.638 40.6583C38.6407 40.9244 38.6964 41.1873 38.802 41.4315C38.9076 41.6758 39.0608 41.8965 39.2528 42.0808L41.9194 44.7475C42.2945 45.1224 42.8032 45.333 43.3335 45.333C43.8638 45.333 44.3725 45.1224 44.7476 44.7475L50.0809 39.4141C50.3694 39.1331 50.5664 38.7716 50.646 38.3768C50.7257 37.982 50.6843 37.5723 50.5273 37.2014C50.3703 36.8305 50.1049 36.5157 49.766 36.2981C49.4271 36.0805 49.0304 35.9703 48.6278 35.9819V35.9819ZM15.3335 40.0001C15.0685 39.9963 14.8053 40.0453 14.5594 40.1441C14.3135 40.243 14.0896 40.3897 13.9009 40.5758C13.7122 40.7619 13.5623 40.9836 13.46 41.2281C13.3577 41.4726 13.305 41.735 13.305 42.0001C13.305 42.2651 13.3577 42.5275 13.46 42.7721C13.5623 43.0166 13.7122 43.2383 13.9009 43.4244C14.0896 43.6105 14.3135 43.7572 14.5594 43.856C14.8053 43.9549 15.0685 44.0038 15.3335 44.0001H32.6668C32.9319 44.0038 33.195 43.9549 33.4409 43.856C33.6869 43.7572 33.9107 43.6105 34.0994 43.4244C34.2882 43.2383 34.438 43.0166 34.5403 42.7721C34.6426 42.5275 34.6953 42.2651 34.6953 42.0001C34.6953 41.735 34.6426 41.4726 34.5403 41.2281C34.438 40.9836 34.2882 40.7619 34.0994 40.5758C33.9107 40.3897 33.6869 40.243 33.4409 40.1441C33.195 40.0453 32.9319 39.9963 32.6668 40.0001H15.3335Z" fill="#1E9AF1"/>
</svg>
