<svg width="25" height="24" viewBox="0 0 25 24" fill="none" xmlns="http://www.w3.org/2000/svg">
<path d="M20.8575 2.00785C20.7189 1.99518 20.5788 1.99786 20.4375 2.01761C18.1499 2.33855 13.235 3.04569 8.19926 9.00003H6.11723C5.77023 9.00003 5.43831 9.14261 5.19731 9.39261L2.89848 11.7852C2.52648 12.1572 2.41523 12.7123 2.61723 13.1993C2.81823 13.6863 3.28945 14 3.81645 14H6.27543C5.94416 14.3742 5.77013 14.7723 5.58403 15.2246C5.37797 15.7255 5.19645 16.2779 5.04106 16.8008C4.73028 17.8467 4.52348 18.7832 4.52348 18.7832C4.48695 18.9475 4.49246 19.1183 4.53949 19.2799C4.58653 19.4415 4.67357 19.5885 4.79255 19.7075C4.91154 19.8265 5.05863 19.9136 5.22019 19.9606C5.38176 20.0076 5.55258 20.0131 5.71684 19.9766C5.71684 19.9766 6.65333 19.7698 7.69926 19.459C8.22223 19.3036 8.77456 19.1221 9.27543 18.916C9.72782 18.7299 10.1258 18.5559 10.5 18.2246V20.6836C10.5 21.2106 10.8138 21.6828 11.3008 21.8828C11.4658 21.9518 11.6377 21.9825 11.8067 21.9825C12.1377 21.9825 12.4577 21.8598 12.6817 21.6348L15.0821 19.4473C15.3481 19.2053 15.5 18.8629 15.5 18.5039V16.3008C21.4519 11.2657 22.1607 6.35012 22.4825 4.06253C22.5615 3.49453 22.3757 2.93628 21.9707 2.53128C21.6662 2.22678 21.2732 2.04586 20.8575 2.00785ZM17 6.00003C17.828 6.00003 18.5 6.67203 18.5 7.50003C18.5 8.32803 17.828 9.00003 17 9.00003C16.172 9.00003 15.5 8.32803 15.5 7.50003C15.5 6.67203 16.172 6.00003 17 6.00003ZM13 10C13.828 10 14.5 10.672 14.5 11.5C14.5 12.328 13.828 13 13 13C12.172 13 11.5 12.328 11.5 11.5C11.5 10.672 12.172 10 13 10ZM8.14067 14.9453L9.55473 16.3594L9.20707 16.7071C9.22519 16.6889 8.91368 16.9019 8.51371 17.0664C8.11375 17.231 7.61186 17.3976 7.12895 17.5411C7.00831 17.5769 7.01489 17.5688 6.89848 17.6016C6.93127 17.4852 6.92318 17.4918 6.95903 17.3711C7.10251 16.8882 7.2691 16.3863 7.43364 15.9864C7.59818 15.5864 7.81113 15.2749 7.79301 15.293L8.14067 14.9453Z" fill="#0A2540"/>
</svg>
