<svg width="64" height="64" viewBox="0 0 64 64" fill="none" xmlns="http://www.w3.org/2000/svg">
<path d="M15.3333 0C6.88865 0 0 6.88866 0 15.3333C0 23.778 6.88865 30.6667 15.3333 30.6667C23.778 30.6667 30.6667 23.778 30.6667 15.3333C30.6667 6.88866 23.778 0 15.3333 0ZM15.3333 4C21.6163 4 26.6667 9.05042 26.6667 15.3333C26.6667 21.6163 21.6163 26.6667 15.3333 26.6667C9.05041 26.6667 4 21.6163 4 15.3333C4 9.05042 9.05041 4 15.3333 4ZM15.3021 6.63802C14.7721 6.6463 14.2671 6.8646 13.8979 7.24497C13.5288 7.62534 13.3257 8.13668 13.3333 8.66667V15.3333C13.3334 15.8637 13.5442 16.3724 13.9193 16.7474L16.5859 19.4141C16.7702 19.606 16.991 19.7592 17.2352 19.8648C17.4795 19.9704 17.7423 20.0261 18.0084 20.0289C18.2745 20.0316 18.5384 19.9811 18.7848 19.8806C19.0311 19.78 19.255 19.6313 19.4431 19.4431C19.6313 19.255 19.78 19.0311 19.8806 18.7848C19.9811 18.5384 20.0316 18.2745 20.0289 18.0084C20.0261 17.7423 19.9704 17.4795 19.8648 17.2352C19.7592 16.991 19.606 16.7702 19.4141 16.5859L17.3333 14.5052V8.66667C17.3372 8.39898 17.2872 8.13324 17.1865 7.88521C17.0857 7.63718 16.9362 7.4119 16.7468 7.22271C16.5574 7.03353 16.3319 6.8843 16.0837 6.78387C15.8356 6.68343 15.5698 6.63384 15.3021 6.63802V6.63802ZM31.7604 8C32.3258 9.264 32.7517 10.6027 33.013 12H47.3333C49.9067 12 52 14.0933 52 16.6667V18.6667H33.013C32.7504 20.064 32.3244 21.4027 31.7604 22.6667H52V47.3333C52 49.9067 49.9067 52 47.3333 52H16.6667C14.0933 52 12 49.9067 12 47.3333V33.013C10.6027 32.7504 9.264 32.3244 8 31.7604V47.3333C8 52.112 11.888 56 16.6667 56H47.3333C52.112 56 56 52.112 56 47.3333V16.6667C56 11.888 52.112 8 47.3333 8H31.7604ZM32 28C31.1159 28 30.2681 28.3512 29.643 28.9763C29.0179 29.6014 28.6667 30.4493 28.6667 31.3333C28.6667 32.2174 29.0179 33.0652 29.643 33.6904C30.2681 34.3155 31.1159 34.6667 32 34.6667C32.8841 34.6667 33.7319 34.3155 34.357 33.6904C34.9821 33.0652 35.3333 32.2174 35.3333 31.3333C35.3333 30.4493 34.9821 29.6014 34.357 28.9763C33.7319 28.3512 32.8841 28 32 28V28ZM43.3333 28C42.4493 28 41.6014 28.3512 40.9763 28.9763C40.3512 29.6014 40 30.4493 40 31.3333C40 32.2174 40.3512 33.0652 40.9763 33.6904C41.6014 34.3155 42.4493 34.6667 43.3333 34.6667C44.2174 34.6667 45.0652 34.3155 45.6904 33.6904C46.3155 33.0652 46.6667 32.2174 46.6667 31.3333C46.6667 30.4493 46.3155 29.6014 45.6904 28.9763C45.0652 28.3512 44.2174 28 43.3333 28ZM20.6667 40C19.7826 40 18.9348 40.3512 18.3096 40.9763C17.6845 41.6014 17.3333 42.4493 17.3333 43.3333C17.3333 44.2174 17.6845 45.0652 18.3096 45.6904C18.9348 46.3155 19.7826 46.6667 20.6667 46.6667C21.5507 46.6667 22.3986 46.3155 23.0237 45.6904C23.6488 45.0652 24 44.2174 24 43.3333C24 42.4493 23.6488 41.6014 23.0237 40.9763C22.3986 40.3512 21.5507 40 20.6667 40ZM32 40C31.1159 40 30.2681 40.3512 29.643 40.9763C29.0179 41.6014 28.6667 42.4493 28.6667 43.3333C28.6667 44.2174 29.0179 45.0652 29.643 45.6904C30.2681 46.3155 31.1159 46.6667 32 46.6667C32.8841 46.6667 33.7319 46.3155 34.357 45.6904C34.9821 45.0652 35.3333 44.2174 35.3333 43.3333C35.3333 42.4493 34.9821 41.6014 34.357 40.9763C33.7319 40.3512 32.8841 40 32 40V40Z" fill="#1E9AF1"/>
</svg>
