<svg width="88" height="88" viewBox="0 0 88 88" fill="none" xmlns="http://www.w3.org/2000/svg">
<path d="M44 88C68.3005 88 88 68.3005 88 44C88 19.6995 68.3005 0 44 0C19.6995 0 0 19.6995 0 44C0 68.3005 19.6995 88 44 88Z" fill="white"/>
<path d="M61.2313 68.7313C61.7913 69.2913 62.75 68.895 62.75 68.1025V61.185C62.75 60.6688 63.1688 60.25 63.685 60.25H70.6025C71.395 60.25 71.7925 59.2913 71.2313 58.7313L56.5 44L46.5 54L61.2313 68.7313Z" fill="url(#paint0_linear_424_885)"/>
<path d="M41.4993 54L31.4993 44L16.7681 58.7313C16.2081 59.2913 16.6043 60.25 17.3968 60.25H24.3143C24.8306 60.25 25.2493 60.6688 25.2493 61.185V68.1025C25.2493 68.895 26.2081 69.2925 26.7681 68.7313L41.4993 54Z" fill="url(#paint1_linear_424_885)"/>
<path d="M65.2938 38.1173L63.7213 37.1723C63.0513 36.7698 62.5988 36.1085 62.3938 35.3548C62.3888 35.341 62.3875 35.3273 62.3825 35.3123C62.1738 34.5523 62.2363 33.7423 62.6188 33.0535L63.51 31.4498C64.4213 29.8098 63.2563 27.7885 61.3788 27.7573L59.5275 27.726C58.7425 27.7123 58.015 27.3635 57.4625 26.8098C57.4563 26.8035 57.4513 26.7985 57.445 26.7923C56.8875 26.2373 56.5413 25.5085 56.5275 24.7248L56.4963 22.8735C56.465 20.9973 54.4438 19.831 52.8038 20.7423L51.2 21.6335C50.5088 22.016 49.7013 22.0785 48.9413 21.8698C48.9275 21.8648 48.9138 21.8635 48.8988 21.8585C48.145 21.6535 47.4838 21.201 47.0813 20.531L46.1363 18.9585C45.1713 17.3498 42.8375 17.3498 41.8725 18.9585L40.9325 20.5248C40.5275 21.1998 39.8588 21.656 39.1013 21.8635C39.0925 21.866 39.085 21.8685 39.0763 21.8698C38.3088 22.081 37.495 22.0185 36.7988 21.631L35.2013 20.7448C33.5613 19.8335 31.54 20.9985 31.5088 22.876L31.475 24.7248C31.4613 25.5073 31.1125 26.2373 30.5588 26.7898C30.5525 26.7948 30.545 26.801 30.5413 26.8073C29.9875 27.3635 29.2588 27.7098 28.4763 27.7235L26.625 27.7548C24.7488 27.786 23.5825 29.8048 24.4938 31.4473L25.385 33.051C25.7675 33.7423 25.83 34.5498 25.6213 35.3098C25.615 35.3235 25.6125 35.3385 25.6075 35.3523C25.4025 36.106 24.9488 36.7673 24.28 37.1698L22.7075 38.1148C21.0988 39.0798 21.0988 41.4135 22.7075 42.3785L24.28 43.3235C24.95 43.726 25.4025 44.3873 25.6075 45.141C25.6125 45.1548 25.6138 45.1685 25.6188 45.1835C25.8275 45.9435 25.765 46.7535 25.3825 47.4423L24.4913 49.046C23.58 50.686 24.745 52.7073 26.6225 52.7385L28.4738 52.7698C29.2588 52.7835 29.9863 53.1323 30.5388 53.686C30.545 53.6923 30.55 53.6973 30.5563 53.7035C31.1125 54.2573 31.4588 54.986 31.4725 55.7685L31.5038 57.6198C31.535 59.496 33.5563 60.6623 35.1963 59.751L36.8 58.8598C37.4913 58.4773 38.2988 58.4148 39.0588 58.6235C39.0725 58.6285 39.0875 58.6298 39.1013 58.6348C39.855 58.8398 40.5163 59.2923 40.9188 59.9623L41.8638 61.5348C42.8288 63.1435 45.1625 63.1435 46.1275 61.5348L47.0725 59.9623C47.475 59.2923 48.1363 58.8398 48.89 58.6348C48.9038 58.6298 48.9188 58.6285 48.9325 58.6235C49.6925 58.4148 50.5025 58.4773 51.1913 58.8598L52.795 59.751C54.435 60.6623 56.4563 59.4973 56.4875 57.6198L56.5188 55.7685C56.5325 54.9835 56.8813 54.256 57.435 53.7035C57.4413 53.6973 57.4463 53.6923 57.4525 53.686C58.0063 53.1298 58.735 52.7835 59.5175 52.7698L61.3688 52.7385C63.245 52.7073 64.4113 50.686 63.5 49.046L62.6088 47.4423C62.2263 46.751 62.1638 45.9435 62.3725 45.1835C62.3775 45.1698 62.3788 45.156 62.3838 45.141C62.5888 44.3873 63.0413 43.726 63.7113 43.3235L65.2838 42.3785C66.9025 41.4148 66.9025 39.0835 65.2938 38.1173Z" fill="url(#paint2_linear_424_885)"/>
<defs>
<linearGradient id="paint0_linear_424_885" x1="51.6413" y1="49.1413" x2="67.6638" y2="65.1638" gradientUnits="userSpaceOnUse">
<stop stop-color="#8C20E5"/>
<stop offset="0.427" stop-color="#9E32EB"/>
<stop offset="1" stop-color="#BD4FF4"/>
</linearGradient>
<linearGradient id="paint1_linear_424_885" x1="36.3581" y1="49.1413" x2="20.3356" y2="65.1637" gradientUnits="userSpaceOnUse">
<stop stop-color="#8C20E5"/>
<stop offset="0.427" stop-color="#9E32EB"/>
<stop offset="1" stop-color="#BD4FF4"/>
</linearGradient>
<linearGradient id="paint2_linear_424_885" x1="32.5613" y1="20.3673" x2="55.3475" y2="59.9723" gradientUnits="userSpaceOnUse">
<stop stop-color="#FFDA1C"/>
<stop offset="1" stop-color="#FEB705"/>
</linearGradient>
</defs>
</svg>
