<svg width="1440" height="215" viewBox="0 0 1440 215" fill="none" xmlns="http://www.w3.org/2000/svg">
<path d="M312.571 15.5792C135.304 -18.0509 -24.0186 102.9 -30 107.325V207.035L1595.85 215C1620.69 182.452 1664.91 109.331 1643.16 77.2344C1615.97 37.1143 1533.86 15.5792 1457.74 33.5742C1381.61 51.5693 1309.29 66.0244 1164.65 24.4292C1020.01 -17.166 873.735 2.30411 768.245 24.4292C662.755 46.5543 489.838 49.2093 312.571 15.5792Z" fill="#11C7F2" fill-opacity="0.3"/>
<path d="M1259.43 15.5792C1436.7 -18.051 1596.02 102.9 1602 107.325V207.035L-23.8536 215C-48.6855 182.452 -92.9116 109.331 -71.1611 77.2344C-43.9729 37.1143 38.1354 15.5792 114.262 33.5742C190.389 51.5693 262.71 66.0244 407.351 24.4292C551.992 -17.166 698.265 2.30411 803.755 24.4292C909.245 46.5543 1082.16 49.2093 1259.43 15.5792Z" fill="#3B9FFF" fill-opacity="0.2"/>
</svg>
